<?xml version="1.0" encoding="UTF-8" standalone="no"?>
<!-- Created with Inkscape (http://www.inkscape.org/) -->

<svg
   xmlns:dc="http://purl.org/dc/elements/1.1/"
   xmlns:cc="http://creativecommons.org/ns#"
   xmlns:rdf="http://www.w3.org/1999/02/22-rdf-syntax-ns#"
   xmlns:svg="http://www.w3.org/2000/svg"
   xmlns="http://www.w3.org/2000/svg"
   xmlns:sodipodi="http://sodipodi.sourceforge.net/DTD/sodipodi-0.dtd"
   xmlns:inkscape="http://www.inkscape.org/namespaces/inkscape"
   width="75.393646mm"
   height="75.393646mm"
   viewBox="0 0 267.14284 267.14284"
   id="svg2"
   version="1.1"
   inkscape:version="0.91 r13725"
   sodipodi:docname="IMAGEN_NO_DISPONIBLE.svg">
  <defs
     id="defs4" />
  <sodipodi:namedview
     id="base"
     pagecolor="#ffffff"
     bordercolor="#666666"
     borderopacity="1.0"
     inkscape:pageopacity="0.0"
     inkscape:pageshadow="2"
     inkscape:zoom="1.979899"
     inkscape:cx="126.84344"
     inkscape:cy="122.33001"
     inkscape:document-units="px"
     inkscape:current-layer="layer1"
     showgrid="false"
     inkscape:window-width="1920"
     inkscape:window-height="1017"
     inkscape:window-x="-8"
     inkscape:window-y="-8"
     inkscape:window-maximized="1"
     fit-margin-top="0"
     fit-margin-left="0"
     fit-margin-right="0"
     fit-margin-bottom="0" />
  <metadata
     id="metadata7">
    <rdf:RDF>
      <cc:Work
         rdf:about="">
        <dc:format>image/svg+xml</dc:format>
        <dc:type
           rdf:resource="http://purl.org/dc/dcmitype/StillImage" />
        <dc:title></dc:title>
      </cc:Work>
    </rdf:RDF>
  </metadata>
  <g
     inkscape:label="Capa 1"
     inkscape:groupmode="layer"
     id="layer1"
     transform="translate(-250.71428,-168.07649)">
    <g
       id="g4371">
      <rect
         y="168.07649"
         x="250.71428"
         height="267.14285"
         width="267.14285"
         id="rect4147"
         style="opacity:0.98999999;fill:#ffffff;fill-opacity:1;fill-rule:nonzero;stroke:none;stroke-width:1;stroke-linecap:round;stroke-linejoin:bevel;stroke-miterlimit:4;stroke-dasharray:none;stroke-opacity:1" />
      <path
         inkscape:connector-curvature="0"
         id="path4149"
         d="M 384.28473,180.2485 A 121.39911,121.39911 0 0 0 262.88629,301.64889 121.39911,121.39911 0 0 0 384.28473,423.04733 121.39911,121.39911 0 0 0 505.68512,301.64889 121.39911,121.39911 0 0 0 384.28473,180.2485 Z m 0,28.61914 a 92.781448,92.781448 0 0 1 92.78125,92.78125 92.781448,92.781448 0 0 1 -19.47657,56.69336 L 327.5484,228.30123 a 92.781448,92.781448 0 0 1 56.73633,-19.43359 z m -73.30469,36.08789 130.04101,130.04101 a 92.781448,92.781448 0 0 1 -56.73632,19.4336 92.781448,92.781448 0 0 1 -92.78125,-92.78125 92.781448,92.781448 0 0 1 19.47656,-56.69336 z"
         style="opacity:0.98999999;fill:#ff5555;fill-opacity:1;fill-rule:nonzero;stroke:none;stroke-width:1.05893302;stroke-linecap:round;stroke-linejoin:bevel;stroke-miterlimit:4;stroke-dasharray:none;stroke-opacity:1" />
      <rect
         y="253.25507"
         x="309.64285"
         height="96.785706"
         width="149.28572"
         id="rect4256"
         style="opacity:0.67400004;fill:#ffffff;fill-opacity:1;fill-rule:nonzero;stroke:none;stroke-width:0.80000001;stroke-linecap:round;stroke-linejoin:round;stroke-miterlimit:4;stroke-dasharray:none;stroke-opacity:1" />
      <g
         transform="translate(-0.0041736,2.2624107)"
         id="g4349">
        <g
           id="g4208"
           style="font-style:normal;font-weight:normal;font-size:medium;line-height:125%;font-family:sans-serif;letter-spacing:0px;word-spacing:0px;fill:#000000;fill-opacity:1;stroke:none;stroke-width:0.82478809;stroke-linecap:butt;stroke-linejoin:round;stroke-miterlimit:4;stroke-dasharray:none;stroke-opacity:1"
           transform="matrix(0.73509122,0,0,1.2798349,22.751736,2.8571429)">
          <path
             d="m 389.86817,247.0187 0,14.4963 2.19593,0 q 3.75535,0 5.7285,-1.86176 1.98907,-1.86177 1.98907,-5.41026 0,-3.53257 -1.97315,-5.37842 -1.97315,-1.84586 -5.74442,-1.84586 l -2.19593,0 z m -6.12631,-4.63054 6.46048,0 q 5.41025,0 8.05173,0.77972 2.65739,0.7638 4.55097,2.60965 1.67082,1.60716 2.48236,3.70761 0.81153,2.10046 0.81153,4.75784 0,2.68922 -0.81153,4.80558 -0.81154,2.10045 -2.48236,3.70762 -1.9095,1.84585 -4.5828,2.62556 -2.6733,0.7638 -8.0199,0.7638 l -6.46048,0 0,-23.75738 z"
             style="font-style:normal;font-variant:normal;font-weight:bold;font-stretch:normal;font-size:32.58882141px;line-height:125%;font-family:sans-serif;-inkscape-font-specification:'sans-serif, Bold';text-align:center;writing-mode:lr-tb;text-anchor:middle;stroke:none;stroke-width:0.82478809;stroke-linejoin:round;stroke-miterlimit:4;stroke-dasharray:none;stroke-opacity:1"
             id="path4178"
             inkscape:connector-curvature="0" />
          <path
             d="m 410.79312,242.38816 6.12632,0 0,23.75738 -6.12632,0 0,-23.75738 z"
             style="font-style:normal;font-variant:normal;font-weight:bold;font-stretch:normal;font-size:32.58882141px;line-height:125%;font-family:sans-serif;-inkscape-font-specification:'sans-serif, Bold';text-align:center;writing-mode:lr-tb;text-anchor:middle;stroke:none;stroke-width:0.82478809;stroke-linejoin:round;stroke-miterlimit:4;stroke-dasharray:none;stroke-opacity:1"
             id="path4180"
             inkscape:connector-curvature="0" />
          <path
             d="m 439.48338,243.13605 0,5.02836 q -1.95724,-0.87519 -3.819,-1.32074 -1.86176,-0.44555 -3.51666,-0.44555 -2.19593,0 -3.24616,0.60467 -1.05022,0.60468 -1.05022,1.87768 0,0.95475 0.70015,1.49577 0.71606,0.52512 2.57783,0.90702 l 2.60965,0.52511 q 3.96221,0.79563 5.63303,2.4187 1.67081,1.62308 1.67081,4.61463 0,3.93039 -2.33914,5.8558 -2.32323,1.9095 -7.11289,1.9095 -2.25958,0 -4.53507,-0.42963 -2.27549,-0.42964 -4.55098,-1.273 l 0,-5.17157 q 2.27549,1.20935 4.39186,1.82994 2.13227,0.60467 4.10543,0.60467 2.00497,0 3.07111,-0.66832 1.06614,-0.66833 1.06614,-1.9095 0,-1.11388 -0.73198,-1.71855 -0.71606,-0.60468 -2.88016,-1.08205 l -2.37097,-0.52512 q -3.5644,-0.7638 -5.2193,-2.43461 -1.63899,-1.67081 -1.63899,-4.50324 0,-3.54849 2.2914,-5.45799 2.2914,-1.9095 6.58778,-1.9095 1.95724,0 4.02587,0.30233 2.06862,0.28643 4.28046,0.87519 z"
             style="font-style:normal;font-variant:normal;font-weight:bold;font-stretch:normal;font-size:32.58882141px;line-height:125%;font-family:sans-serif;-inkscape-font-specification:'sans-serif, Bold';text-align:center;writing-mode:lr-tb;text-anchor:middle;stroke:none;stroke-width:0.82478809;stroke-linejoin:round;stroke-miterlimit:4;stroke-dasharray:none;stroke-opacity:1"
             id="path4182"
             inkscape:connector-curvature="0" />
          <path
             d="m 446.43715,242.38816 10.16809,0 q 4.53507,0 6.95377,2.02089 2.43461,2.00498 2.43461,5.72851 0,3.73944 -2.43461,5.76033 -2.4187,2.00497 -6.95377,2.00497 l -4.04178,0 0,8.24268 -6.12631,0 0,-23.75738 z m 6.12631,4.43959 0,6.63552 3.38937,0 q 1.7822,0 2.75286,-0.85927 0.97067,-0.87519 0.97067,-2.46644 0,-1.59125 -0.97067,-2.45053 -0.97066,-0.85928 -2.75286,-0.85928 l -3.38937,0 z"
             style="font-style:normal;font-variant:normal;font-weight:bold;font-stretch:normal;font-size:32.58882141px;line-height:125%;font-family:sans-serif;-inkscape-font-specification:'sans-serif, Bold';text-align:center;writing-mode:lr-tb;text-anchor:middle;stroke:none;stroke-width:0.82478809;stroke-linejoin:round;stroke-miterlimit:4;stroke-dasharray:none;stroke-opacity:1"
             id="path4184"
             inkscape:connector-curvature="0" />
          <path
             d="m 481.15825,246.39812 q -2.80061,0 -4.34412,2.06862 -1.54351,2.06863 -1.54351,5.82398 0,3.73944 1.54351,5.80807 1.54351,2.06862 4.34412,2.06862 2.81651,0 4.36002,-2.06862 1.54352,-2.06863 1.54352,-5.80807 0,-3.75535 -1.54352,-5.82398 -1.54351,-2.06862 -4.36002,-2.06862 z m 0,-4.43959 q 5.7285,0 8.97465,3.27797 3.24615,3.27798 3.24615,9.05422 0,5.76033 -3.24615,9.03831 -3.24615,3.27797 -8.97465,3.27797 -5.7126,0 -8.97466,-3.27797 -3.24615,-3.27798 -3.24615,-9.03831 0,-5.77624 3.24615,-9.05422 3.26206,-3.27797 8.97466,-3.27797 z"
             style="font-style:normal;font-variant:normal;font-weight:bold;font-stretch:normal;font-size:32.58882141px;line-height:125%;font-family:sans-serif;-inkscape-font-specification:'sans-serif, Bold';text-align:center;writing-mode:lr-tb;text-anchor:middle;stroke:none;stroke-width:0.82478809;stroke-linejoin:round;stroke-miterlimit:4;stroke-dasharray:none;stroke-opacity:1"
             id="path4186"
             inkscape:connector-curvature="0" />
          <path
             d="m 497.99368,242.38816 6.84238,0 8.64049,16.29441 0,-16.29441 5.80807,0 0,23.75738 -6.84238,0 -8.64049,-16.29441 0,16.29441 -5.80807,0 0,-23.75738 z"
             style="font-style:normal;font-variant:normal;font-weight:bold;font-stretch:normal;font-size:32.58882141px;line-height:125%;font-family:sans-serif;-inkscape-font-specification:'sans-serif, Bold';text-align:center;writing-mode:lr-tb;text-anchor:middle;stroke:none;stroke-width:0.82478809;stroke-linejoin:round;stroke-miterlimit:4;stroke-dasharray:none;stroke-opacity:1"
             id="path4188"
             inkscape:connector-curvature="0" />
          <path
             d="m 525.29955,242.38816 6.12632,0 0,23.75738 -6.12632,0 0,-23.75738 z"
             style="font-style:normal;font-variant:normal;font-weight:bold;font-stretch:normal;font-size:32.58882141px;line-height:125%;font-family:sans-serif;-inkscape-font-specification:'sans-serif, Bold';text-align:center;writing-mode:lr-tb;text-anchor:middle;stroke:none;stroke-width:0.82478809;stroke-linejoin:round;stroke-miterlimit:4;stroke-dasharray:none;stroke-opacity:1"
             id="path4190"
             inkscape:connector-curvature="0" />
          <path
             d="m 546.97238,251.5856 q 1.44804,0 2.19593,-0.63651 0.74789,-0.6365 0.74789,-1.87767 0,-1.22526 -0.74789,-1.86177 -0.74789,-0.65241 -2.19593,-0.65241 l -3.38936,0 0,5.02836 3.38936,0 z m 0.20686,10.39086 q 1.84586,0 2.76878,-0.77971 0.93884,-0.77971 0.93884,-2.35505 0,-1.54351 -0.92293,-2.30731 -0.92292,-0.77972 -2.78469,-0.77972 l -3.59622,0 0,6.22179 3.59622,0 z m 5.69668,-8.54501 q 1.97315,0.57285 3.05521,2.11636 1.08205,1.54351 1.08205,3.78718 0,3.4371 -2.32323,5.12383 -2.32323,1.68672 -7.06515,1.68672 l -10.1681,0 0,-23.75738 9.19743,0 q 4.94879,0 7.16063,1.49578 2.22775,1.49578 2.22775,4.78967 0,1.73446 -0.81153,2.95972 -0.81154,1.20935 -2.35506,1.79812 z"
             style="font-style:normal;font-variant:normal;font-weight:bold;font-stretch:normal;font-size:32.58882141px;line-height:125%;font-family:sans-serif;-inkscape-font-specification:'sans-serif, Bold';text-align:center;writing-mode:lr-tb;text-anchor:middle;stroke:none;stroke-width:0.82478809;stroke-linejoin:round;stroke-miterlimit:4;stroke-dasharray:none;stroke-opacity:1"
             id="path4192"
             inkscape:connector-curvature="0" />
          <path
             d="m 562.28022,242.38816 6.12631,0 0,19.12684 10.75686,0 0,4.63054 -16.88317,0 0,-23.75738 z"
             style="font-style:normal;font-variant:normal;font-weight:bold;font-stretch:normal;font-size:32.58882141px;line-height:125%;font-family:sans-serif;-inkscape-font-specification:'sans-serif, Bold';text-align:center;writing-mode:lr-tb;text-anchor:middle;stroke:none;stroke-width:0.82478809;stroke-linejoin:round;stroke-miterlimit:4;stroke-dasharray:none;stroke-opacity:1"
             id="path4194"
             inkscape:connector-curvature="0" />
          <path
             d="m 583.03014,242.38816 16.5331,0 0,4.63054 -10.40678,0 0,4.42368 9.78619,0 0,4.63054 -9.78619,0 0,5.44208 10.75686,0 0,4.63054 -16.88318,0 0,-23.75738 z"
             style="font-style:normal;font-variant:normal;font-weight:bold;font-stretch:normal;font-size:32.58882141px;line-height:125%;font-family:sans-serif;-inkscape-font-specification:'sans-serif, Bold';text-align:center;writing-mode:lr-tb;text-anchor:middle;stroke:none;stroke-width:0.82478809;stroke-linejoin:round;stroke-miterlimit:4;stroke-dasharray:none;stroke-opacity:1"
             id="path4196"
             inkscape:connector-curvature="0" />
        </g>
        <g
           id="g4339">
          <path
             inkscape:connector-curvature="0"
             d="m 304.85618,260.93859 4.66447,0 0,30.40552 -4.66447,0 0,-30.40552 z"
             style="font-style:normal;font-variant:normal;font-weight:bold;font-stretch:normal;font-size:32.58882141px;line-height:125%;font-family:sans-serif;-inkscape-font-specification:'sans-serif, Bold';text-align:center;letter-spacing:0px;word-spacing:0px;writing-mode:lr-tb;text-anchor:middle;fill:#000000;fill-opacity:1;stroke:none;stroke-width:0.81042296;stroke-linecap:butt;stroke-linejoin:round;stroke-miterlimit:4;stroke-dasharray:none;stroke-opacity:1"
             id="path4162" />
          <path
             inkscape:connector-curvature="0"
             d="m 314.11242,260.93859 5.93659,0 4.11928,16.27194 4.1435,-16.27194 5.92447,0 0,30.40552 -4.41004,0 0,-22.23901 -4.16773,16.39414 -2.95618,0 -4.16773,-16.39414 0,22.23901 -4.42216,0 0,-30.40552 z"
             style="font-style:normal;font-variant:normal;font-weight:bold;font-stretch:normal;font-size:32.58882141px;line-height:125%;font-family:sans-serif;-inkscape-font-specification:'sans-serif, Bold';text-align:center;letter-spacing:0px;word-spacing:0px;writing-mode:lr-tb;text-anchor:middle;fill:#000000;fill-opacity:1;stroke:none;stroke-width:0.81042296;stroke-linecap:butt;stroke-linejoin:round;stroke-miterlimit:4;stroke-dasharray:none;stroke-opacity:1"
             id="path4164" />
          <path
             inkscape:connector-curvature="0"
             d="m 374.27798,289.08355 q -1.74463,1.42557 -3.62253,2.13836 -1.8779,0.7128 -3.87696,0.7128 -4.51908,0 -7.16026,-4.236 -2.64118,-4.25637 -2.64118,-11.52681 0,-7.35191 2.68964,-11.56754 2.68964,-4.21564 7.36622,-4.21564 1.80521,0 3.45293,0.57023 1.65982,0.57023 3.12579,1.69033 l 0,6.2929 q -1.51444,-1.44593 -3.01676,-2.15873 -1.4902,-0.71279 -2.99253,-0.71279 -2.78656,0 -4.301,2.62713 -1.50232,2.60678 -1.50232,7.47411 0,4.82659 1.45386,7.45372 1.45386,2.62714 4.13138,2.62714 0.72693,0 1.34482,-0.14256 0.63001,-0.16292 1.12674,-0.48877 l 0,-5.90596 -2.84714,0 0,-5.25427 7.2693,0 0,14.62235 z"
             style="font-style:normal;font-variant:normal;font-weight:bold;font-stretch:normal;font-size:32.58882141px;line-height:125%;font-family:sans-serif;-inkscape-font-specification:'sans-serif, Bold';text-align:center;letter-spacing:0px;word-spacing:0px;writing-mode:lr-tb;text-anchor:middle;fill:#000000;fill-opacity:1;stroke:none;stroke-width:0.81042296;stroke-linecap:butt;stroke-linejoin:round;stroke-miterlimit:4;stroke-dasharray:none;stroke-opacity:1"
             id="path4168" />
          <path
             inkscape:connector-curvature="0"
             d="m 378.37302,260.93859 12.588,0 0,5.92633 -7.92353,0 0,5.66158 7.45103,0 0,5.92632 -7.45103,0 0,6.96495 8.19007,0 0,5.92634 -12.85454,0 0,-30.40552 z"
             style="font-style:normal;font-variant:normal;font-weight:bold;font-stretch:normal;font-size:32.58882141px;line-height:125%;font-family:sans-serif;-inkscape-font-specification:'sans-serif, Bold';text-align:center;letter-spacing:0px;word-spacing:0px;writing-mode:lr-tb;text-anchor:middle;fill:#000000;fill-opacity:1;stroke:none;stroke-width:0.81042296;stroke-linecap:butt;stroke-linejoin:round;stroke-miterlimit:4;stroke-dasharray:none;stroke-opacity:1"
             id="path4170" />
          <path
             inkscape:connector-curvature="0"
             d="m 395.33471,260.93859 5.20967,0 6.57871,20.85415 0,-20.85415 4.42216,0 0,30.40552 -5.20966,0 -6.57872,-20.85416 0,20.85416 -4.42216,0 0,-30.40552 z"
             style="font-style:normal;font-variant:normal;font-weight:bold;font-stretch:normal;font-size:32.58882141px;line-height:125%;font-family:sans-serif;-inkscape-font-specification:'sans-serif, Bold';text-align:center;letter-spacing:0px;word-spacing:0px;writing-mode:lr-tb;text-anchor:middle;fill:#000000;fill-opacity:1;stroke:none;stroke-width:0.81042296;stroke-linecap:butt;stroke-linejoin:round;stroke-miterlimit:4;stroke-dasharray:none;stroke-opacity:1"
             id="path4172" />
          <path
             inkscape:connector-curvature="0"
             d="m 424.75114,260.93859 5.20966,0 6.57872,20.85415 0,-20.85415 4.42215,0 0,30.40552 -5.20966,0 -6.57871,-20.85416 0,20.85416 -4.42216,0 0,-30.40552 z"
             style="font-style:normal;font-variant:normal;font-weight:bold;font-stretch:normal;font-size:32.58882141px;line-height:125%;font-family:sans-serif;-inkscape-font-specification:'sans-serif, Bold';text-align:center;letter-spacing:0px;word-spacing:0px;writing-mode:lr-tb;text-anchor:middle;fill:#000000;fill-opacity:1;stroke:none;stroke-width:0.81042296;stroke-linecap:butt;stroke-linejoin:round;stroke-miterlimit:4;stroke-dasharray:none;stroke-opacity:1"
             id="path4174" />
          <path
             inkscape:connector-curvature="0"
             d="m 453.80411,266.07066 q -2.13233,0 -3.30753,2.64751 -1.1752,2.64749 -1.1752,7.45373 0,4.78587 1.1752,7.43336 1.1752,2.6475 3.30753,2.6475 2.14445,0 3.31965,-2.6475 1.1752,-2.64749 1.1752,-7.43336 0,-4.80624 -1.1752,-7.45373 -1.1752,-2.64751 -3.31965,-2.64751 z m 0,-5.68194 q 4.36158,0 6.83314,4.19527 2.47156,4.19526 2.47156,11.58791 0,7.37226 -2.47156,11.56753 -2.47156,4.19528 -6.83314,4.19528 -4.34946,0 -6.83314,-4.19528 -2.47156,-4.19527 -2.47156,-11.56753 0,-7.39265 2.47156,-11.58791 2.48368,-4.19527 6.83314,-4.19527 z"
             style="font-style:normal;font-variant:normal;font-weight:bold;font-stretch:normal;font-size:32.58882141px;line-height:125%;font-family:sans-serif;-inkscape-font-specification:'sans-serif, Bold';text-align:center;letter-spacing:0px;word-spacing:0px;writing-mode:lr-tb;text-anchor:middle;fill:#000000;fill-opacity:1;stroke:none;stroke-width:0.81042296;stroke-linecap:butt;stroke-linejoin:round;stroke-miterlimit:4;stroke-dasharray:none;stroke-opacity:1"
             id="path4176" />
          <path
             inkscape:connector-curvature="0"
             d="m 346.45147,254.70093 3.93356,0 -3.96136,4.46789 -2.72431,0 2.75211,-4.46789 z m 3.35321,31.10379 -7.29353,0 -1.15097,5.53939 -4.6887,0 6.69987,-30.40552 5.56101,0 6.69987,30.40552 -4.6887,0 -1.13885,-5.53939 z m -6.13044,-5.64121 4.95524,0 -2.47157,-12.09703 -2.48367,12.09703 z"
             style="font-style:normal;font-variant:normal;font-weight:bold;font-stretch:normal;font-size:medium;line-height:125%;font-family:sans-serif;-inkscape-font-specification:'sans-serif, Bold';text-align:start;letter-spacing:0px;word-spacing:0px;writing-mode:lr-tb;text-anchor:start;fill:#000000;fill-opacity:1;stroke:none;stroke-width:1px;stroke-linecap:butt;stroke-linejoin:miter;stroke-opacity:1"
             id="path4281" />
        </g>
      </g>
    </g>
  </g>
</svg>
