<?xml version="1.0" encoding="UTF-8" standalone="no"?>
<!-- Created with Inkscape (http://www.inkscape.org/) -->

<svg
   xmlns:dc="http://purl.org/dc/elements/1.1/"
   xmlns:cc="http://creativecommons.org/ns#"
   xmlns:rdf="http://www.w3.org/1999/02/22-rdf-syntax-ns#"
   xmlns:svg="http://www.w3.org/2000/svg"
   xmlns="http://www.w3.org/2000/svg"
   xmlns:sodipodi="http://sodipodi.sourceforge.net/DTD/sodipodi-0.dtd"
   xmlns:inkscape="http://www.inkscape.org/namespaces/inkscape"
   width="4.5155554mm"
   height="4.5155554mm"
   viewBox="0 0 16 16"
   id="svg4604"
   version="1.1"
   inkscape:version="0.91 r13725"
   sodipodi:docname="it_ico2.svg"
   inkscape:export-filename="D:\it-ra\Escritorio\it_ico5.png"
   inkscape:export-xdpi="90.000008"
   inkscape:export-ydpi="90.000008">
  <title
     id="title5174">it_ico</title>
  <defs
     id="defs4606" />
  <sodipodi:namedview
     id="base"
     pagecolor="#ffffff"
     bordercolor="#666666"
     borderopacity="1.0"
     inkscape:pageopacity="0.0"
     inkscape:pageshadow="2"
     inkscape:zoom="11.2"
     inkscape:cx="-7.0290183"
     inkscape:cy="6.1226429"
     inkscape:document-units="px"
     inkscape:current-layer="layer1"
     showgrid="false"
     fit-margin-top="0"
     fit-margin-left="0"
     fit-margin-right="0"
     fit-margin-bottom="0"
     inkscape:window-width="1920"
     inkscape:window-height="1017"
     inkscape:window-x="-8"
     inkscape:window-y="-8"
     inkscape:window-maximized="1" />
  <metadata
     id="metadata4609">
    <rdf:RDF>
      <cc:Work
         rdf:about="">
        <dc:format>image/svg+xml</dc:format>
        <dc:type
           rdf:resource="http://purl.org/dc/dcmitype/StillImage" />
        <dc:title>it_ico</dc:title>
      </cc:Work>
    </rdf:RDF>
  </metadata>
  <g
     inkscape:label="Capa 1"
     inkscape:groupmode="layer"
     id="layer1"
     transform="translate(-547.47791,-451.41687)">
    <rect
       y="451.41687"
       x="547.47791"
       height="16"
       width="16"
       id="rect4569"
       style="opacity:1;fill:#0000ff;fill-opacity:1;fill-rule:nonzero;stroke:none;stroke-width:1.00000012;stroke-linecap:round;stroke-linejoin:bevel;stroke-miterlimit:4;stroke-dasharray:none;stroke-opacity:1"
       inkscape:export-xdpi="90.000008"
       inkscape:export-ydpi="90.000008" />
    <path
       inkscape:connector-curvature="0"
       id="rect4571"
       d="m 577.34937,459.93923 -20.49065,7.75162 c -0.76496,0.28938 -1.99666,0.28938 -2.76162,0 l -20.49065,-7.75162 c -0.76496,-0.28939 -0.76496,-0.75534 0,-1.04473 l 20.49065,-7.75161 c 0.76496,-0.28938 1.99666,-0.28938 2.76162,0 l 20.49065,7.75161 c 0.76495,0.28939 0.76495,0.75534 0,1.04473 z"
       style="opacity:1;fill:#ffffff;fill-opacity:1;stroke:#ffffff;stroke-width:0.14983197;stroke-linecap:round;stroke-linejoin:round;stroke-miterlimit:4;stroke-dasharray:none;stroke-opacity:1"
       inkscape:export-xdpi="150"
       inkscape:export-ydpi="150" />
    <g
       id="g5291"
       inkscape:export-xdpi="90.000008"
       inkscape:export-ydpi="90.000008"
       transform="matrix(1,0,0,0.87375194,0.13885307,57.623059)">
      <g
         transform="matrix(1,0,0,0.84677192,0,70.442855)"
         id="g5287">
        <path
           style="font-style:normal;font-variant:normal;font-weight:normal;font-stretch:normal;font-size:medium;line-height:125%;font-family:Calibri;-inkscape-font-specification:'Calibri, Normal';text-align:start;letter-spacing:0px;word-spacing:0px;writing-mode:lr-tb;text-anchor:start;fill:#0000ff;fill-opacity:1;stroke:none;stroke-width:1.04840183px;stroke-linecap:butt;stroke-linejoin:miter;stroke-opacity:1"
           d="m 552.41438,465.69759 q 0,0.0759 -0.0349,0.13285 -0.0349,0.057 -0.12241,0.0949 -0.0875,0.0285 -0.236,0.0474 -0.13985,0.0285 -0.35836,0.0285 -0.20978,0 -0.35837,-0.0285 -0.14859,-0.019 -0.23598,-0.0474 -0.0874,-0.0379 -0.12242,-0.0949 -0.0349,-0.057 -0.0349,-0.13285 l 0,-11.78658 q 0,-0.0759 0.0349,-0.13286 0.0437,-0.057 0.13115,-0.0855 0.0962,-0.0379 0.236,-0.057 0.14859,-0.0285 0.34962,-0.0285 0.21851,0 0.35836,0.0285 0.14859,0.019 0.236,0.057 0.0873,0.0285 0.12241,0.0855 0.0349,0.057 0.0349,0.13286 l 0,11.78658 z"
           id="path4577"
           inkscape:connector-curvature="0" />
        <path
           style="font-style:normal;font-variant:normal;font-weight:normal;font-stretch:normal;font-size:medium;line-height:125%;font-family:Calibri;-inkscape-font-specification:'Calibri, Normal';text-align:start;letter-spacing:0px;word-spacing:0px;writing-mode:lr-tb;text-anchor:start;fill:#0000ff;fill-opacity:1;stroke:none;stroke-width:1.04840183px;stroke-linecap:butt;stroke-linejoin:miter;stroke-opacity:1"
           d="m 561.10636,454.40967 q 0,0.18172 -0.0149,0.31562 -0.0149,0.1339 -0.0521,0.21997 -0.0299,0.0765 -0.0821,0.11474 -0.0447,0.0382 -0.10454,0.0382 l -2.7174,0 0,10.73088 q 0,0.0765 -0.0299,0.13388 -0.0299,0.0575 -0.10455,0.0957 -0.0746,0.0287 -0.20157,0.0478 -0.11944,0.0287 -0.30609,0.0287 -0.17917,0 -0.30608,-0.0287 -0.12691,-0.0192 -0.20155,-0.0478 -0.0746,-0.0382 -0.10455,-0.0957 -0.0299,-0.0575 -0.0299,-0.13388 l 0,-10.73088 -2.71739,0 q -0.0596,0 -0.11201,-0.0382 -0.0447,-0.0382 -0.0746,-0.11474 -0.0299,-0.0861 -0.0521,-0.21997 -0.0149,-0.1339 -0.0149,-0.31562 0,-0.1817 0.0149,-0.31562 0.0224,-0.14344 0.0521,-0.22953 0.0299,-0.0861 0.0746,-0.12432 0.0522,-0.0382 0.11201,-0.0382 l 6.71883,0 q 0.0597,0 0.10456,0.0382 0.0521,0.0382 0.0821,0.12432 0.0373,0.0861 0.0521,0.22953 0.0149,0.13392 0.0149,0.31562 z"
           id="path4579"
           inkscape:connector-curvature="0" />
      </g>
    </g>
  </g>
</svg>
