<?xml version="1.0" encoding="UTF-8" standalone="no"?>
<!-- Created with Inkscape (http://www.inkscape.org/) -->

<svg
   xmlns:dc="http://purl.org/dc/elements/1.1/"
   xmlns:cc="http://creativecommons.org/ns#"
   xmlns:rdf="http://www.w3.org/1999/02/22-rdf-syntax-ns#"
   xmlns:svg="http://www.w3.org/2000/svg"
   xmlns="http://www.w3.org/2000/svg"
   xmlns:xlink="http://www.w3.org/1999/xlink"
   xmlns:sodipodi="http://sodipodi.sourceforge.net/DTD/sodipodi-0.dtd"
   xmlns:inkscape="http://www.inkscape.org/namespaces/inkscape"
   width="141.08107mm"
   height="45.163494mm"
   viewBox="0 0 499.89355 160.02814"
   id="svg4373"
   version="1.1"
   inkscape:version="0.91 r13725"
   sodipodi:docname="Logo_It_rafa.svg"
   inkscape:export-filename="E:\proj\Mis_Webs\rafamartinez.local\resources\images\Logo_It_rafa.png"
   inkscape:export-xdpi="150"
   inkscape:export-ydpi="150">
  <defs
     id="defs4375">
    <linearGradient
       inkscape:collect="always"
       id="linearGradient4430">
      <stop
         style="stop-color:#000040;stop-opacity:1"
         offset="0"
         id="stop4432" />
      <stop
         id="stop4434"
         offset="0.48702669"
         style="stop-color:#2230ff;stop-opacity:1" />
      <stop
         style="stop-color:#0018a8;stop-opacity:1"
         offset="0.66318071"
         id="stop4436" />
      <stop
         style="stop-color:#001f8c;stop-opacity:1"
         offset="1"
         id="stop4438" />
    </linearGradient>
    <linearGradient
       inkscape:collect="always"
       xlink:href="#linearGradient4430"
       id="linearGradient11946"
       gradientUnits="userSpaceOnUse"
       gradientTransform="matrix(1.0271372,-0.05054593,-0.05054593,1.0271372,13.304029,-185.18946)"
       spreadMethod="pad"
       x1="-403.25354"
       y1="104.6646"
       x2="-516.6496"
       y2="-46.533173" />
  </defs>
  <sodipodi:namedview
     id="base"
     pagecolor="#ffffff"
     bordercolor="#000000"
     borderopacity="1"
     inkscape:pageopacity="0"
     inkscape:pageshadow="2"
     inkscape:zoom="1.3211798"
     inkscape:cx="313.97686"
     inkscape:cy="205.07619"
     inkscape:document-units="px"
     inkscape:current-layer="layer1"
     showgrid="false"
     fit-margin-top="0"
     fit-margin-left="0"
     fit-margin-right="0"
     fit-margin-bottom="0"
     showborder="true"
     inkscape:window-width="1920"
     inkscape:window-height="1017"
     inkscape:window-x="-8"
     inkscape:window-y="-8"
     inkscape:window-maximized="1"
     inkscape:snap-page="false"
     borderlayer="true"
     inkscape:showpageshadow="true"
     units="mm" />
  <metadata
     id="metadata4378">
    <rdf:RDF>
      <cc:Work
         rdf:about="">
        <dc:format>image/svg+xml</dc:format>
        <dc:type
           rdf:resource="http://purl.org/dc/dcmitype/StillImage" />
        <dc:title />
      </cc:Work>
    </rdf:RDF>
  </metadata>
  <g
     inkscape:label="Capa 1"
     inkscape:groupmode="layer"
     id="layer1"
     transform="translate(-424.6313,214.60878)">
    <rect
       style="opacity:1;fill:#0033e5;fill-opacity:1;fill-rule:nonzero;stroke:#0000d2;stroke-width:0.30000001;stroke-linecap:round;stroke-linejoin:round;stroke-miterlimit:4;stroke-dasharray:none;stroke-opacity:1"
       id="rect4995-9"
       width="742.56421"
       height="251.29373"
       x="303.82953"
       y="-910.96814"
       rx="6.795351"
       ry="6.7953515" />
    <rect
       style="opacity:1;fill:#ffffff;fill-opacity:1;fill-rule:nonzero;stroke:#0000d2;stroke-width:0.30000001;stroke-linecap:round;stroke-linejoin:round;stroke-miterlimit:4;stroke-dasharray:none;stroke-opacity:1"
       id="rect4995"
       width="520.98773"
       height="179.57574"
       x="405.17496"
       y="-633.51953"
       rx="80.654121"
       ry="57.140152" />
    <rect
       style="opacity:1;fill:#ffffff;fill-opacity:1;fill-rule:nonzero;stroke:none;stroke-width:0.30000001;stroke-linecap:round;stroke-linejoin:round;stroke-miterlimit:4;stroke-dasharray:none;stroke-opacity:1"
       id="rect5163"
       width="327.01245"
       height="22.138346"
       x="528.46167"
       y="-310.45032"
       rx="6.7953501"
       ry="6.7953501" />
    <g
       id="g4927"
       style="stroke:#4753ff;stroke-width:1.05414701;stroke-opacity:1"
       transform="matrix(0.99652432,0,0,0.9030456,176.49937,-52.909481)" />
    <g
       id="g4923"
       style="stroke:#4d56ff;stroke-width:1.05414701;stroke-opacity:1"
       transform="matrix(0.99652432,0,0,0.9030456,176.49937,-52.909481)" />
    <g
       id="text4216-4-0"
       style="font-style:normal;font-variant:normal;font-weight:normal;font-stretch:normal;font-size:40.56632614px;line-height:125%;font-family:'Segoe Print';-inkscape-font-specification:'Segoe Print, Normal';text-align:start;letter-spacing:0px;word-spacing:0px;writing-mode:lr-tb;text-anchor:start;fill:#0000d2;fill-opacity:1;stroke:none;stroke-width:1px;stroke-linecap:butt;stroke-linejoin:miter;stroke-opacity:1"
       transform="matrix(0.96302747,0,0.01565352,0.87072051,1084.9451,-201.00952)" />
    <g
       id="text4395-9-7"
       style="font-style:normal;font-variant:normal;font-weight:normal;font-stretch:normal;font-size:40.56632233px;line-height:125%;font-family:'Segoe Print';-inkscape-font-specification:'Segoe Print, Normal';text-align:start;letter-spacing:0px;word-spacing:0px;writing-mode:lr-tb;text-anchor:start;fill:#ffffff;fill-opacity:1;stroke:#0000d2;stroke-width:0.32761404;stroke-linecap:butt;stroke-linejoin:miter;stroke-miterlimit:4;stroke-dasharray:none;stroke-opacity:1"
       transform="matrix(0.96302741,0,0.01565352,0.8707206,1084.9451,-201.00952)" />
    <g
       id="text4567"
       style="font-style:normal;font-weight:normal;font-size:24.90523911px;line-height:125%;font-family:sans-serif;letter-spacing:0px;word-spacing:0px;fill:#0000d2;fill-opacity:1;stroke:none;stroke-width:1px;stroke-linecap:butt;stroke-linejoin:miter;stroke-opacity:1"
       transform="matrix(1.1724373,0,0,0.76755229,176.49937,-52.909481)" />
    <path
       style="opacity:1;fill:#ffffff;fill-opacity:1;fill-rule:nonzero;stroke:#0000d2;stroke-width:0.31624416;stroke-linecap:round;stroke-linejoin:round;stroke-miterlimit:4;stroke-dasharray:none;stroke-opacity:1"
       d="m 517.76006,-434.86384 c -11.73138,0 -21.59258,8.72059 -33.63534,14.81955 -22.64329,12.39841 -42.18612,21.94849 -64.23788,35.26496 -5.24099,3.2883 -5.05151,9.17567 1.11039,12.54616 30.04397,15.53776 61.30823,34.12412 91.79165,48.70134 -12.37281,10.60922 -17.76049,22.27286 -11.52417,33.46866 7.93708,12.93359 20.3624,14.02226 32.86778,16.44458 97.09965,16.00284 169.58238,-19.44436 165.35906,-23.25697 -46.93827,14.24463 -93.91766,22.38886 -134.05211,18.77363 -17.91558,-1.27331 -43.61686,-5.17115 -52.47913,-13.98008 -6.78524,-8.56041 -1.39583,-20.10047 8.87338,-30.50976 3.23596,-1.98426 1.85615,-1.26863 2.52232,1.08276 -0.65547,6.49688 12.89698,5.3042 22.00522,5.3042 97.31282,0.22462 194.64142,0.29459 291.94508,-0.0652 20.60326,-1.25739 38.62797,-12.02769 56.00202,-22.06183 9.11897,-5.22283 19.7493,-8.99021 27.06432,-16.69598 3.153,-6.53636 -5.52057,-11.29426 -11.18031,-9.75802 -46.71906,-0.24162 -95.7173,0.003 -142.10242,-0.14335 6.73436,-4.84473 7.26603,-11.43379 0.35693,-13.1815 -10.13344,-3.01846 -20.62809,-2.25751 -31.06973,-3.55187 -36.97686,-2.18254 -67.37087,-2.22966 -104.36744,-3.2276 -4.51077,-0.0696 -19.37024,3.07303 -15.02989,7.24251 3.2764,1.97479 20.46338,-1.19842 32.9612,-0.37456 45.25851,2.03621 126.73837,1.98742 103.35573,13.03536 -48.21151,0.22421 -98.87287,-0.30823 -147.06843,0.31249 -3.58195,0.31901 -7.13748,0.90489 -10.64386,1.69536 6.90063,-4.38208 15.32271,-6.99926 21.23046,-12.61329 3.14502,-5.76246 -3.26557,-10.74021 -8.24552,-12.22321 -29.60956,-15.3991 -32.80428,-18.34631 -52.02804,-28.38047 -9.54663,-5.21909 -29.35744,-18.66778 -39.78127,-18.66778 z"
       id="path4945"
       inkscape:connector-curvature="0"
       sodipodi:nodetypes="cccccccccccccccccccccccccccccc" />
    <g
       id="g11948"
       inkscape:export-xdpi="150"
       inkscape:export-ydpi="150">
      <rect
         rx="18.660353"
         style="opacity:0.82900002;fill:#ff3f00;fill-opacity:1;stroke:#0000d2;stroke-width:4.32751894;stroke-linecap:round;stroke-linejoin:round;stroke-miterlimit:4;stroke-dasharray:none;stroke-opacity:1"
         id="rect5037"
         width="332.22644"
         height="85.918816"
         x="336.10812"
         y="-300.49252"
         transform="matrix(1,0,-0.87695158,0.48057875,0,0)"
         ry="18.656572" />
      <rect
         rx="6.8046198"
         style="opacity:1;fill:url(#linearGradient11946);fill-opacity:1;stroke:none;stroke-width:0.84886795;stroke-linecap:round;stroke-linejoin:round;stroke-miterlimit:4;stroke-dasharray:none;stroke-opacity:1"
         id="rect5039"
         width="114.58674"
         height="114.58674"
         x="-525.45703"
         y="-182.00063"
         transform="matrix(-0.88158827,0.4720192,-0.88158827,-0.4720192,0,0)"
         ry="6.8046198" />
      <g
         transform="matrix(0.99652432,0,0,0.9030456,152.41498,63.766007)"
         id="g5041"
         style="stroke:#4753ff;stroke-width:1.05414701;stroke-opacity:1">
        <path
           inkscape:connector-curvature="0"
           id="path5043"
           d="m 354.64464,-225.42177 q 0,0.35436 -0.14989,0.62013 -0.14989,0.26577 -0.52461,0.44296 -0.37471,0.13288 -1.01173,0.22147 -0.59954,0.13289 -1.53633,0.13289 -0.89932,0 -1.53634,-0.13289 -0.63701,-0.0886 -1.01173,-0.22147 -0.37471,-0.17719 -0.5246,-0.44296 -0.14988,-0.26577 -0.14988,-0.62013 l 0,-55.01471 q 0,-0.35436 0.14988,-0.62012 0.18735,-0.26578 0.56207,-0.39866 0.41219,-0.17719 1.01173,-0.26578 0.63702,-0.13288 1.49887,-0.13288 0.93679,0 1.53633,0.13288 0.63702,0.0886 1.01173,0.26578 0.37472,0.13288 0.52461,0.39866 0.14989,0.26576 0.14989,0.62012 l 0,55.01471 z"
           style="font-style:normal;font-variant:normal;font-weight:normal;font-stretch:normal;font-size:medium;line-height:125%;font-family:Calibri;-inkscape-font-specification:'Calibri, Normal';text-align:start;letter-spacing:0px;word-spacing:0px;writing-mode:lr-tb;text-anchor:start;fill:#ffffff;fill-opacity:1;stroke:#4753ff;stroke-width:1.04840183px;stroke-linecap:butt;stroke-linejoin:miter;stroke-opacity:1" />
        <path
           inkscape:connector-curvature="0"
           id="path5045"
           d="m 397.92431,-278.3103 q 0,0.8416 -0.0749,1.46174 -0.0749,0.62014 -0.2623,1.0188 -0.14988,0.35436 -0.41218,0.53153 -0.22484,0.17719 -0.52461,0.17719 l -13.63965,0 0,49.69927 q 0,0.35436 -0.14989,0.62013 -0.14989,0.26577 -0.5246,0.44296 -0.37472,0.13288 -1.01173,0.22147 -0.59955,0.13289 -1.53634,0.13289 -0.89932,0 -1.53633,-0.13289 -0.63702,-0.0886 -1.01173,-0.22147 -0.37473,-0.17719 -0.52461,-0.44296 -0.14989,-0.26577 -0.14989,-0.62013 l 0,-49.69927 -13.63965,0 q -0.29977,0 -0.56208,-0.17719 -0.22482,-0.17717 -0.37471,-0.53153 -0.14989,-0.39866 -0.2623,-1.0188 -0.0749,-0.62014 -0.0749,-1.46174 0,-0.84161 0.0749,-1.46175 0.11241,-0.66443 0.2623,-1.06308 0.14989,-0.39866 0.37471,-0.57584 0.26231,-0.17718 0.56208,-0.17718 l 33.72442,0 q 0.29977,0 0.52461,0.17718 0.2623,0.17718 0.41218,0.57584 0.18736,0.39865 0.2623,1.06308 0.0749,0.62014 0.0749,1.46175 z"
           style="font-style:normal;font-variant:normal;font-weight:normal;font-stretch:normal;font-size:medium;line-height:125%;font-family:Calibri;-inkscape-font-specification:'Calibri, Normal';text-align:start;letter-spacing:0px;word-spacing:0px;writing-mode:lr-tb;text-anchor:start;fill:#ffffff;fill-opacity:1;stroke:#4753ff;stroke-width:1.04840183px;stroke-linecap:butt;stroke-linejoin:miter;stroke-opacity:1" />
      </g>
      <g
         transform="matrix(0.99652432,0,0,0.9030456,152.41498,63.766007)"
         id="g5047"
         style="stroke:#4d56ff;stroke-width:1.05414701;stroke-opacity:1">
        <path
           inkscape:connector-curvature="0"
           id="path5049"
           style="font-style:normal;font-variant:normal;font-weight:normal;font-stretch:normal;font-size:medium;line-height:125%;font-family:Calibri;-inkscape-font-specification:'Calibri, Normal';text-align:start;letter-spacing:0px;word-spacing:0px;writing-mode:lr-tb;text-anchor:start;fill:#ff6600;fill-opacity:1;stroke:#4d56ff;stroke-width:1.04840183px;stroke-linecap:butt;stroke-linejoin:miter;stroke-opacity:1"
           d="m 320.58297,-231.44593 q 0,1.10739 -0.0749,1.81611 -0.0749,0.66443 -0.2623,0.9745 -0.18736,0.26577 -0.48713,0.22147 -0.2623,-0.0443 -0.67448,-0.31006 l -29.52764,-17.62951 q -0.37472,-0.22148 -0.59954,-1.06309 -0.22484,-0.84161 -0.22484,-2.43624 0,-0.70872 0.0375,-1.32886 0.0749,-0.62013 0.18735,-1.01879 0.14988,-0.39866 0.29977,-0.66443 0.18736,-0.31006 0.41219,-0.39865 l 29.4152,-17.54093 q 0.86184,-0.48724 1.16161,0.0443 0.33725,0.53155 0.33725,2.61342 0,1.28457 -0.0749,2.03758 -0.0375,0.75302 -0.18736,1.24027 -0.11241,0.44295 -0.37471,0.70873 -0.22483,0.22147 -0.67449,0.48724 l -24.1317,13.95301 23.98181,13.73153 q 0.48713,0.31006 0.74943,0.57583 0.29977,0.22148 0.44966,0.70873 0.14989,0.44295 0.18736,1.24027 0.0749,0.75301 0.0749,2.03758 z" />
        <path
           inkscape:connector-curvature="0"
           id="path5051"
           style="font-style:normal;font-variant:normal;font-weight:normal;font-stretch:normal;font-size:medium;line-height:125%;font-family:Calibri;-inkscape-font-specification:'Calibri, Normal';text-align:start;letter-spacing:0px;word-spacing:0px;writing-mode:lr-tb;text-anchor:start;fill:#ff6600;fill-opacity:1;stroke:#4d56ff;stroke-width:1.04840183px;stroke-linecap:butt;stroke-linejoin:miter;stroke-opacity:1"
           d="m 451.6211,-249.69557 q 0,0.75302 -0.0749,1.37315 -0.0749,0.57584 -0.18736,1.01879 -0.11241,0.44296 -0.29977,0.70873 -0.18736,0.22148 -0.41219,0.35436 l -29.41519,17.54092 q -0.41218,0.22148 -0.71196,0.26577 -0.29977,0 -0.48713,-0.31006 -0.14989,-0.31007 -0.22483,-0.9302 -0.0749,-0.66443 -0.0749,-1.68322 0,-1.24027 0.0375,-1.99329 0.0375,-0.75302 0.14989,-1.19597 0.14988,-0.48725 0.41218,-0.75302 0.26231,-0.26577 0.6745,-0.48725 l 24.16916,-14.0416 -24.01928,-13.68723 q -0.48713,-0.26577 -0.7869,-0.48725 -0.2623,-0.26577 -0.41219,-0.75301 -0.14988,-0.48725 -0.18736,-1.24027 -0.0375,-0.79732 -0.0375,-2.08188 0,-1.15168 0.0749,-1.77181 0.0749,-0.66443 0.22483,-0.9302 0.18736,-0.31007 0.48713,-0.26578 0.29978,0.0443 0.71196,0.31007 l 29.52761,17.58522 q 0.37471,0.22148 0.59954,1.10738 0.2623,0.84161 0.2623,2.34765 z" />
      </g>
      <g
         id="g5053"
         style="font-style:normal;font-variant:normal;font-weight:normal;font-stretch:normal;font-size:40.56632614px;line-height:125%;font-family:'Segoe Print';-inkscape-font-specification:'Segoe Print, Normal';text-align:start;letter-spacing:0px;word-spacing:0px;writing-mode:lr-tb;text-anchor:start;fill:#0000d2;fill-opacity:1;stroke:none;stroke-width:1px;stroke-linecap:butt;stroke-linejoin:miter;stroke-opacity:1"
         transform="matrix(0.96302747,0,0.01565352,0.87072051,1060.8607,-84.334031)">
        <path
           inkscape:connector-curvature="0"
           id="path5055"
           d="m -479.83359,-58.484358 q 5.82349,-0.950773 8.49754,-0.950773 4.17944,0 6.67522,1.980777 2.49578,1.980778 2.49578,4.971752 0,2.990975 -2.65425,5.645217 -2.63443,2.634434 -6.6356,4.139825 -0.49519,0.198078 -0.49519,0.415963 0,0.336732 4.0804,3.505977 4.10021,3.149436 7.52695,5.268868 0.97058,0.594234 0.97058,1.564815 0,0.633848 -0.67346,1.267697 -0.65366,0.614041 -1.22808,0.614041 -1.16866,0 -3.74367,-1.941162 -2.55521,-1.941162 -5.30849,-4.278479 -5.96214,-5.011368 -6.65541,-5.050983 -1.34693,-0.03962 -1.90155,-0.376348 -0.55461,-0.336732 -0.55461,-1.208275 0,-0.752695 0.71308,-1.307313 0.71308,-0.574425 1.68366,-0.574425 0.33673,0 1.06962,0.09904 0.73288,0.118846 1.08942,0.118846 1.58463,0 5.40753,-2.357125 3.84271,-2.357126 3.84271,-5.546178 0,-1.683661 -1.72328,-2.891935 -1.70347,-1.208274 -4.35771,-1.208274 -1.98078,0 -3.96156,0.277309 -1.98077,0.277308 -2.53539,0.475386 -0.53481,0.198078 -0.87154,1.030005 -0.33674,0.812118 -1.12905,5.229253 -0.79231,4.417134 -1.24789,8.339073 -0.43577,3.92194 -0.43577,5.764063 0,1.42616 0.19808,2.475972 0.17827,1.049813 0.17827,1.683661 0,0.594234 -0.63385,1.228083 -0.61404,0.633848 -1.34693,0.633848 -2.07981,0 -2.07981,-3.367322 0,-7.942918 2.79289,-21.134897 0.13866,-0.693272 0.13866,-0.812119 0,-0.118847 -0.13866,-0.35654 -0.79231,-1.24789 -0.79231,-1.663853 0,-0.752696 0.73289,-1.307313 0.73289,-0.554618 1.32712,-0.554618 l 1.68366,0.158462 z"
           style="fill:#0000d2;fill-opacity:1" />
        <path
           inkscape:connector-curvature="0"
           id="path5057"
           d="m -442.21862,-37.706 q -2.77309,3.723862 -5.48676,5.585793 -2.71366,1.861931 -4.97175,1.861931 -1.5252,0 -2.63443,-1.287506 -1.10924,-1.287505 -1.10924,-3.307899 0,-5.209445 4.65483,-11.211201 4.65483,-6.021564 9.25023,-6.021564 1.66386,0 2.47597,1.901546 0.25751,0.633849 0.81212,0.633849 1.58463,0 1.58463,1.228082 0,0.614042 -0.19808,1.683661 -1.06962,5.843294 -1.06962,8.240035 0,4.793482 1.82231,5.744256 0.87154,0.475386 0.87154,1.168658 0,0.614041 -0.85173,1.228083 -0.85173,0.633848 -1.64404,0.633848 -1.5252,0 -2.51559,-2.099624 -0.99039,-2.099624 -0.99039,-5.981948 z m -1.20828,-11.151779 q -2.61462,0 -6.08098,4.912329 -3.46636,4.892521 -3.46636,8.121188 0,2.277895 1.50539,2.277895 2.17885,0 6.04137,-4.397327 3.86252,-4.397326 3.86252,-8.081572 0,-2.832513 -1.86194,-2.832513 z"
           style="fill:#0000d2;fill-opacity:1" />
        <path
           inkscape:connector-curvature="0"
           id="path5059"
           d="m -427.77875,-29.584812 q -0.13866,0.495194 -0.7527,0.831927 -0.61404,0.336732 -1.22808,0.336732 -2.02039,0 -2.02039,-2.951359 0,-1.406352 0.93096,-7.962726 0.57443,-4.020979 0.57443,-6.100795 0,-0.35654 -0.83193,-0.930966 -0.85173,-0.554617 -0.85173,-1.089427 0,-0.851735 1.2875,-1.842124 0.99039,-0.772503 1.20828,-1.723276 0.23769,-0.950773 0.53481,-2.634434 1.01019,-6.140411 3.14943,-8.854076 2.15905,-2.713666 5.48676,-2.713666 1.76289,0 2.99097,1.208274 1.22808,1.188467 1.22808,2.971167 0,1.445968 -0.69327,3.288091 -0.67346,1.822315 -1.54501,1.822315 -0.65365,0 -0.65365,-0.653656 l 0.13865,-1.921355 q 0,-3.822901 -2.13924,-3.822901 -2.31751,0 -3.84271,4.555789 -1.5252,4.535981 -1.5252,7.388301 0,0.911157 1.18847,0.911157 5.16983,0 6.08099,-0.03961 0.93096,-0.03962 0.93096,0.772503 0,0.812119 -1.01019,1.24789 -0.99039,0.415963 -4.35771,0.752696 -2.87213,0.297116 -3.24848,0.495194 -1.32712,7.368493 -1.32712,13.132556 0,1.723276 0.15846,2.555203 0.13866,0.772503 0.13866,0.970581 z"
           style="fill:#0000d2;fill-opacity:1" />
        <path
           inkscape:connector-curvature="0"
           id="path5061"
           d="m -403.23692,-37.706 q -2.77309,3.723862 -5.48675,5.585793 -2.71367,1.861931 -4.97175,1.861931 -1.5252,0 -2.63444,-1.287506 -1.10923,-1.287505 -1.10923,-3.307899 0,-5.209445 4.65482,-11.211201 4.65483,-6.021564 9.25023,-6.021564 1.66386,0 2.47598,1.901546 0.2575,0.633849 0.81212,0.633849 1.58462,0 1.58462,1.228082 0,0.614042 -0.19808,1.683661 -1.06962,5.843294 -1.06962,8.240035 0,4.793482 1.82232,5.744256 0.87154,0.475386 0.87154,1.168658 0,0.614041 -0.85174,1.228083 -0.85173,0.633848 -1.64404,0.633848 -1.5252,0 -2.51559,-2.099624 -0.99039,-2.099624 -0.99039,-5.981948 z m -1.20827,-11.151779 q -2.61463,0 -6.08099,4.912329 -3.46636,4.892521 -3.46636,8.121188 0,2.277895 1.50539,2.277895 2.17886,0 6.04137,-4.397327 3.86252,-4.397326 3.86252,-8.081572 0,-2.832513 -1.86193,-2.832513 z"
           style="fill:#0000d2;fill-opacity:1" />
        <path
           inkscape:connector-curvature="0"
           id="path5063"
           d="m -363.77983,-53.849338 q -1.96097,2.178855 -6.06118,7.784456 -4.10021,5.585793 -5.76406,7.190223 -1.66385,1.60443 -2.73347,1.60443 -0.81212,0 -1.58462,-1.208275 -0.77251,-1.228082 -2.00059,-4.932136 -2.5354,-7.546763 -3.18905,-8.695614 -0.2377,0.673465 -0.53481,2.198663 -0.63385,3.20886 -1.68366,7.824072 -2.0402,8.854076 -2.31751,11.726204 -0.0396,0.35654 -0.65366,0.772503 -0.59423,0.415963 -0.97058,0.415963 -0.71308,0 -1.32712,-0.71308 -0.59423,-0.71308 -0.59423,-1.386544 0,-1.743084 1.14885,-6.080987 l 1.72327,-6.496951 q 1.58463,-6.140411 1.96097,-9.032346 0.37635,-2.891936 0.37635,-4.555789 0,-1.723276 2.71367,-1.723276 0.57442,0 1.20827,1.010196 0.63385,0.990389 0.83193,1.743085 0.2575,0.752695 0.61404,1.683661 l 2.65424,7.427916 q 1.56481,4.555788 1.92135,5.150022 0.37635,0.574425 0.61405,0.574425 1.01019,-0.217885 7.1506,-8.695614 6.83369,-9.408693 7.80427,-9.408693 0.79231,0 1.74308,0.633848 0.97058,0.614041 0.97058,1.06962 0,0.198078 -1.14885,8.695614 -0.41596,3.149437 -0.7725,7.566571 -0.35654,4.397326 -0.35654,4.951944 0,1.010196 0.35654,2.258086 0.31692,1.109236 0.31692,1.7827 0,0.53481 -0.19808,1.564815 -0.19807,1.010196 -0.87154,1.188466 -0.65365,0.17827 -1.04981,0.17827 -2.07982,0 -2.07982,-3.466361 0,-3.169244 1.36674,-15.509489 0.099,-0.990388 0.099,-1.228082 0,-0.158462 0.23769,-1.327121 0.17827,-0.990389 0.17827,-1.663853 0,-0.653657 -0.099,-0.871542 z"
           style="fill:#0000d2;fill-opacity:1" />
        <path
           inkscape:connector-curvature="0"
           id="path5065"
           d="m -340.96128,-37.706 q -2.77308,3.723862 -5.48675,5.585793 -2.71367,1.861931 -4.97175,1.861931 -1.5252,0 -2.63444,-1.287506 -1.10923,-1.287505 -1.10923,-3.307899 0,-5.209445 4.65483,-11.211201 4.65482,-6.021564 9.25023,-6.021564 1.66385,0 2.47597,1.901546 0.2575,0.633849 0.81212,0.633849 1.58462,0 1.58462,1.228082 0,0.614042 -0.19808,1.683661 -1.06962,5.843294 -1.06962,8.240035 0,4.793482 1.82232,5.744256 0.87154,0.475386 0.87154,1.168658 0,0.614041 -0.85173,1.228083 -0.85174,0.633848 -1.64405,0.633848 -1.5252,0 -2.51559,-2.099624 -0.99039,-2.099624 -0.99039,-5.981948 z m -1.20827,-11.151779 q -2.61463,0 -6.08099,4.912329 -3.46636,4.892521 -3.46636,8.121188 0,2.277895 1.50539,2.277895 2.17886,0 6.04137,-4.397327 3.86252,-4.397326 3.86252,-8.081572 0,-2.832513 -1.86193,-2.832513 z"
           style="fill:#0000d2;fill-opacity:1" />
        <path
           inkscape:connector-curvature="0"
           id="path5067"
           d="m -326.46197,-38.359657 q 0.19807,-0.35654 0.47538,-0.990389 1.34693,-3.090013 2.47597,-4.833097 1.12905,-1.762892 2.47598,-3.367322 1.36673,-1.60443 2.47597,-2.436357 1.12904,-0.831926 2.0402,-1.148851 0.91116,-0.336732 1.76289,-0.336732 1.72328,0 2.81271,1.049812 1.08942,1.030005 1.08942,2.416549 0,0.614041 -0.39615,1.109235 -0.37635,0.495195 -1.16866,0.495195 -0.83193,0 -1.5252,-0.732888 -0.71308,-0.732888 -1.48558,-0.732888 -2.06001,0 -5.70464,4.99156 -3.64463,4.99156 -4.43694,10.993316 -0.19808,1.545006 -0.7527,2.040201 -0.55462,0.495194 -1.56481,0.495194 -0.97059,0 -1.40636,-1.445967 -0.43577,-1.445968 -0.43577,-4.872713 0,-0.930966 0.099,-4.10021 0.11885,-3.74367 0.47539,-6.041372 0.0594,-0.376348 0.19808,-1.762892 0.13865,-1.525199 0.33673,-2.119432 0.21788,-0.594233 0.85173,-1.109236 0.65366,-0.515002 1.40635,-0.515002 0.73289,0 1.08943,0.475387 0.37635,0.455579 0.37635,0.990389 0,0.772503 -0.39616,2.178855 -0.45557,1.564814 -0.53481,2.159048 -0.0594,0.673464 -0.21788,1.406352 -0.19808,0.851734 -0.39616,4.476557 l -0.0198,0.732888 0,0.53481 z"
           style="fill:#0000d2;fill-opacity:1" />
        <path
           inkscape:connector-curvature="0"
           id="path5069"
           d="m -299.89975,-50.482016 q 2.0402,-0.158462 3.84271,-0.376348 1.7827,-0.198078 2.97117,-0.198078 1.50539,0 1.90154,0.277309 0.39616,0.277309 0.39616,0.970581 0,1.60443 -2.23828,1.743085 -2.87213,0.17827 -5.28868,0.495194 -2.41654,0.316924 -2.61462,0.53481 -0.17827,0.198078 -1.18847,4.714251 -1.0102,4.496365 -1.0102,5.843294 0,2.178855 0.57443,2.911743 0.57443,0.71308 1.72328,0.71308 1.70347,0 4.73406,-2.555203 1.16865,-1.049812 1.8025,-1.049812 0.85174,0 0.85174,0.911157 0,1.42616 -2.75328,3.704054 -2.73348,2.258087 -5.6056,2.258087 -4.79349,0 -4.79349,-5.645216 0,-2.040201 0.99039,-6.318681 0.97058,-4.258672 0.97058,-5.110406 0,-0.297117 -0.47538,-0.297117 l -2.06001,0.17827 q -2.5354,0 -2.5354,-2.020393 0,-1.148851 1.16866,-1.148851 l 4.0804,0 q 0.41597,0 0.73289,-0.376348 0.31693,-0.376348 0.93097,-2.515588 0.61404,-2.159047 1.08942,-4.258672 0.47539,-2.079816 1.86194,-2.079816 0.85173,0 1.32712,0.594233 0.47538,0.594234 0.47538,1.109236 0,0.277309 -0.71308,2.832512 l -1.14885,4.159633 z"
           style="fill:#0000d2;fill-opacity:1" />
        <path
           inkscape:connector-curvature="0"
           id="path5071"
           d="m -285.16277,-34.893296 q 0,1.505391 0.41596,3.38713 0.0792,0.35654 0.0792,0.594233 0,0.35654 -0.65365,0.911158 -0.65366,0.574425 -1.38655,0.574425 -1.92135,0 -1.92135,-3.525784 0,-3.644631 1.50539,-11.528126 0.515,-2.753281 0.515,-3.38713 0,-1.24789 0.45558,-2.119432 0.45558,-0.89135 1.28751,-0.89135 1.01019,0 1.58462,0.495195 0.59423,0.475386 0.59423,1.06962 0,0.594233 -0.27731,1.564814 -1.48558,5.229253 -1.84212,7.487339 -0.35654,2.258087 -0.35654,5.367908 z m 10.12177,-25.096453 q -0.0792,0.03962 -0.19807,0.118847 -0.13866,0.07923 -0.35654,0.17827 -1.32713,0.614041 -5.50657,3.803093 -1.72327,1.327121 -2.61462,1.901546 l -0.45558,0.277309 q -0.515,0 -0.91116,-0.495194 -0.39615,-0.495195 -0.39615,-1.010197 0,-1.010196 3.03058,-3.307898 3.0504,-2.297702 5.46695,-3.644631 0.91116,-0.515002 1.36674,-0.89135 0.33673,-0.277309 0.35654,-0.217886 0.33673,0 0.7725,0.732888 0.45558,0.732888 0.45558,1.129043 0,0.237694 -0.37635,0.752696 -0.37635,0.515002 -0.63385,0.673464 z"
           style="fill:#0000d2;fill-opacity:1" />
        <path
           inkscape:connector-curvature="0"
           id="path5073"
           d="m -263.73075,-45.72815 q -1.03,0 -2.25809,1.346929 -1.20827,1.346929 -3.70405,6.041372 -3.28809,6.298873 -4.25867,7.170415 -0.95077,0.871542 -1.58462,0.871542 -2.33732,0 -2.33732,-2.258087 0,-0.950773 0.31692,-2.693857 1.08943,-5.981949 1.08943,-12.617554 0,-0.752695 0.63385,-1.663853 0.65366,-0.930965 1.22808,-0.930965 1.03001,0 1.46578,0.633848 0.43577,0.633849 0.43577,2.555204 0,2.000585 -1.18847,8.240035 -0.39615,2.060008 -0.39615,2.614626 0,0.316924 0.15846,0.316924 0.29712,0 2.75328,-4.734058 2.47597,-4.81329 4.3379,-6.77426 1.86193,-1.960969 4.10021,-1.960969 1.7827,0 2.89194,1.624237 1.12904,1.624238 1.64404,5.922525 0.55462,4.892521 0.99039,6.100795 0.45558,1.188467 1.42616,1.188467 0.61404,0 1.54501,-0.435771 0.15846,-0.07923 0.23769,-0.07923 0.85174,0 0.85174,0.990389 0,0.871542 -1.16866,1.861931 -1.16866,0.970581 -2.81271,0.970581 -1.68366,0 -2.61462,-1.327121 -0.91116,-1.346929 -1.44597,-7.150608 -0.55462,-5.823486 -2.33732,-5.823486 z"
           style="fill:#0000d2;fill-opacity:1" />
        <path
           inkscape:connector-curvature="0"
           id="path5075"
           d="m -233.32582,-37.210806 q 0,2.020393 -3.58521,4.872713 -3.5654,2.85232 -7.36849,2.85232 -3.18905,0 -4.93214,-1.881739 -1.72327,-1.881739 -1.72327,-5.249061 0,-5.665024 3.8229,-10.77543 3.8229,-5.110406 8.35888,-5.110406 1.48558,0 2.41655,0.970581 0.95077,0.970581 0.95077,2.337317 0,3.050398 -2.99097,5.843294 -2.99098,2.792897 -8.00234,5.486754 -1.03001,0.53481 -1.03001,1.386545 0,1.644045 0.95077,2.634434 0.95078,0.990389 2.81271,0.990389 4.25867,0 8.69561,-4.714251 0.65366,-0.653657 0.99039,-0.653657 0.63385,0 0.63385,1.010197 z m -13.7664,-3.090013 q 8.39849,-4.99156 8.39849,-8.02215 0,-1.188466 -1.06962,-1.188466 -1.82231,0 -4.12001,2.67405 -2.2779,2.674049 -3.20886,6.536566 z"
           style="fill:#0000d2;fill-opacity:1" />
        <path
           inkscape:connector-curvature="0"
           id="path5077"
           d="m -212.389,-30.713855 q -0.51501,-0.217886 -0.99039,-0.475387 -1.74309,-0.871542 -4.71425,-0.871542 -1.72328,0 -5.74426,0.673464 -4.02098,0.653657 -5.48675,2.020393 -1.0102,0.89135 -2.11943,0.89135 -0.61405,0 -1.36674,-0.35654 -0.7725,-0.35654 -0.81212,-0.970581 0.93097,-1.030004 2.57501,-2.693857 8.93331,-9.071962 13.58814,-15.05391 -0.0792,-0.17827 -0.63385,-0.17827 -1.04982,0 -4.47656,0.495194 -1.54501,0.237693 -3.20886,0.237693 -4.0606,0 -4.0606,-2.139239 0,-1.624238 1.80251,-1.624238 0.099,0 0.37635,0.09904 1.42616,0.594233 3.44655,0.594233 2.67405,0 6.04138,-0.435771 0.33673,-0.05942 0.79231,-0.118847 0.43577,-0.03961 1.01019,-0.158462 1.14885,-0.198078 1.82232,-0.198078 0.67346,0 1.36673,0.35654 0.71308,0.35654 0.61405,1.148851 l -0.0198,0.07923 q -0.43577,1.723276 -10.47832,12.439283 -2.41654,2.594819 -2.59481,3.070205 0.0792,0.198078 0.39615,0.198078 0.27731,0 2.77309,-0.53481 4.67464,-1.010196 7.09118,-1.010196 3.78329,0 3.78329,2.297702 0,1.445967 -0.7725,2.218471 z"
           style="fill:#0000d2;fill-opacity:1" />
      </g>
      <g
         id="g5079"
         style="font-style:normal;font-variant:normal;font-weight:normal;font-stretch:normal;font-size:40.56632233px;line-height:125%;font-family:'Segoe Print';-inkscape-font-specification:'Segoe Print, Normal';text-align:start;letter-spacing:0px;word-spacing:0px;writing-mode:lr-tb;text-anchor:start;fill:#ffffff;fill-opacity:1;stroke:#0000d2;stroke-width:0.32761404;stroke-linecap:butt;stroke-linejoin:miter;stroke-miterlimit:4;stroke-dasharray:none;stroke-opacity:1"
         transform="matrix(0.96302741,0,0.01565352,0.8707206,1060.8607,-84.334031)">
        <path
           inkscape:connector-curvature="0"
           id="path5081"
           d="m -477.89829,-58.484367 q 5.82349,-0.950773 8.49754,-0.950773 4.17944,0 6.67522,1.980778 2.49578,1.980777 2.49578,4.971751 0,2.990974 -2.65424,5.645216 -2.63444,2.634434 -6.63561,4.139825 -0.49519,0.198077 -0.49519,0.415963 0,0.336732 4.0804,3.505976 4.10021,3.149436 7.52695,5.268868 0.97058,0.594233 0.97058,1.564814 0,0.633849 -0.67346,1.267698 -0.65366,0.614041 -1.22808,0.614041 -1.16866,0 -3.74367,-1.941162 -2.55521,-1.941162 -5.30849,-4.278479 -5.96214,-5.011367 -6.65541,-5.050983 -1.34693,-0.03961 -1.90154,-0.376348 -0.55462,-0.336732 -0.55462,-1.208274 0,-0.752695 0.71308,-1.307313 0.71308,-0.574425 1.68366,-0.574425 0.33673,0 1.06962,0.09904 0.73289,0.118847 1.08943,0.118847 1.58462,0 5.40752,-2.357125 3.84271,-2.357125 3.84271,-5.546177 0,-1.683661 -1.72328,-2.891935 -1.70347,-1.208274 -4.35771,-1.208274 -1.98078,0 -3.96156,0.277309 -1.98077,0.277308 -2.53539,0.475386 -0.53481,0.198078 -0.87154,1.030004 -0.33673,0.812119 -1.12905,5.229253 -0.79231,4.417134 -1.24789,8.339073 -0.43577,3.921939 -0.43577,5.764062 0,1.42616 0.19808,2.475972 0.17827,1.049812 0.17827,1.683661 0,0.594233 -0.63385,1.228082 -0.61404,0.633849 -1.34693,0.633849 -2.07981,0 -2.07981,-3.367322 0,-7.942917 2.79289,-21.134895 0.13866,-0.693272 0.13866,-0.812119 0,-0.118847 -0.13866,-0.35654 -0.79231,-1.24789 -0.79231,-1.663853 0,-0.752696 0.73289,-1.307313 0.73289,-0.554618 1.32712,-0.554618 l 1.68366,0.158462 z"
           style="stroke:#0000d2;stroke-width:0.32761404;stroke-miterlimit:4;stroke-dasharray:none;stroke-opacity:1" />
        <path
           inkscape:connector-curvature="0"
           id="path5083"
           d="m -440.28332,-37.706011 q -2.77309,3.723861 -5.48676,5.585792 -2.71366,1.861931 -4.97175,1.861931 -1.5252,0 -2.63443,-1.287505 -1.10924,-1.287506 -1.10924,-3.307899 0,-5.209444 4.65483,-11.2112 4.65483,-6.021564 9.25023,-6.021564 1.66385,0 2.47597,1.901547 0.2575,0.633849 0.81212,0.633849 1.58462,0 1.58462,1.228082 0,0.614041 -0.19808,1.683661 -1.06962,5.843293 -1.06962,8.240034 0,4.793481 1.82232,5.744254 0.87154,0.475387 0.87154,1.168659 0,0.614041 -0.85173,1.228082 -0.85174,0.633849 -1.64405,0.633849 -1.5252,0 -2.51559,-2.099624 -0.99038,-2.099624 -0.99038,-5.981948 z m -1.20828,-11.151777 q -2.61462,0 -6.08098,4.912328 -3.46637,4.89252 -3.46637,8.121187 0,2.277894 1.5054,2.277894 2.17885,0 6.04137,-4.397325 3.86251,-4.397326 3.86251,-8.081572 0,-2.832512 -1.86193,-2.832512 z"
           style="stroke:#0000d2;stroke-width:0.32761404;stroke-miterlimit:4;stroke-dasharray:none;stroke-opacity:1" />
        <path
           inkscape:connector-curvature="0"
           id="path5085"
           d="m -425.84346,-29.584824 q -0.13865,0.495195 -0.75269,0.831927 -0.61404,0.336732 -1.22809,0.336732 -2.02039,0 -2.02039,-2.951358 0,-1.406352 0.93097,-7.962726 0.57442,-4.020978 0.57442,-6.100794 0,-0.35654 -0.83192,-0.930966 -0.85174,-0.554617 -0.85174,-1.089427 0,-0.851735 1.28751,-1.842123 0.99039,-0.772503 1.20827,-1.723277 0.23769,-0.950773 0.53481,-2.634434 1.0102,-6.14041 3.14944,-8.854075 2.15904,-2.713665 5.48675,-2.713665 1.76289,0 2.99097,1.208274 1.22809,1.188467 1.22809,2.971166 0,1.445968 -0.69328,3.288091 -0.67346,1.822315 -1.545,1.822315 -0.65366,0 -0.65366,-0.653656 l 0.13866,-1.921354 q 0,-3.822901 -2.13924,-3.822901 -2.31751,0 -3.84271,4.555788 -1.5252,4.535981 -1.5252,7.3883 0,0.911158 1.18847,0.911158 5.16982,0 6.08098,-0.03962 0.93097,-0.03961 0.93097,0.772503 0,0.812119 -1.0102,1.24789 -0.99039,0.415963 -4.35771,0.752696 -2.87213,0.297116 -3.24847,0.495194 -1.32713,7.368492 -1.32713,13.132555 0,1.723276 0.15847,2.555202 0.13865,0.772504 0.13865,0.970581 z"
           style="stroke:#0000d2;stroke-width:0.32761404;stroke-miterlimit:4;stroke-dasharray:none;stroke-opacity:1" />
        <path
           inkscape:connector-curvature="0"
           id="path5087"
           d="m -401.30162,-37.706011 q -2.77309,3.723861 -5.48676,5.585792 -2.71366,1.861931 -4.97175,1.861931 -1.5252,0 -2.63443,-1.287505 -1.10924,-1.287506 -1.10924,-3.307899 0,-5.209444 4.65483,-11.2112 4.65482,-6.021564 9.25023,-6.021564 1.66385,0 2.47597,1.901547 0.2575,0.633849 0.81212,0.633849 1.58462,0 1.58462,1.228082 0,0.614041 -0.19808,1.683661 -1.06962,5.843293 -1.06962,8.240034 0,4.793481 1.82232,5.744254 0.87154,0.475387 0.87154,1.168659 0,0.614041 -0.85173,1.228082 -0.85174,0.633849 -1.64405,0.633849 -1.5252,0 -2.51559,-2.099624 -0.99038,-2.099624 -0.99038,-5.981948 z m -1.20828,-11.151777 q -2.61463,0 -6.08099,4.912328 -3.46636,4.89252 -3.46636,8.121187 0,2.277894 1.50539,2.277894 2.17886,0 6.04138,-4.397325 3.86251,-4.397326 3.86251,-8.081572 0,-2.832512 -1.86193,-2.832512 z"
           style="stroke:#0000d2;stroke-width:0.32761404;stroke-miterlimit:4;stroke-dasharray:none;stroke-opacity:1" />
        <path
           inkscape:connector-curvature="0"
           id="path5089"
           d="m -361.84453,-53.849347 q -1.96097,2.178855 -6.06118,7.784455 -4.10021,5.585792 -5.76407,7.190222 -1.66385,1.60443 -2.73347,1.60443 -0.81212,0 -1.58462,-1.208274 -0.7725,-1.228082 -2.00059,-4.932136 -2.53539,-7.546762 -3.18905,-8.695613 -0.23769,0.673464 -0.53481,2.198663 -0.63385,3.208859 -1.68366,7.824071 -2.0402,8.854075 -2.31751,11.726202 -0.0396,0.35654 -0.65365,0.772503 -0.59424,0.415964 -0.97059,0.415964 -0.71308,0 -1.32712,-0.71308 -0.59423,-0.71308 -0.59423,-1.386544 0,-1.743085 1.14885,-6.080987 l 1.72328,-6.49695 q 1.58462,-6.14041 1.96097,-9.032345 0.37635,-2.891936 0.37635,-4.555789 0,-1.723276 2.71366,-1.723276 0.57443,0 1.20827,1.010196 0.63385,0.990389 0.83193,1.743085 0.2575,0.752695 0.61404,1.68366 l 2.65424,7.427916 q 1.56482,4.555788 1.92136,5.150021 0.37635,0.574426 0.61404,0.574426 1.0102,-0.217886 7.15061,-8.695613 6.83368,-9.408693 7.80426,-9.408693 0.79231,0 1.74308,0.633849 0.97058,0.614041 0.97058,1.069619 0,0.198078 -1.14885,8.695613 -0.41596,3.149437 -0.7725,7.56657 -0.35654,4.397326 -0.35654,4.951944 0,1.010197 0.35654,2.258086 0.31692,1.109236 0.31692,1.7827 0,0.53481 -0.19807,1.564814 -0.19808,1.010197 -0.87155,1.188467 -0.65365,0.17827 -1.04981,0.17827 -2.07981,0 -2.07981,-3.466361 0,-3.169244 1.36673,-15.509487 0.099,-0.990389 0.099,-1.228082 0,-0.158463 0.23769,-1.327121 0.17827,-0.990389 0.17827,-1.663853 0,-0.653657 -0.099,-0.871542 z"
           style="stroke:#0000d2;stroke-width:0.32761404;stroke-miterlimit:4;stroke-dasharray:none;stroke-opacity:1" />
        <path
           inkscape:connector-curvature="0"
           id="path5091"
           d="m -339.02597,-37.706011 q -2.77309,3.723861 -5.48676,5.585792 -2.71366,1.861931 -4.97175,1.861931 -1.5252,0 -2.63443,-1.287505 -1.10924,-1.287506 -1.10924,-3.307899 0,-5.209444 4.65483,-11.2112 4.65482,-6.021564 9.25023,-6.021564 1.66385,0 2.47597,1.901547 0.2575,0.633849 0.81212,0.633849 1.58462,0 1.58462,1.228082 0,0.614041 -0.19808,1.683661 -1.06962,5.843293 -1.06962,8.240034 0,4.793481 1.82232,5.744254 0.87154,0.475387 0.87154,1.168659 0,0.614041 -0.85173,1.228082 -0.85174,0.633849 -1.64405,0.633849 -1.5252,0 -2.51559,-2.099624 -0.99038,-2.099624 -0.99038,-5.981948 z m -1.20828,-11.151777 q -2.61463,0 -6.08099,4.912328 -3.46636,4.89252 -3.46636,8.121187 0,2.277894 1.50539,2.277894 2.17886,0 6.04138,-4.397325 3.86251,-4.397326 3.86251,-8.081572 0,-2.832512 -1.86193,-2.832512 z"
           style="stroke:#0000d2;stroke-width:0.32761404;stroke-miterlimit:4;stroke-dasharray:none;stroke-opacity:1" />
        <path
           inkscape:connector-curvature="0"
           id="path5093"
           d="m -324.52669,-38.359668 q 0.19808,-0.35654 0.47539,-0.990388 1.34693,-3.090013 2.47597,-4.833097 1.12904,-1.762892 2.47597,-3.367322 1.36674,-1.60443 2.47597,-2.436356 1.12905,-0.831927 2.0402,-1.148851 0.91116,-0.336732 1.7629,-0.336732 1.72327,0 2.8127,1.049812 1.08943,1.030004 1.08943,2.416548 0,0.614041 -0.39616,1.109235 -0.37634,0.495195 -1.16866,0.495195 -0.83192,0 -1.52519,-0.732888 -0.71308,-0.732888 -1.48559,-0.732888 -2.06001,0 -5.70464,4.99156 -3.64463,4.991559 -4.43694,10.993315 -0.19808,1.545006 -0.75269,2.0402 -0.55462,0.495195 -1.56482,0.495195 -0.97058,0 -1.40635,-1.445968 -0.43577,-1.445967 -0.43577,-4.872712 0,-0.930966 0.099,-4.10021 0.11884,-3.743669 0.47538,-6.041371 0.0594,-0.376348 0.19808,-1.762892 0.13866,-1.525199 0.33673,-2.119432 0.21789,-0.594233 0.85174,-1.109235 0.65366,-0.515002 1.40635,-0.515002 0.73289,0 1.08943,0.475386 0.37635,0.455579 0.37635,0.990389 0,0.772503 -0.39616,2.178855 -0.45558,1.564814 -0.53481,2.159048 -0.0594,0.673464 -0.21788,1.406352 -0.19808,0.851734 -0.39616,4.476557 l -0.0198,0.732887 0,0.53481 z"
           style="stroke:#0000d2;stroke-width:0.32761404;stroke-miterlimit:4;stroke-dasharray:none;stroke-opacity:1" />
        <path
           inkscape:connector-curvature="0"
           id="path5095"
           d="m -297.96446,-50.482026 q 2.0402,-0.158462 3.84271,-0.376347 1.7827,-0.198078 2.97116,-0.198078 1.50539,0 1.90155,0.277309 0.39615,0.277308 0.39615,0.970581 0,1.604429 -2.23827,1.743084 -2.87213,0.17827 -5.28868,0.495194 -2.41655,0.316924 -2.61463,0.53481 -0.17827,0.198078 -1.18846,4.71425 -1.0102,4.496365 -1.0102,5.843294 0,2.178855 0.57443,2.911743 0.57442,0.71308 1.72327,0.71308 1.70347,0 4.73406,-2.555203 1.16866,-1.049812 1.80251,-1.049812 0.85173,0 0.85173,0.911157 0,1.42616 -2.75328,3.704054 -2.73347,2.258086 -5.6056,2.258086 -4.79348,0 -4.79348,-5.645215 0,-2.040201 0.99039,-6.31868 0.97058,-4.258672 0.97058,-5.110406 0,-0.297117 -0.47539,-0.297117 l -2.06,0.17827 q -2.5354,0 -2.5354,-2.020393 0,-1.148851 1.16866,-1.148851 l 4.0804,0 q 0.41596,0 0.73289,-0.376348 0.31692,-0.376347 0.93096,-2.515587 0.61404,-2.159047 1.08943,-4.258671 0.47539,-2.079817 1.86193,-2.079817 0.85174,0 1.32712,0.594233 0.47539,0.594234 0.47539,1.109236 0,0.277309 -0.71308,2.832512 l -1.14885,4.159632 z"
           style="stroke:#0000d2;stroke-width:0.32761404;stroke-miterlimit:4;stroke-dasharray:none;stroke-opacity:1" />
        <path
           inkscape:connector-curvature="0"
           id="path5097"
           d="m -283.22748,-34.893307 q 0,1.505391 0.41596,3.387129 0.0792,0.35654 0.0792,0.594234 0,0.356539 -0.65366,0.911157 -0.65365,0.574426 -1.38654,0.574426 -1.92135,0 -1.92135,-3.525784 0,-3.644631 1.50539,-11.528125 0.515,-2.753281 0.515,-3.38713 0,-1.247889 0.45558,-2.119431 0.45558,-0.89135 1.2875,-0.89135 1.0102,0 1.58462,0.495194 0.59424,0.475387 0.59424,1.06962 0,0.594233 -0.27731,1.564814 -1.48558,5.229253 -1.84212,7.487339 -0.35654,2.258086 -0.35654,5.367907 z m 10.12177,-25.096451 q -0.0792,0.03962 -0.19808,0.118847 -0.13865,0.07923 -0.35654,0.17827 -1.32712,0.614041 -5.50656,3.803093 -1.72328,1.327121 -2.61463,1.901546 l -0.45557,0.277309 q -0.51501,0 -0.91116,-0.495194 -0.39616,-0.495195 -0.39616,-1.010197 0,-1.010196 3.03059,-3.307898 3.0504,-2.297702 5.46695,-3.644631 0.91115,-0.515002 1.36673,-0.89135 0.33674,-0.277308 0.35654,-0.217885 0.33674,0 0.77251,0.732888 0.45558,0.732887 0.45558,1.129043 0,0.237693 -0.37635,0.752695 -0.37635,0.515002 -0.63385,0.673464 z"
           style="stroke:#0000d2;stroke-width:0.32761404;stroke-miterlimit:4;stroke-dasharray:none;stroke-opacity:1" />
        <path
           inkscape:connector-curvature="0"
           id="path5099"
           d="m -261.79546,-45.72816 q -1.03001,0 -2.25809,1.346929 -1.20827,1.346928 -3.70405,6.041371 -3.28809,6.298872 -4.25867,7.170414 -0.95078,0.871543 -1.58463,0.871543 -2.33731,0 -2.33731,-2.258087 0,-0.950773 0.31692,-2.693857 1.08943,-5.981948 1.08943,-12.617553 0,-0.752695 0.63385,-1.663853 0.65365,-0.930965 1.22808,-0.930965 1.03,0 1.46577,0.633849 0.43578,0.633849 0.43578,2.555203 0,2.000585 -1.18847,8.240034 -0.39616,2.060008 -0.39616,2.614626 0,0.316925 0.15847,0.316925 0.29711,0 2.75328,-4.734059 2.47597,-4.813289 4.3379,-6.774258 1.86193,-1.96097 4.10021,-1.96097 1.7827,0 2.89193,1.624237 1.12905,1.624238 1.64405,5.922525 0.55462,4.89252 0.99039,6.100795 0.45558,1.188466 1.42616,1.188466 0.61404,0 1.545,-0.435771 0.15847,-0.07923 0.2377,-0.07923 0.85173,0 0.85173,0.990389 0,0.871542 -1.16866,1.86193 -1.16866,0.970581 -2.8127,0.970581 -1.68366,0 -2.61463,-1.327121 -0.91116,-1.346928 -1.44597,-7.150606 -0.55461,-5.823486 -2.33731,-5.823486 z"
           style="stroke:#0000d2;stroke-width:0.32761404;stroke-miterlimit:4;stroke-dasharray:none;stroke-opacity:1" />
        <path
           inkscape:connector-curvature="0"
           id="path5101"
           d="m -231.39053,-37.210817 q 0,2.020393 -3.58521,4.872713 -3.5654,2.852319 -7.36849,2.852319 -3.18905,0 -4.93214,-1.881738 -1.72328,-1.881739 -1.72328,-5.249061 0,-5.665023 3.8229,-10.775429 3.82291,-5.110406 8.35889,-5.110406 1.48558,0 2.41654,0.970581 0.95078,0.970581 0.95078,2.337318 0,3.050397 -2.99098,5.843293 -2.99097,2.792896 -8.00234,5.486754 -1.03,0.53481 -1.03,1.386544 0,1.644045 0.95077,2.634434 0.95077,0.990389 2.81271,0.990389 4.25867,0 8.69561,-4.714251 0.65366,-0.653656 0.99039,-0.653656 0.63385,0 0.63385,1.010196 z m -13.76641,-3.090013 q 8.3985,-4.991559 8.3985,-8.022148 0,-1.188467 -1.06962,-1.188467 -1.82232,0 -4.12002,2.67405 -2.27789,2.674049 -3.20886,6.536565 z"
           style="stroke:#0000d2;stroke-width:0.32761404;stroke-miterlimit:4;stroke-dasharray:none;stroke-opacity:1" />
        <path
           inkscape:connector-curvature="0"
           id="path5103"
           d="m -210.4537,-30.713867 q -0.51501,-0.217885 -0.99039,-0.475386 -1.74309,-0.871542 -4.71425,-0.871542 -1.72328,0 -5.74426,0.673464 -4.02098,0.653656 -5.48675,2.020393 -1.0102,0.89135 -2.11943,0.89135 -0.61404,0 -1.36674,-0.35654 -0.7725,-0.35654 -0.81212,-0.970581 0.93097,-1.030004 2.57501,-2.693857 8.93331,-9.071961 13.58814,-15.053909 -0.0792,-0.17827 -0.63385,-0.17827 -1.04981,0 -4.47656,0.495194 -1.54501,0.237694 -3.20886,0.237694 -4.06059,0 -4.06059,-2.13924 0,-1.624238 1.8025,-1.624238 0.099,0 0.37635,0.09904 1.42616,0.594234 3.44656,0.594234 2.67405,0 6.04137,-0.435772 0.33673,-0.05942 0.79231,-0.118846 0.43577,-0.03962 1.01019,-0.158462 1.14886,-0.198078 1.82232,-0.198078 0.67346,0 1.36674,0.35654 0.71308,0.35654 0.61404,1.148851 l -0.0198,0.07923 q -0.43577,1.723276 -10.47831,12.439282 -2.41655,2.594819 -2.59482,3.070205 0.0792,0.198078 0.39615,0.198078 0.27731,0 2.77309,-0.53481 4.67464,-1.010196 7.09119,-1.010196 3.78328,0 3.78328,2.297702 0,1.445967 -0.7725,2.21847 z"
           style="stroke:#0000d2;stroke-width:0.32761404;stroke-miterlimit:4;stroke-dasharray:none;stroke-opacity:1" />
      </g>
      <text
         xml:space="preserve"
         style="font-style:normal;font-weight:normal;font-size:23.62596321px;line-height:125%;font-family:sans-serif;letter-spacing:0px;word-spacing:0px;fill:#0000d2;fill-opacity:1;stroke:none;stroke-width:1px;stroke-linecap:butt;stroke-linejoin:miter;stroke-opacity:1"
         x="433.59616"
         y="-99.251495"
         id="text5105"
         sodipodi:linespacing="125%"
         transform="scale(1.2359213,0.80911299)"><tspan
           sodipodi:role="line"
           id="tspan5107"
           x="433.59616"
           y="-99.251495">Design &amp; Develoment</tspan></text>
      <path
         style="opacity:1;fill:#0000d2;fill-opacity:1;fill-rule:nonzero;stroke:#0000d2;stroke-width:0.30000001;stroke-linecap:round;stroke-linejoin:round;stroke-miterlimit:4;stroke-dasharray:none;stroke-opacity:1"
         d="m 765.48702,-147.06895 c 22.29977,-16.91242 -54.67554,-13.81295 -88.28288,-15.30557 -12.50468,-0.48435 -39.33821,-1.7706 -55.1348,3.01741 -0.16513,-1.9565 15.90535,-6.57647 23.74404,-7.24793 12.75276,-1.32829 82.34477,-0.57366 115.87778,4.2992 4.77542,0.98602 11.04007,2.39485 11.31534,7.42359 -0.52078,4.81355 -0.60756,6.57058 -7.51948,7.8133 z"
         id="path5109"
         inkscape:connector-curvature="0"
         sodipodi:nodetypes="ccccccc" />
      <path
         style="opacity:1;fill:#0000d2;fill-opacity:1;fill-rule:nonzero;stroke:#0000d2;stroke-width:0.30000004;stroke-linecap:round;stroke-linejoin:round;stroke-miterlimit:4;stroke-dasharray:none;stroke-opacity:1"
         d="m 524.49526,-106.05985 c -6.53792,7.387008 -14.2731,17.65693 -10.63062,27.976149 3.62839,9.114377 21.03097,14.31228 36.39683,16.90459 67.0783,8.407074 121.01311,-6.915749 151.03547,-17.80312 -38.17679,25.340327 -124.98811,30.980506 -177.75424,16.173664 -9.33424,-3.06574 -18.04045,-11.233634 -16.5093,-23.000562 2.02753,-8.442664 8.80752,-17.592901 17.46186,-20.250721 z"
         id="path5111"
         inkscape:connector-curvature="0"
         sodipodi:nodetypes="ccccccc" />
    </g>
  </g>
</svg>
