<?xml version="1.0" encoding="UTF-8" standalone="no"?>
<!-- Created with Inkscape (http://www.inkscape.org/) -->

<svg
   xmlns:dc="http://purl.org/dc/elements/1.1/"
   xmlns:cc="http://creativecommons.org/ns#"
   xmlns:rdf="http://www.w3.org/1999/02/22-rdf-syntax-ns#"
   xmlns:svg="http://www.w3.org/2000/svg"
   xmlns="http://www.w3.org/2000/svg"
   xmlns:xlink="http://www.w3.org/1999/xlink"
   xmlns:sodipodi="http://sodipodi.sourceforge.net/DTD/sodipodi-0.dtd"
   xmlns:inkscape="http://www.inkscape.org/namespaces/inkscape"
   width="70.555557mm"
   height="56.246891mm"
   viewBox="0 0 250.00001 199.30001"
   id="svg2"
   version="1.1"
   inkscape:version="0.91 r13725"
   sodipodi:docname="Logo_curso_Edx_Intro_Bootstrap.svg">
  <defs
     id="defs4">
    <linearGradient
       id="linearGradient3834"
       gradientUnits="userSpaceOnUse"
       x1="64.477501"
       y1="56.3008"
       x2="78.466103"
       y2="48.0854">
      <stop
         offset="0"
         style="stop-color:#000000;stop-opacity:0.39215687;"
         id="stop3836" />
      <stop
         id="stop3838"
         style="stop-color:#000000;stop-opacity:0.09803922;"
         offset="0.59694964" />
      <stop
         offset="1"
         style="stop-color:#64bacc;stop-opacity:0;"
         id="stop3840" />
    </linearGradient>
    <linearGradient
       gradientTransform="matrix(0.9975,-0.0707,0.0707,0.9975,254.6004,-268.4704)"
       y2="309.89331"
       x2="-161.4561"
       y1="332.082"
       x1="-172.72121"
       gradientUnits="userSpaceOnUse"
       id="linearGradient3840">
      <stop
         id="stop3842"
         style="stop-color:#f79b09;stop-opacity:0.19607843;"
         offset="0" />
      <stop
         offset="0.368"
         style="stop-color:#facb04;stop-opacity:1;"
         id="stop3844" />
      <stop
         id="stop3846"
         style="stop-color:#FEFD00"
         offset="0.736" />
      <stop
         id="stop3848"
         style="stop-color:#FEFE26"
         offset="0.7783" />
      <stop
         id="stop3850"
         style="stop-color:#FFFE54"
         offset="0.8369" />
      <stop
         id="stop3852"
         style="stop-color:#FFFF76"
         offset="0.889" />
      <stop
         id="stop3854"
         style="stop-color:#FFFF8B"
         offset="0.932" />
      <stop
         id="stop3856"
         style="stop-color:#FFFF92"
         offset="0.9607" />
    </linearGradient>
    <linearGradient
       y2="48.0854"
       x2="78.466103"
       y1="56.3008"
       x1="64.477501"
       gradientUnits="userSpaceOnUse"
       id="linearGradient21900">
      <stop
         id="stop21902"
         style="stop-color:#2d7787;stop-opacity:1;"
         offset="0" />
      <stop
         offset="0.65713483"
         style="stop-color:#3c9fb4;stop-opacity:1;"
         id="stop21912" />
      <stop
         id="stop21910"
         style="stop-color:#64bacc;stop-opacity:1;"
         offset="1" />
    </linearGradient>
    <linearGradient
       id="XMLID_74_-8-1"
       gradientUnits="userSpaceOnUse"
       x1="64.477501"
       y1="56.3008"
       x2="78.466103"
       y2="48.0854">
      <stop
         offset="0"
         style="stop-color:#DF731B"
         id="stop149-5-9" />
      <stop
         offset="0.5449"
         style="stop-color:#DF731B"
         id="stop151-3-7" />
      <stop
         offset="0.7014"
         style="stop-color:#EC8811"
         id="stop153-2-2" />
      <stop
         offset="0.8593"
         style="stop-color:#F4950B"
         id="stop155-3-8" />
      <stop
         offset="1"
         style="stop-color:#F79A09"
         id="stop157-94-6" />
    </linearGradient>
    <linearGradient
       id="XMLID_100_-3-6"
       gradientUnits="userSpaceOnUse"
       x1="60.286098"
       y1="34.297401"
       x2="61.244999"
       y2="36.0061">
      <stop
         offset="0"
         style="stop-color:#8B8B89"
         id="stop373-71-0" />
      <stop
         offset="1"
         style="stop-color:#120500"
         id="stop375-1-5" />
    </linearGradient>
    <linearGradient
       id="XMLID_90_-58-6"
       gradientUnits="userSpaceOnUse"
       x1="80.929199"
       y1="67.844704"
       x2="60.433201"
       y2="71.759697">
      <stop
         offset="0.0047"
         style="stop-color:#FFFAEE"
         id="stop291-7-1" />
      <stop
         offset="0.2757"
         style="stop-color:#F5F89B"
         id="stop293-9-9" />
      <stop
         offset="0.3102"
         style="stop-color:#F3ED91"
         id="stop295-2-0" />
      <stop
         offset="0.4668"
         style="stop-color:#ECC267"
         id="stop297-2-4" />
      <stop
         offset="0.6182"
         style="stop-color:#E6A046"
         id="stop299-0-5" />
      <stop
         offset="0.7611"
         style="stop-color:#E2872E"
         id="stop301-65-89" />
      <stop
         offset="0.8921"
         style="stop-color:#E07820"
         id="stop303-7-6" />
      <stop
         offset="1"
         style="stop-color:#DF731B"
         id="stop305-30-0" />
    </linearGradient>
    <linearGradient
       id="XMLID_87_-8-6"
       gradientUnits="userSpaceOnUse"
       x1="35.5"
       y1="48.361301"
       x2="50.721401"
       y2="63.893299">
      <stop
         offset="0.1966"
         style="stop-color:#DF731B"
         id="stop268-3-27" />
      <stop
         offset="0.8427"
         style="stop-color:#F9BD5F"
         id="stop270-6-29" />
      <stop
         offset="1"
         style="stop-color:#FFFCCF"
         id="stop272-8-2" />
    </linearGradient>
    <linearGradient
       id="XMLID_86_-84-8"
       gradientUnits="userSpaceOnUse"
       x1="54.825199"
       y1="41.267101"
       x2="58.138699"
       y2="44.27">
      <stop
         offset="0"
         style="stop-color:#EEA272"
         id="stop253-4-9" />
      <stop
         offset="0.1865"
         style="stop-color:#EFA777"
         id="stop255-2-7" />
      <stop
         offset="0.4064"
         style="stop-color:#F2B585"
         id="stop257-9-6" />
      <stop
         offset="0.643"
         style="stop-color:#F6CD9C"
         id="stop259-3-5" />
      <stop
         offset="0.8898"
         style="stop-color:#FCEEBB"
         id="stop261-1-7" />
      <stop
         offset="1"
         style="stop-color:#FFFFCC"
         id="stop263-51-5" />
    </linearGradient>
    <linearGradient
       id="XMLID_77_-55-1"
       gradientUnits="userSpaceOnUse"
       x1="48.730999"
       y1="44.320301"
       x2="51.856499"
       y2="42.945099">
      <stop
         offset="0"
         style="stop-color:#F2C8A9"
         id="stop182-23-4" />
      <stop
         offset="1"
         style="stop-color:#FFFFCC"
         id="stop184-77-8" />
    </linearGradient>
    <radialGradient
       r="59.037315"
       fy="61.808781"
       fx="63.993507"
       cy="61.808781"
       cx="63.993507"
       gradientTransform="matrix(2.5419383,0,0,2.4642576,440.50522,451.70079)"
       gradientUnits="userSpaceOnUse"
       id="radialGradient3347"
       xlink:href="#XMLID_74_-8-1"
       inkscape:collect="always" />
    <radialGradient
       r="59.037315"
       fy="61.808781"
       fx="63.993507"
       cy="61.808781"
       cx="63.993507"
       gradientTransform="matrix(2.5419384,0,0,2.4642576,90.504929,100.87095)"
       gradientUnits="userSpaceOnUse"
       id="radialGradient3371"
       xlink:href="#XMLID_74_-8-1"
       inkscape:collect="always" />
    <radialGradient
       gradientUnits="userSpaceOnUse"
       r="216"
       fy="256"
       fx="255.99385"
       cy="256"
       cx="255.99385"
       id="radialGradient21898"
       xlink:href="#linearGradient21900"
       inkscape:collect="always" />
    <radialGradient
       gradientTransform="translate(-550,-5)"
       r="216"
       fy="256"
       fx="255.99385"
       cy="256"
       cx="255.99385"
       gradientUnits="userSpaceOnUse"
       id="radialGradient3832"
       xlink:href="#linearGradient3834"
       inkscape:collect="always" />
    <radialGradient
       r="216"
       fy="256"
       fx="255.99385"
       cy="256"
       cx="255.99385"
       gradientTransform="translate(-550,-5)"
       gradientUnits="userSpaceOnUse"
       id="radialGradient3850"
       xlink:href="#linearGradient3834"
       inkscape:collect="always" />
    <linearGradient
       id="linearGradient3754"
       inkscape:collect="always">
      <stop
         id="stop3756"
         offset="0"
         style="stop-color:#000000;stop-opacity:1;" />
      <stop
         id="stop3758"
         offset="1"
         style="stop-color:#000000;stop-opacity:0;" />
    </linearGradient>
    <linearGradient
       id="linearGradient3770">
      <stop
         id="stop3772"
         offset="0"
         style="stop-color:#e60000;stop-opacity:1;" />
      <stop
         id="stop3774"
         offset="1"
         style="stop-color:#a00000;stop-opacity:1;" />
    </linearGradient>
    <linearGradient
       id="linearGradient3099">
      <stop
         id="stop3101"
         offset="0"
         style="stop-color:#e60000;stop-opacity:1;" />
      <stop
         id="stop3103"
         offset="1"
         style="stop-color:#8c0000;stop-opacity:1;" />
    </linearGradient>
    <linearGradient
       y2="1614.8275"
       x2="995.65857"
       y1="389.16284"
       x1="1005.9724"
       gradientUnits="userSpaceOnUse"
       id="linearGradient4181-9"
       xlink:href="#linearGradient3099"
       inkscape:collect="always" />
    <linearGradient
       gradientTransform="matrix(0.1476258,0,0,0.1476258,-801.6259,107.59751)"
       y2="1614.8275"
       x2="995.65857"
       y1="389.16284"
       x1="1005.9724"
       gradientUnits="userSpaceOnUse"
       id="linearGradient3792-1"
       xlink:href="#linearGradient3099"
       inkscape:collect="always" />
    <linearGradient
       inkscape:collect="always"
       xlink:href="#linearGradient3099"
       id="linearGradient3878-3"
       gradientUnits="userSpaceOnUse"
       x1="1005.9724"
       y1="389.16284"
       x2="995.65857"
       y2="1614.8275"
       gradientTransform="matrix(1.0000026,0,0,1.0000026,2032.1625,2032.1602)" />
    <linearGradient
       y2="1614.8275"
       x2="995.65857"
       y1="389.16284"
       x1="1005.9724"
       gradientTransform="matrix(0.14762618,0,0,0.14762618,-501.62629,407.59678)"
       gradientUnits="userSpaceOnUse"
       id="linearGradient7140"
       xlink:href="#linearGradient3099"
       inkscape:collect="always" />
    <linearGradient
       y2="251.66064"
       x2="1011.9534"
       y1="476.25983"
       x1="1016.1035"
       gradientTransform="translate(-146.22032,369.08845)"
       gradientUnits="userSpaceOnUse"
       id="linearGradient4082"
       xlink:href="#linearGradient3754"
       inkscape:collect="always" />
    <linearGradient
       id="linearGradient3737">
      <stop
         offset="0"
         style="stop-color:#ffffff;stop-opacity:1"
         id="stop3739" />
      <stop
         offset="1"
         style="stop-color:#ffffff;stop-opacity:0"
         id="stop3741" />
    </linearGradient>
    <linearGradient
       id="linearGradient4046">
      <stop
         offset="0"
         style="stop-color:#000000;stop-opacity:1;"
         id="stop4048" />
      <stop
         offset="1"
         style="stop-color:#ffffff;stop-opacity:0.2"
         id="stop4050" />
    </linearGradient>
    <linearGradient
       gradientTransform="matrix(1.0058652,0,0,0.994169,100,0)"
       gradientUnits="userSpaceOnUse"
       id="ButtonShadow-0-1-1"
       y2="7.0165396"
       x2="45.447727"
       y1="92.539597"
       x1="45.447727">
      <stop
         offset="0"
         style="stop-color:#000000;stop-opacity:1"
         id="stop3750-8-9-3" />
      <stop
         offset="1"
         style="stop-color:#000000;stop-opacity:0.58823532"
         id="stop3752-5-6-4" />
    </linearGradient>
    <linearGradient
       x1="314.62408"
       y1="547.20599"
       x2="427.37671"
       y2="432.48389"
       id="linearGradient3834-3"
       xlink:href="#linearGradient3820"
       gradientUnits="userSpaceOnUse"
       gradientTransform="translate(-52,0)" />
    <linearGradient
       id="linearGradient3820">
      <stop
         id="stop3822"
         style="stop-color:#070135;stop-opacity:1"
         offset="0" />
      <stop
         id="stop3824"
         style="stop-color:#612d50;stop-opacity:1"
         offset="1" />
    </linearGradient>
  </defs>
  <sodipodi:namedview
     id="base"
     pagecolor="#ffffff"
     bordercolor="#666666"
     borderopacity="1.0"
     inkscape:pageopacity="0.0"
     inkscape:pageshadow="2"
     inkscape:zoom="2.8"
     inkscape:cx="132.04459"
     inkscape:cy="98.252199"
     inkscape:document-units="px"
     inkscape:current-layer="layer1"
     showgrid="false"
     showguides="true"
     inkscape:guide-bbox="true"
     inkscape:window-width="1920"
     inkscape:window-height="1017"
     inkscape:window-x="-8"
     inkscape:window-y="-8"
     inkscape:window-maximized="1"
     fit-margin-top="0"
     fit-margin-left="0"
     fit-margin-right="0"
     fit-margin-bottom="0" />
  <metadata
     id="metadata7">
    <rdf:RDF>
      <cc:Work
         rdf:about="">
        <dc:format>image/svg+xml</dc:format>
        <dc:type
           rdf:resource="http://purl.org/dc/dcmitype/StillImage" />
        <dc:title />
      </cc:Work>
    </rdf:RDF>
  </metadata>
  <g
     inkscape:label="Capa 1"
     inkscape:groupmode="layer"
     id="layer1"
     transform="translate(-236.07857,-308.06219)">
    <g
       id="layer1-4"
       inkscape:label="Livello 1"
       transform="translate(211.79708,-794.71471)" />
    <g
       id="g3897"
       transform="translate(211.79708,-254.35253)" />
    <g
       id="g3893"
       transform="translate(211.79708,-254.35253)" />
    <path
       sodipodi:nodetypes="cscssssccsscccsccscsc"
       inkscape:connector-curvature="0"
       id="path15423"
       d="m 467.65252,-123.3522 c -3.92388,-0.0112 -7.93784,0.26256 -12,0.875 -24.45908,3.68769 -42.67968,17.72875 -53.5625,34.84375 -6.61689,10.40584 -11.21754,23.13422 -11.53125,39 -0.32108,16.2384 4.73659,28.76559 10.96875,39.5625 3.11683,5.39971 5.91261,10.89083 9.15625,16.09375 9.71673,15.58559 20.216,30.42767 29.28125,46.5 12.22151,21.66776 22.33962,45.03166 28.0625,73.125 0,0 210.12409,210.21143 299.98895,300 8.27946,-42.62219 27.17082,-73.71832 47.3125,-104.21875 6.76217,-10.23996 13.50052,-20.487 18.875,-31.65625 2.75323,-5.72186 5.85711,-11.06045 7.78125,-17.46875 1.9013,-6.33109 3.22863,-13.97678 3.03125,-22.21875 -0.3856,-16.08711 -4.98061,-28.43548 -11.65625,-38.875 -1.67453,-2.61875 -3.50994,-5.10006 -5.46875,-7.5 -0.93928,-1.1508 -1.89894,-2.27828 -2.90625,-3.375 C 723.56916,102.26312 524.03517,-99.73885 524.03517,-99.73885 c -0.56837,-0.52215 -0.99427,-0.99646 -1.4999,-1.49985 -4.3247,-4.30552 -9.24545,-8.08839 -14.8125,-11.34375 -10.59552,-6.19559 -24.66878,-10.70598 -40.0625,-10.75 z"
       style="display:none;fill:#000000;fill-opacity:0.43137255;stroke:none" />
    <rect
       style="opacity:1;fill:#ffecd6;fill-opacity:1;fill-rule:nonzero;stroke:none;stroke-width:0.69999999;stroke-linecap:round;stroke-linejoin:bevel;stroke-miterlimit:4;stroke-dasharray:none;stroke-opacity:1"
       id="rect5106"
       width="249.3"
       height="199.3"
       x="236.42857"
       y="308.06219"
       rx="0"
       ry="0" />
    <rect
       ry="5.0446601"
       rx="47.260765"
       y="398.97592"
       x="236.42857"
       height="47.272049"
       width="249.3"
       id="rect5331"
       style="opacity:1;fill:#0000ff;fill-opacity:1;fill-rule:nonzero;stroke:#000000;stroke-width:0.69999999;stroke-linecap:round;stroke-linejoin:bevel;stroke-miterlimit:4;stroke-dasharray:none;stroke-opacity:1" />
    <g
       id="text5333"
       style="font-style:normal;font-variant:normal;font-weight:bold;font-stretch:normal;font-size:14.88726521px;line-height:125%;font-family:Cambria;-inkscape-font-specification:'Cambria, Bold';text-align:center;letter-spacing:0px;word-spacing:0px;writing-mode:lr-tb;text-anchor:middle;fill:#ffffff;fill-opacity:1;stroke:none;stroke-width:1px;stroke-linecap:butt;stroke-linejoin:miter;stroke-opacity:1"
       transform="scale(1.0026261,0.99738077)">
      <path
         inkscape:connector-curvature="0"
         id="path4272"
         d="m 304.39646,408.72202 q -0.38527,0.10904 -0.52338,0.23988 -0.13811,0.12358 -0.19627,0.34165 -0.0509,0.21081 -0.0509,0.756 l 0,6.28783 q 0,0.44342 0.0436,0.70511 0.0436,0.25442 0.17446,0.39253 0.13812,0.13085 0.55246,0.23989 l 0,0.47976 -3.72909,0 0,-0.47976 q 0.31985,-0.0872 0.44342,-0.15266 0.12358,-0.0654 0.189,-0.16719 0.0727,-0.10903 0.10177,-0.31984 0.0363,-0.21807 0.0363,-0.71238 l 0,-3.56189 q 0,-0.58881 0.0218,-1.38842 0.0218,-0.7996 0.0436,-1.13399 l -0.15265,0 q -0.0872,0.29077 -0.189,0.57427 -0.0945,0.27623 -0.36346,0.99588 l -1.94814,5.24834 -1.27937,0 -2.04991,-5.8953 q -0.18173,-0.50157 -0.31984,-0.99588 l -0.13085,0 q 0.0727,1.19942 0.0727,2.83498 l 0,3.34382 q 0,0.53792 0.0509,0.74872 0.0509,0.21081 0.20353,0.34892 0.15266,0.13812 0.53065,0.23262 l 0,0.47976 -2.74774,0 0,-0.47976 q 0.26896,-0.0727 0.42161,-0.15992 0.15992,-0.0872 0.23988,-0.23262 0.08,-0.14538 0.0945,-0.37073 0.0218,-0.22534 0.0218,-0.57426 l 0,-6.28783 q 0,-0.55246 -0.0509,-0.756 -0.0436,-0.20354 -0.18173,-0.33438 -0.13811,-0.13085 -0.54518,-0.24715 l 0,-0.47977 3.61278,0 2.01356,5.96799 2.18075,-5.96799 3.40924,0 0,0.47977 z" />
      <path
         inkscape:connector-curvature="0"
         id="path4274"
         d="m 308.47447,408.05325 0,1.78095 -1.99176,0 0,-1.78095 1.99176,0 z m -2.76229,9.63166 q 0.35619,-0.0945 0.48704,-0.24715 0.13811,-0.15266 0.18172,-0.41435 0.0509,-0.26169 0.0509,-0.95226 l 0,-3.38016 q 0,-0.35619 -0.0363,-0.57427 -0.0291,-0.21807 -0.12357,-0.34892 -0.0872,-0.13084 -0.24715,-0.19627 -0.15266,-0.0727 -0.39981,-0.12357 l 0,-0.49431 1.99902,-0.0581 0.90865,0 0,5.16838 q 0,0.40708 0.007,0.63242 0.0145,0.21808 0.0363,0.34165 0.0218,0.11631 0.0582,0.21081 0.0436,0.0945 0.10904,0.17446 0.0654,0.08 0.18899,0.14538 0.12358,0.0654 0.32712,0.11631 l 0,0.47976 -3.54736,0 0,-0.47976 z" />
      <path
         inkscape:connector-curvature="0"
         id="path4276"
         d="m 315.93991,416.30376 0.55972,0.67604 q -0.71238,0.69784 -1.38114,1.00314 -0.6615,0.29804 -1.44657,0.29804 -1.57741,0 -2.40609,-0.92319 -0.82869,-0.93045 -0.82869,-2.69686 0,-1.19214 0.45069,-2.05717 0.45796,-0.8723 1.30845,-1.31572 0.85049,-0.45069 1.94814,-0.45069 0.5888,0 1.17034,0.0872 0.5888,0.08 1.06856,0.22534 l 0,1.75187 -1.43929,0 q -0.10904,-0.6833 -0.32711,-0.99587 -0.21808,-0.31258 -0.62515,-0.31258 -0.26896,0 -0.51611,0.13812 -0.23989,0.13084 -0.42889,0.46522 -0.18172,0.32712 -0.29076,0.88684 -0.10904,0.55246 -0.10904,1.40295 0,0.85049 0.15992,1.4393 0.15992,0.58153 0.51611,0.90138 0.35619,0.31257 0.93773,0.31257 0.42161,0 0.79234,-0.18173 0.37799,-0.18173 0.88684,-0.65423 z" />
      <path
         inkscape:connector-curvature="0"
         id="path4278"
         d="m 320.0906,411.99315 0.0945,0.0218 q 0.53065,-0.62515 1.09038,-0.90137 0.55973,-0.27623 1.21395,-0.27623 0.44342,0 0.93046,0.0945 l 0,2.00629 -1.31573,0 q -0.12357,-0.42161 -0.32711,-0.64696 -0.19627,-0.22534 -0.53065,-0.22534 -0.15992,0 -0.35619,0.10177 -0.189,0.0945 -0.35619,0.27622 -0.15992,0.17446 -0.23261,0.36346 -0.0654,0.18173 -0.0872,0.37073 -0.0218,0.189 -0.0218,0.567 l 0,2.31886 q 0,0.69057 0.0509,0.9668 0.0509,0.27623 0.20353,0.43615 0.15266,0.15265 0.51611,0.21808 l 0,0.47976 -3.5837,0 0,-0.47976 q 0.34892,-0.0945 0.47977,-0.24715 0.13811,-0.15266 0.18173,-0.41435 0.0509,-0.26169 0.0509,-0.95226 l 0,-2.98763 q 0,-0.53792 -0.0218,-0.79234 -0.0145,-0.26169 -0.0872,-0.41434 -0.0654,-0.15992 -0.2108,-0.25442 -0.13812,-0.10177 -0.48704,-0.17446 l 0,-0.49431 1.99176,-0.0581 0.91591,0 -0.10177,1.09765 z" />
      <path
         inkscape:connector-curvature="0"
         id="path4280"
         d="m 327.56331,418.28098 q -1.06857,0 -1.84637,-0.37073 -0.77053,-0.378 -1.20668,-1.19941 -0.43615,-0.82869 -0.43615,-2.10079 0,-0.97407 0.26896,-1.68645 0.26896,-0.71238 0.74872,-1.17761 0.47977,-0.46522 1.14126,-0.6833 0.66877,-0.22534 1.44657,-0.22534 1.75914,0 2.65325,0.93045 0.89411,0.92319 0.89411,2.7114 0,1.26484 -0.44342,2.1226 -0.44342,0.85049 -1.26484,1.26484 -0.82142,0.41434 -1.95541,0.41434 z m -1.27937,-3.83085 q 0,1.54106 0.34165,2.31159 0.34892,0.76327 1.04676,0.76327 0.38527,0 0.63969,-0.19627 0.26169,-0.19627 0.41434,-0.567 0.15992,-0.37073 0.22535,-0.88684 0.0654,-0.52338 0.0654,-1.17033 0,-1.56288 -0.34892,-2.33341 -0.34165,-0.7778 -1.01769,-0.7778 -0.4943,0 -0.79234,0.31258 -0.29803,0.31257 -0.43615,0.93772 -0.13811,0.62515 -0.13811,1.60649 z" />
      <path
         inkscape:connector-curvature="0"
         id="path4282"
         d="m 333.46588,416.202 q 0.17446,0.66149 0.55246,0.99587 0.37799,0.32712 1.01041,0.32712 0.54519,0 0.82142,-0.24716 0.2835,-0.24715 0.2835,-0.71964 0,-0.29804 -0.13085,-0.50885 -0.12357,-0.2108 -0.42161,-0.3998 -0.29077,-0.19627 -1.00315,-0.50884 -0.3998,-0.17446 -0.75599,-0.38527 -0.34892,-0.21081 -0.61061,-0.4725 -0.26169,-0.26895 -0.41434,-0.59607 -0.15266,-0.32711 -0.15266,-0.72691 0,-0.65423 0.378,-1.134 0.378,-0.47976 1.07584,-0.73418 0.70511,-0.25442 1.60649,-0.25442 0.53065,0 1.03949,0.0436 0.50884,0.0436 1.31572,0.189 l 0,1.69372 -0.95953,0 q -0.16719,-0.46523 -0.37073,-0.71965 -0.19627,-0.25442 -0.43615,-0.34892 -0.23988,-0.10177 -0.57427,-0.10177 -0.47976,0 -0.76326,0.21808 -0.2835,0.21807 -0.2835,0.61061 0,0.27623 0.10177,0.47249 0.10177,0.19627 0.36346,0.38527 0.26169,0.18173 1.01042,0.4943 0.6833,0.2835 1.11218,0.59607 0.42888,0.30531 0.65422,0.71238 0.22535,0.39981 0.22535,0.93773 0,0.5888 -0.21808,1.01768 -0.21807,0.42161 -0.61061,0.69784 -0.39253,0.27623 -0.94499,0.41434 -0.54519,0.13085 -1.20668,0.13085 -1.19942,0 -2.66779,-0.34165 l 0,-1.73733 0.97407,0 z" />
      <path
         inkscape:connector-curvature="0"
         id="path4284"
         d="m 342.88673,418.28098 q -1.06857,0 -1.84637,-0.37073 -0.77053,-0.378 -1.20668,-1.19941 -0.43615,-0.82869 -0.43615,-2.10079 0,-0.97407 0.26896,-1.68645 0.26895,-0.71238 0.74872,-1.17761 0.47977,-0.46522 1.14126,-0.6833 0.66876,-0.22534 1.44657,-0.22534 1.75914,0 2.65324,0.93045 0.89411,0.92319 0.89411,2.7114 0,1.26484 -0.44342,2.1226 -0.44342,0.85049 -1.26483,1.26484 -0.82142,0.41434 -1.95541,0.41434 z m -1.27938,-3.83085 q 0,1.54106 0.34166,2.31159 0.34892,0.76327 1.04676,0.76327 0.38526,0 0.63968,-0.19627 0.26169,-0.19627 0.41435,-0.567 0.15992,-0.37073 0.22534,-0.88684 0.0654,-0.52338 0.0654,-1.17033 0,-1.56288 -0.34892,-2.33341 -0.34165,-0.7778 -1.01768,-0.7778 -0.4943,0 -0.79234,0.31258 -0.29804,0.31257 -0.43615,0.93772 -0.13812,0.62515 -0.13812,1.60649 z" />
      <path
         inkscape:connector-curvature="0"
         id="path4286"
         d="m 347.83704,417.68491 q 0.34165,-0.10177 0.47249,-0.22535 0.13812,-0.12357 0.19627,-0.34165 0.0581,-0.22534 0.0581,-0.7778 l 0,-4.47781 -0.88684,0 0,-0.50157 q 0.34166,-0.0509 0.4725,-0.10904 0.13812,-0.0654 0.22535,-0.16719 0.0872,-0.10904 0.13811,-0.27623 0.0509,-0.16719 0.0727,-0.42888 0.11631,-1.30845 0.9668,-1.97722 0.85776,-0.67603 2.42064,-0.67603 0.62514,0 1.11218,0.10177 l 0,1.48291 -0.98861,0 q -0.12357,-0.3998 -0.27623,-0.5888 -0.14538,-0.189 -0.38526,-0.189 -0.31258,0 -0.47977,0.21081 -0.16719,0.20353 -0.23261,0.5888 -0.0582,0.378 -0.0582,1.06857 l 0,0.55245 1.40295,0 0,0.90865 -1.40295,0 0,4.47781 q 0,0.54519 0.0582,0.77053 0.0582,0.22535 0.20353,0.35619 0.15266,0.13085 0.53065,0.21808 l 0,0.47976 -3.62004,0 0,-0.47976 z" />
      <path
         inkscape:connector-curvature="0"
         id="path4288"
         d="m 357.6795,417.29237 q -0.63969,0.54519 -1.16307,0.77053 -0.52338,0.21808 -1.10491,0.21808 -1.08311,0 -1.62103,-0.58153 -0.53065,-0.58881 -0.53065,-1.77368 l 0,-4.06347 -0.90865,0 0,-0.50157 q 0.44342,-0.0727 0.65423,-0.21808 0.21081,-0.14538 0.32711,-0.38526 0.11631,-0.24716 0.18173,-0.63969 0.0727,-0.39254 0.10904,-0.98134 l 1.73733,0 0,1.81729 2.07172,0 0,0.90865 -2.07172,0 0,3.2784 q 0,0.82141 0.0727,1.21395 0.08,0.39253 0.26169,0.58153 0.18173,0.18173 0.45069,0.18173 0.20354,0 0.36346,-0.0363 0.15992,-0.0364 0.33438,-0.13085 0.18173,-0.0945 0.378,-0.26896 l 0.45796,0.61061 z" />
      <path
         inkscape:connector-curvature="0"
         id="path4290"
         d="m 360.5799,411.38253 0,2.1953 -1.95541,0 0,-2.1953 1.95541,0 z m 0,4.58685 0,2.19529 -1.95541,0 0,-2.19529 1.95541,0 z m -0.86504,-5.01573 0,0 z" />
      <path
         inkscape:connector-curvature="0"
         id="path4292"
         d="m 369.44102,408.24225 q 1.21395,0 2.0281,0.189 0.81414,0.189 1.44656,0.59607 0.63242,0.40708 1.01769,0.97407 0.39253,0.55973 0.58153,1.30845 0.189,0.74146 0.189,1.67918 0,1.13399 -0.26896,2.03537 -0.26169,0.90138 -0.79234,1.54106 -0.4725,0.57427 -1.16307,0.945 -0.6833,0.37073 -1.57741,0.52338 -0.77053,0.13084 -1.94087,0.13084 l -3.3002,0 0,-0.47976 q 0.26896,-0.0727 0.42161,-0.15266 0.15992,-0.0872 0.23261,-0.23261 0.08,-0.15265 0.10177,-0.378 0.0218,-0.23261 0.0218,-0.58153 l 0,-6.26603 q 0,-0.34165 -0.0218,-0.57426 -0.0145,-0.23261 -0.0945,-0.378 -0.0727,-0.14538 -0.23261,-0.23261 -0.15265,-0.0945 -0.42888,-0.16719 l 0,-0.47977 3.77997,0 z m -0.74873,9.04285 q 0.13085,0.0218 0.6615,0.0218 0.79961,0 1.3448,-0.23261 0.40707,-0.17446 0.69057,-0.47977 0.47249,-0.50157 0.71238,-1.30118 0.26169,-0.8723 0.26169,-2.12987 0,-1.38114 -0.37073,-2.28979 -0.37073,-0.91591 -1.04676,-1.34479 -0.66877,-0.43615 -1.60649,-0.43615 -0.45069,0 -0.64696,0.0145 l 0,8.17782 z" />
      <path
         inkscape:connector-curvature="0"
         id="path4294"
         d="m 383.36875,408.24225 0,2.3116 -0.99588,0 q -0.23988,-0.69057 -0.40707,-0.93045 -0.16719,-0.24716 -0.39981,-0.38527 -0.23261,-0.14538 -0.79234,-0.14538 l -1.58468,0 0,3.4892 0.95954,0 q 0.31984,0 0.50157,-0.0872 0.18173,-0.0945 0.29803,-0.30531 0.12358,-0.2108 0.23262,-0.65422 l 0.82141,0 0,2.95128 -0.82141,0 q -0.10177,-0.42161 -0.22535,-0.63969 -0.12357,-0.22534 -0.29803,-0.31984 -0.16719,-0.0945 -0.50884,-0.0945 l -0.95954,0 0,3.88174 1.57742,0 q 0.25442,0 0.42888,-0.0291 0.17446,-0.0363 0.31257,-0.1163 0.13812,-0.08 0.26169,-0.21808 0.13085,-0.13811 0.22535,-0.29804 0.10176,-0.15992 0.2108,-0.42161 0.10904,-0.26169 0.23988,-0.71965 l 0.99588,0 -0.13811,2.65325 -7.1456,0 0,-0.47976 q 0.26896,-0.0727 0.42161,-0.15266 0.15992,-0.0872 0.23262,-0.23261 0.08,-0.15265 0.10176,-0.378 0.0218,-0.23261 0.0218,-0.58153 l 0,-6.26603 q 0,-0.34165 -0.0218,-0.57426 -0.0145,-0.23261 -0.0945,-0.378 -0.0727,-0.14538 -0.23261,-0.23261 -0.15265,-0.0945 -0.42888,-0.16719 l 0,-0.47977 7.21102,0 z" />
      <path
         inkscape:connector-curvature="0"
         id="path4296"
         d="m 390.95777,410.62654 q 0.10904,-0.3053 0.16719,-0.57426 0.0654,-0.26896 0.0654,-0.567 0,-0.35619 -0.189,-0.54519 -0.18172,-0.189 -0.56699,-0.21807 l 0,-0.47977 3.13301,0 0,0.47977 q -0.27623,0.0436 -0.47249,0.18173 -0.189,0.13084 -0.34892,0.38526 -0.15266,0.24716 -0.36346,0.81415 l -3.04579,8.1124 -1.67917,0 -2.39883,-8.14148 q -0.15992,-0.54518 -0.26896,-0.77053 -0.10904,-0.23261 -0.2835,-0.37073 -0.17446,-0.14538 -0.48703,-0.2108 l 0,-0.47977 4.01985,0 0,0.47977 q -0.378,0.0436 -0.55973,0.2108 -0.18173,0.16719 -0.18173,0.4725 0,0.23988 0.0436,0.4725 0.0436,0.22534 0.18173,0.72691 l 1.43929,5.21927 1.79549,-5.19746 z" />
      <path
         inkscape:connector-curvature="0"
         id="path4298"
         d="m 398.99747,416.38373 q 0.4725,0 0.70511,-0.0654 0.23261,-0.0727 0.36346,-0.23988 0.13811,-0.17446 0.22534,-0.51611 l 0.83596,0 -0.16719,2.60236 -6.65856,0 0,-0.47976 q 0.3053,-0.69784 0.87957,-1.51926 0.58153,-0.82142 1.41021,-1.79549 0.78508,-0.92318 1.19215,-1.51925 0.41434,-0.59607 0.61788,-1.12672 0.20354,-0.53065 0.20354,-1.09765 0,-0.79961 -0.35619,-1.2503 -0.35619,-0.45795 -0.97407,-0.45795 -0.58154,0 -0.9668,0.41434 -0.378,0.40707 -0.55246,1.29391 l -1.30845,0 0,-1.71552 q 0.88684,-0.35619 1.38841,-0.49431 0.50157,-0.14538 0.98861,-0.21807 0.4943,-0.0727 1.06857,-0.0727 1.06856,0 1.7446,0.29076 0.67603,0.2835 0.97407,0.7778 0.3053,0.48704 0.3053,1.14126 0,0.57427 -0.21807,1.06857 -0.21081,0.49431 -0.74146,1.12672 -0.52338,0.63242 -1.77368,1.81003 -0.55972,0.54519 -1.04676,1.10491 -0.48703,0.55246 -0.71965,0.86503 l 0,0.0727 2.58056,0 z" />
      <path
         inkscape:connector-curvature="0"
         id="path4300"
         d="m 406.64464,418.28098 q -1.13399,0 -1.90452,-0.4943 -0.76326,-0.50158 -1.1776,-1.61376 -0.41435,-1.11218 -0.41435,-2.87859 0,-1.66464 0.42161,-2.81317 0.42162,-1.1558 1.23576,-1.75187 0.82142,-0.60334 1.96995,-0.60334 1.78822,0 2.66779,1.22122 0.87957,1.21395 0.87957,3.72181 0,2.57329 -0.93773,3.89628 -0.93045,1.31572 -2.74048,1.31572 z m -1.28664,-5.19746 q 0,1.59922 0.13812,2.54421 0.14538,0.94499 0.45068,1.39568 0.30531,0.44342 0.81415,0.44342 0.27623,0 0.47977,-0.13084 0.2108,-0.13812 0.37072,-0.42161 0.1672,-0.29077 0.2835,-0.76327 0.11631,-0.47976 0.16719,-1.18487 0.0509,-0.71238 0.0509,-1.58468 0,-1.30118 -0.10177,-2.18802 -0.0945,-0.88684 -0.27623,-1.36661 -0.18173,-0.47976 -0.42888,-0.6833 -0.24715,-0.20354 -0.57427,-0.20354 -0.38526,0 -0.65422,0.25442 -0.26169,0.25443 -0.42161,0.77054 -0.15992,0.51611 -0.23262,1.29391 -0.0654,0.7778 -0.0654,1.82456 z" />
      <path
         inkscape:connector-curvature="0"
         id="path4302"
         d="m 412.19829,410.63381 0,-1.72279 q 1.8391,-0.78507 3.33655,-0.78507 0.89411,0 1.57741,0.24715 0.69057,0.24715 1.0613,0.72691 0.378,0.4725 0.378,1.14853 0,0.61788 -0.24716,1.09038 -0.24715,0.46523 -0.69784,0.81415 -0.44342,0.34892 -1.15579,0.6833 l 0,0.0654 q 0.63241,0.10904 1.14852,0.42161 0.52339,0.31258 0.82869,0.83596 0.31257,0.52338 0.31257,1.21395 0,0.84322 -0.41434,1.50472 -0.40707,0.65422 -1.24303,1.03222 -0.83595,0.37073 -2.0281,0.37073 -0.82141,0 -1.61375,-0.14538 -0.79234,-0.15266 -1.38114,-0.42162 l 0,-1.82456 1.30845,0 q 0.2108,0.82869 0.59607,1.20668 0.38526,0.37073 1.01041,0.37073 1.54107,0 1.54107,-1.90452 0,-1.02495 -0.54519,-1.52653 -0.53792,-0.50157 -1.64283,-0.50157 l -0.57427,0 0,-0.82869 q 1.26484,-0.0509 1.91906,-0.5888 0.65423,-0.54519 0.65423,-1.57014 0,-0.80688 -0.32711,-1.21395 -0.32712,-0.41434 -0.95226,-0.41434 -0.35619,0 -0.6615,0.15992 -0.29804,0.15265 -0.53792,0.54519 -0.23261,0.38526 -0.34165,1.01041 l -1.30845,0 z" />
      <path
         inkscape:connector-curvature="0"
         id="path4304"
         d="m 424.74488,414.18117 1.70098,2.41336 q 0.23989,0.34165 0.42162,0.567 0.189,0.21807 0.36346,0.34165 0.18172,0.12357 0.39253,0.18173 l 0,0.47976 -3.54009,0 0,-0.47976 q 0.45069,-0.0509 0.45069,-0.378 0,-0.0872 -0.0218,-0.15992 -0.0218,-0.08 -0.0654,-0.15265 -0.0436,-0.08 -0.17446,-0.26896 l -0.82141,-1.17761 -0.76327,0.93772 q -0.24715,0.29804 -0.31257,0.43615 -0.0582,0.13812 -0.0582,0.31258 0,0.17446 0.13085,0.29803 0.13084,0.12358 0.41434,0.15266 l 0,0.47976 -2.79863,0 0,-0.47976 q 0.31258,-0.0654 0.62515,-0.31985 0.31984,-0.25442 0.77053,-0.77053 l 1.51926,-1.72279 -1.70826,-2.41337 q -0.15992,-0.23261 -0.27622,-0.37799 -0.11631,-0.15266 -0.23989,-0.2835 -0.12357,-0.13812 -0.22534,-0.21081 -0.0945,-0.08 -0.18173,-0.10904 -0.08,-0.0363 -0.15992,-0.0436 l 0,-0.47977 3.51828,0 0,0.47977 q -0.45796,0.0945 -0.45796,0.40707 0,0.12358 0.0654,0.26169 0.0654,0.13085 0.21081,0.33438 l 0.74872,1.06857 0.74146,-0.92318 q 0.17446,-0.21808 0.23988,-0.36346 0.0727,-0.15265 0.0727,-0.31257 0,-0.20354 -0.15265,-0.32712 -0.14538,-0.13084 -0.3998,-0.14538 l 0,-0.47977 2.76955,0 0,0.47977 q -0.32711,0.08 -0.60334,0.31257 -0.27623,0.22535 -0.79961,0.85777 l -1.39568,1.57741 z" />
      <path
         inkscape:connector-curvature="0"
         id="path4306"
         d="m 276.21388,434.94919 q 0,0.25442 0.0145,0.4725 0.0145,0.21807 0.0581,0.35619 0.0436,0.13811 0.12358,0.23261 0.0872,0.0945 0.23261,0.16719 0.14538,0.0654 0.35619,0.11631 l 0,0.47976 -3.81632,0 0,-0.47976 q 0.26896,-0.0727 0.42162,-0.15265 0.15992,-0.0872 0.23261,-0.23262 0.08,-0.15265 0.10177,-0.37799 0.0218,-0.23262 0.0218,-0.58154 l 0,-6.27329 q 0,-0.34892 -0.0218,-0.57427 -0.0145,-0.22534 -0.0945,-0.37073 -0.0727,-0.15265 -0.23262,-0.23988 -0.15265,-0.0872 -0.42888,-0.15992 l 0,-0.47977 3.81632,0 0,0.47977 q -0.29804,0.08 -0.44342,0.17446 -0.13811,0.0872 -0.21081,0.21807 -0.0727,0.13085 -0.10176,0.34166 -0.0291,0.2108 -0.0291,0.61788 l 0,6.26602 z" />
      <path
         inkscape:connector-curvature="0"
         id="path4308"
         d="m 286.21626,436.77375 -3.52555,0 0,-0.47976 q 0.33438,-0.08 0.46523,-0.23261 0.13084,-0.15993 0.17446,-0.42162 0.0509,-0.26896 0.0509,-0.95953 l 0,-1.94087 q 0,-0.51611 -0.0218,-0.84322 -0.0218,-0.33438 -0.0727,-0.54519 -0.0436,-0.2108 -0.13084,-0.34892 -0.08,-0.14538 -0.18173,-0.23261 -0.10177,-0.0945 -0.23261,-0.13812 -0.13085,-0.0436 -0.33439,-0.0436 -0.27622,0 -0.57426,0.17446 -0.29804,0.16719 -0.50157,0.47249 -0.20354,0.29804 -0.20354,0.63969 l 0,2.79863 q 0,0.69057 0.0436,0.95953 0.0436,0.26896 0.17446,0.42889 0.13812,0.15265 0.47977,0.23261 l 0,0.47976 -3.51101,0 0,-0.47976 q 0.34892,-0.0945 0.47976,-0.24715 0.13812,-0.15266 0.18173,-0.41435 0.0509,-0.26169 0.0509,-0.95226 l 0,-2.98763 q 0,-0.53792 -0.0218,-0.79234 -0.0145,-0.26169 -0.0872,-0.41434 -0.0654,-0.15992 -0.21081,-0.25442 -0.13811,-0.10177 -0.48703,-0.17446 l 0,-0.4943 1.99175,-0.0582 0.91592,0 -0.10904,1.04676 0.0872,0.0218 q 0.45069,-0.3998 0.79234,-0.62515 0.34165,-0.23261 0.71238,-0.36346 0.378,-0.13811 0.79234,-0.13811 0.59607,0 0.98861,0.17446 0.39253,0.16719 0.63242,0.4943 0.24715,0.32712 0.34892,0.79961 0.10903,0.4725 0.10903,1.09765 l 0,2.66051 q 0,0.31985 0.007,0.60334 0.0145,0.27623 0.0582,0.44342 0.0436,0.1672 0.1163,0.27623 0.08,0.10177 0.21808,0.17446 0.13811,0.0727 0.33438,0.12358 l 0,0.47976 z" />
      <path
         inkscape:connector-curvature="0"
         id="path4310"
         d="m 292.27148,435.90145 q -0.63969,0.54519 -1.16307,0.77054 -0.52338,0.21807 -1.10491,0.21807 -1.08311,0 -1.62103,-0.58153 -0.53065,-0.58881 -0.53065,-1.77368 l 0,-4.06347 -0.90864,0 0,-0.50157 q 0.44342,-0.0727 0.65422,-0.21808 0.21081,-0.14538 0.32712,-0.38526 0.1163,-0.24715 0.18172,-0.63969 0.0727,-0.39253 0.10904,-0.98134 l 1.73733,0 0,1.8173 2.07172,0 0,0.90864 -2.07172,0 0,3.2784 q 0,0.82142 0.0727,1.21395 0.08,0.39254 0.26169,0.58153 0.18173,0.18173 0.45068,0.18173 0.20354,0 0.36346,-0.0363 0.15993,-0.0364 0.33439,-0.13085 0.18172,-0.0945 0.37799,-0.26896 l 0.45796,0.61061 z" />
      <path
         inkscape:connector-curvature="0"
         id="path4312"
         d="m 295.44811,430.60223 0.0945,0.0218 q 0.53065,-0.62514 1.09037,-0.90137 0.55973,-0.27623 1.21396,-0.27623 0.44342,0 0.93045,0.0945 l 0,2.00629 -1.31572,0 q -0.12358,-0.42161 -0.32711,-0.64696 -0.19627,-0.22534 -0.53065,-0.22534 -0.15992,0 -0.35619,0.10177 -0.189,0.0945 -0.35619,0.27623 -0.15992,0.17446 -0.23261,0.36345 -0.0654,0.18173 -0.0872,0.37073 -0.0218,0.189 -0.0218,0.567 l 0,2.31886 q 0,0.69057 0.0509,0.9668 0.0509,0.27623 0.20354,0.43615 0.15265,0.15266 0.51611,0.21808 l 0,0.47976 -3.5837,0 0,-0.47976 q 0.34892,-0.0945 0.47976,-0.24715 0.13812,-0.15266 0.18173,-0.41435 0.0509,-0.26169 0.0509,-0.95226 l 0,-2.98763 q 0,-0.53792 -0.0218,-0.79234 -0.0145,-0.26169 -0.0872,-0.41434 -0.0654,-0.15992 -0.21081,-0.25442 -0.13811,-0.10177 -0.48703,-0.17446 l 0,-0.4943 1.99175,-0.0582 0.91592,0 -0.10177,1.09765 z" />
      <path
         inkscape:connector-curvature="0"
         id="path4314"
         d="m 302.92082,436.89006 q -1.06857,0 -1.84637,-0.37073 -0.77053,-0.37799 -1.20668,-1.19941 -0.43615,-0.82869 -0.43615,-2.10079 0,-0.97407 0.26896,-1.68645 0.26895,-0.71238 0.74872,-1.1776 0.47977,-0.46523 1.14126,-0.68331 0.66876,-0.22534 1.44657,-0.22534 1.75913,0 2.65324,0.93045 0.89411,0.92319 0.89411,2.7114 0,1.26484 -0.44342,2.1226 -0.44342,0.8505 -1.26483,1.26484 -0.82142,0.41434 -1.95541,0.41434 z m -1.27938,-3.83085 q 0,1.54106 0.34166,2.31159 0.34892,0.76327 1.04676,0.76327 0.38526,0 0.63968,-0.19627 0.26169,-0.19627 0.41435,-0.567 0.15992,-0.37072 0.22534,-0.88683 0.0654,-0.52339 0.0654,-1.17034 0,-1.56287 -0.34892,-2.33341 -0.34165,-0.7778 -1.01768,-0.7778 -0.49431,0 -0.79234,0.31258 -0.29804,0.31257 -0.43615,0.93772 -0.13812,0.62515 -0.13812,1.60649 z" />
      <path
         inkscape:connector-curvature="0"
         id="path4316"
         d="m 314.90768,434.65116 q 0,0.55245 0.0145,0.80687 0.0218,0.25443 0.0872,0.40708 0.0654,0.15265 0.21081,0.25442 0.14538,0.0945 0.48703,0.16719 l 0,0.48703 -1.97721,0.0654 -0.87957,0 0.0654,-1.04676 -0.10904,-0.007 q -0.52338,0.53065 -1.10491,0.82141 -0.57426,0.2835 -1.10491,0.2835 -1.32299,0 -1.98449,-0.90865 -0.65422,-0.90864 -0.65422,-2.7332 0,-1.23576 0.3998,-2.07899 0.39981,-0.85049 1.18488,-1.28664 0.79234,-0.43615 1.90452,-0.43615 0.31984,0 0.62515,0.0436 0.31257,0.0363 0.73418,0.15266 l 0,-0.6615 q 0,-0.7778 -0.0218,-1.09764 -0.0218,-0.32712 -0.0945,-0.49431 -0.0654,-0.17446 -0.20354,-0.26896 -0.13811,-0.0945 -0.50157,-0.16719 l 0,-0.48703 2.01356,-0.10177 0.90864,0 0,8.28686 z m -2.10079,-2.70414 q 0,-0.88684 -0.29803,-1.31572 -0.29804,-0.42888 -0.91592,-0.42888 -0.45069,0 -0.7778,0.32712 -0.31984,0.31984 -0.48703,0.93045 -0.15993,0.61061 -0.15993,1.44656 0,1.43203 0.31258,2.13714 0.31257,0.70511 0.97407,0.70511 0.31257,0 0.61788,-0.15265 0.31257,-0.15992 0.52338,-0.47977 0.2108,-0.32711 0.2108,-0.74872 l 0,-2.42064 z" />
      <path
         inkscape:connector-curvature="0"
         id="path4318"
         d="m 316.62321,429.56274 2.82771,0 0,4.03439 q 0,0.69784 0.0436,1.09037 0.0436,0.39254 0.16719,0.62515 0.12358,0.22535 0.29804,0.33438 0.18173,0.10177 0.45796,0.10177 0.26895,0 0.56699,-0.16719 0.29804,-0.16719 0.50157,-0.46523 0.21081,-0.3053 0.21081,-0.64695 l 0,-2.8059 q 0,-0.53065 -0.0218,-0.78507 -0.0218,-0.26169 -0.0872,-0.40708 -0.0582,-0.14538 -0.189,-0.23988 -0.13084,-0.10177 -0.42888,-0.189 l 0,-0.47976 2.83498,0 0,5.08842 q 0,0.55245 0.0145,0.80687 0.0218,0.25443 0.0872,0.40708 0.0654,0.15265 0.2108,0.25442 0.14539,0.0945 0.48704,0.16719 l 0,0.48703 -1.97722,0.0654 -0.87957,0 0.0654,-1.04676 -0.0872,-0.0218 q -0.67604,0.62515 -1.20669,0.8723 -0.53065,0.24715 -1.06856,0.24715 -0.77054,0 -1.23576,-0.2835 -0.45796,-0.29076 -0.6615,-0.84322 -0.20354,-0.55973 -0.20354,-1.4393 l 0,-2.66051 q 0,-0.40708 -0.0145,-0.62515 -0.007,-0.21808 -0.0291,-0.33438 -0.0218,-0.12358 -0.0654,-0.21808 -0.0363,-0.10177 -0.10904,-0.18173 -0.0654,-0.08 -0.189,-0.14538 -0.11631,-0.0654 -0.31984,-0.11631 l 0,-0.47976 z" />
      <path
         inkscape:connector-curvature="0"
         id="path4320"
         d="m 331.21971,434.91285 0.55972,0.67603 q -0.71238,0.69784 -1.38114,1.00315 -0.66149,0.29803 -1.44656,0.29803 -1.57742,0 -2.4061,-0.92318 -0.82869,-0.93046 -0.82869,-2.69687 0,-1.19214 0.45069,-2.05717 0.45796,-0.8723 1.30845,-1.31572 0.8505,-0.45069 1.94814,-0.45069 0.5888,0 1.17034,0.0872 0.5888,0.08 1.06857,0.22534 l 0,1.75187 -1.4393,0 q -0.10904,-0.6833 -0.32711,-0.99587 -0.21808,-0.31258 -0.62515,-0.31258 -0.26896,0 -0.51611,0.13812 -0.23989,0.13084 -0.42888,0.46522 -0.18173,0.32712 -0.29077,0.88684 -0.10904,0.55246 -0.10904,1.40295 0,0.8505 0.15992,1.4393 0.15993,0.58153 0.51612,0.90138 0.35618,0.31257 0.93772,0.31257 0.42161,0 0.79234,-0.18173 0.378,-0.18173 0.88684,-0.65422 z" />
      <path
         inkscape:connector-curvature="0"
         id="path4322"
         d="m 337.63112,435.90145 q -0.63969,0.54519 -1.16307,0.77054 -0.52338,0.21807 -1.10492,0.21807 -1.0831,0 -1.62102,-0.58153 -0.53065,-0.58881 -0.53065,-1.77368 l 0,-4.06347 -0.90865,0 0,-0.50157 q 0.44342,-0.0727 0.65423,-0.21808 0.2108,-0.14538 0.32711,-0.38526 0.11631,-0.24715 0.18173,-0.63969 0.0727,-0.39253 0.10904,-0.98134 l 1.73733,0 0,1.8173 2.07171,0 0,0.90864 -2.07171,0 0,3.2784 q 0,0.82142 0.0727,1.21395 0.08,0.39254 0.26169,0.58153 0.18173,0.18173 0.45069,0.18173 0.20354,0 0.36346,-0.0363 0.15992,-0.0364 0.33438,-0.13085 0.18173,-0.0945 0.378,-0.26896 l 0.45796,0.61061 z" />
      <path
         inkscape:connector-curvature="0"
         id="path4324"
         d="m 340.85136,426.66234 0,1.78094 -1.99175,0 0,-1.78094 1.99175,0 z m -2.76228,9.63165 q 0.35619,-0.0945 0.48703,-0.24715 0.13812,-0.15266 0.18173,-0.41435 0.0509,-0.26169 0.0509,-0.95226 l 0,-3.38016 q 0,-0.35619 -0.0364,-0.57427 -0.0291,-0.21807 -0.12358,-0.34892 -0.0872,-0.13084 -0.24715,-0.19627 -0.15265,-0.0727 -0.3998,-0.12357 l 0,-0.4943 1.99902,-0.0582 0.90865,0 0,5.16838 q 0,0.40708 0.007,0.63242 0.0145,0.21808 0.0363,0.34165 0.0218,0.11631 0.0582,0.21081 0.0436,0.0945 0.10904,0.17446 0.0654,0.08 0.189,0.14538 0.12358,0.0654 0.32711,0.11631 l 0,0.47976 -3.54735,0 0,-0.47976 z" />
      <path
         inkscape:connector-curvature="0"
         id="path4326"
         d="m 346.30324,436.89006 q -1.06857,0 -1.84637,-0.37073 -0.77053,-0.37799 -1.20668,-1.19941 -0.43615,-0.82869 -0.43615,-2.10079 0,-0.97407 0.26895,-1.68645 0.26896,-0.71238 0.74873,-1.1776 0.47976,-0.46523 1.14126,-0.68331 0.66876,-0.22534 1.44656,-0.22534 1.75914,0 2.65325,0.93045 0.89411,0.92319 0.89411,2.7114 0,1.26484 -0.44342,2.1226 -0.44342,0.8505 -1.26483,1.26484 -0.82142,0.41434 -1.95541,0.41434 z m -1.27938,-3.83085 q 0,1.54106 0.34165,2.31159 0.34893,0.76327 1.04677,0.76327 0.38526,0 0.63968,-0.19627 0.26169,-0.19627 0.41435,-0.567 0.15992,-0.37072 0.22534,-0.88683 0.0654,-0.52339 0.0654,-1.17034 0,-1.56287 -0.34892,-2.33341 -0.34165,-0.7778 -1.01768,-0.7778 -0.49431,0 -0.79234,0.31258 -0.29804,0.31257 -0.43615,0.93772 -0.13812,0.62515 -0.13812,1.60649 z" />
      <path
         inkscape:connector-curvature="0"
         id="path4328"
         d="m 359.16967,436.77375 -3.52554,0 0,-0.47976 q 0.33438,-0.08 0.46522,-0.23261 0.13085,-0.15993 0.17446,-0.42162 0.0509,-0.26896 0.0509,-0.95953 l 0,-1.94087 q 0,-0.51611 -0.0218,-0.84322 -0.0218,-0.33438 -0.0727,-0.54519 -0.0436,-0.2108 -0.13085,-0.34892 -0.08,-0.14538 -0.18173,-0.23261 -0.10176,-0.0945 -0.23261,-0.13812 -0.13085,-0.0436 -0.33438,-0.0436 -0.27623,0 -0.57427,0.17446 -0.29803,0.16719 -0.50157,0.47249 -0.20354,0.29804 -0.20354,0.63969 l 0,2.79863 q 0,0.69057 0.0436,0.95953 0.0436,0.26896 0.17446,0.42889 0.13811,0.15265 0.47976,0.23261 l 0,0.47976 -3.51101,0 0,-0.47976 q 0.34892,-0.0945 0.47977,-0.24715 0.13811,-0.15266 0.18173,-0.41435 0.0509,-0.26169 0.0509,-0.95226 l 0,-2.98763 q 0,-0.53792 -0.0218,-0.79234 -0.0145,-0.26169 -0.0872,-0.41434 -0.0654,-0.15992 -0.21081,-0.25442 -0.13811,-0.10177 -0.48704,-0.17446 l 0,-0.4943 1.99176,-0.0582 0.91591,0 -0.10903,1.04676 0.0872,0.0218 q 0.45068,-0.3998 0.79234,-0.62515 0.34165,-0.23261 0.71237,-0.36346 0.378,-0.13811 0.79234,-0.13811 0.59608,0 0.98861,0.17446 0.39254,0.16719 0.63242,0.4943 0.24715,0.32712 0.34892,0.79961 0.10904,0.4725 0.10904,1.09765 l 0,2.66051 q 0,0.31985 0.007,0.60334 0.0145,0.27623 0.0581,0.44342 0.0436,0.1672 0.11631,0.27623 0.08,0.10177 0.21807,0.17446 0.13812,0.0727 0.33438,0.12358 l 0,0.47976 z" />
      <path
         inkscape:connector-curvature="0"
         id="path4330"
         d="m 368.51056,435.90145 q -0.63969,0.54519 -1.16307,0.77054 -0.52338,0.21807 -1.10491,0.21807 -1.08311,0 -1.62103,-0.58153 -0.53065,-0.58881 -0.53065,-1.77368 l 0,-4.06347 -0.90864,0 0,-0.50157 q 0.44342,-0.0727 0.65422,-0.21808 0.21081,-0.14538 0.32712,-0.38526 0.1163,-0.24715 0.18172,-0.63969 0.0727,-0.39253 0.10904,-0.98134 l 1.73733,0 0,1.8173 2.07172,0 0,0.90864 -2.07172,0 0,3.2784 q 0,0.82142 0.0727,1.21395 0.08,0.39254 0.26169,0.58153 0.18173,0.18173 0.45069,0.18173 0.20353,0 0.36345,-0.0363 0.15993,-0.0364 0.33439,-0.13085 0.18173,-0.0945 0.37799,-0.26896 l 0.45796,0.61061 z" />
      <path
         inkscape:connector-curvature="0"
         id="path4332"
         d="m 372.2978,436.89006 q -1.06857,0 -1.84637,-0.37073 -0.77053,-0.37799 -1.20668,-1.19941 -0.43615,-0.82869 -0.43615,-2.10079 0,-0.97407 0.26895,-1.68645 0.26896,-0.71238 0.74873,-1.1776 0.47977,-0.46523 1.14126,-0.68331 0.66876,-0.22534 1.44657,-0.22534 1.75913,0 2.65324,0.93045 0.89411,0.92319 0.89411,2.7114 0,1.26484 -0.44342,2.1226 -0.44342,0.8505 -1.26483,1.26484 -0.82142,0.41434 -1.95541,0.41434 z m -1.27938,-3.83085 q 0,1.54106 0.34166,2.31159 0.34892,0.76327 1.04676,0.76327 0.38526,0 0.63968,-0.19627 0.26169,-0.19627 0.41435,-0.567 0.15992,-0.37072 0.22534,-0.88683 0.0654,-0.52339 0.0654,-1.17034 0,-1.56287 -0.34892,-2.33341 -0.34165,-0.7778 -1.01768,-0.7778 -0.49431,0 -0.79234,0.31258 -0.29804,0.31257 -0.43615,0.93772 -0.13812,0.62515 -0.13812,1.60649 z" />
      <path
         inkscape:connector-curvature="0"
         id="path4334"
         d="m 386.87976,431.5763 q 1.01768,0.31984 1.54833,0.93045 0.53792,0.60334 0.53792,1.45383 0,0.72692 -0.24715,1.26484 -0.23988,0.53792 -0.74145,0.88684 -0.49431,0.34165 -1.17034,0.50157 -0.66876,0.15992 -1.70826,0.15992 l -4.47781,0 0,-0.47976 q 0.26896,-0.0727 0.42162,-0.15265 0.15992,-0.0872 0.23261,-0.23262 0.08,-0.15265 0.10177,-0.37799 0.0218,-0.23262 0.0218,-0.58154 l 0,-6.26602 q 0,-0.34166 -0.0218,-0.57427 -0.0145,-0.23261 -0.0945,-0.378 -0.0727,-0.14538 -0.23262,-0.23261 -0.15265,-0.0945 -0.42888,-0.16719 l 0,-0.47977 4.76131,0 q 0.81415,0 1.33026,0.08 0.6833,0.10904 1.18487,0.378 0.45069,0.23988 0.70511,0.6833 0.25443,0.44342 0.25443,1.05403 0,1.64284 -1.97722,2.46425 l 0,0.0654 z m -2.26071,-0.378 q 0.72692,0 1.14126,-0.21081 0.41434,-0.2108 0.62515,-0.59607 0.21807,-0.39253 0.21807,-1.07584 0,-0.60334 -0.23261,-0.95226 -0.23261,-0.35619 -0.6615,-0.50884 -0.42888,-0.15265 -1.06856,-0.15265 -0.50885,0 -0.98861,0.0363 l 0,3.46013 0.9668,0 z m -0.9668,4.70315 q 0.42888,0.0218 0.98861,0.0218 0.69057,0 1.13399,-0.16719 0.45069,-0.17446 0.69784,-0.59607 0.24715,-0.42888 0.24715,-1.17034 0,-0.52338 -0.13085,-0.89411 -0.13084,-0.37799 -0.39253,-0.60334 -0.26169,-0.23261 -0.62515,-0.33438 -0.36346,-0.10904 -0.90865,-0.10904 l -1.01041,0 0,3.85266 z" />
      <path
         inkscape:connector-curvature="0"
         id="path4336"
         d="m 393.78548,436.89006 q -1.06857,0 -1.84637,-0.37073 -0.77054,-0.37799 -1.20669,-1.19941 -0.43615,-0.82869 -0.43615,-2.10079 0,-0.97407 0.26896,-1.68645 0.26896,-0.71238 0.74873,-1.1776 0.47976,-0.46523 1.14126,-0.68331 0.66876,-0.22534 1.44656,-0.22534 1.75914,0 2.65325,0.93045 0.89411,0.92319 0.89411,2.7114 0,1.26484 -0.44342,2.1226 -0.44342,0.8505 -1.26484,1.26484 -0.82141,0.41434 -1.9554,0.41434 z m -1.27938,-3.83085 q 0,1.54106 0.34165,2.31159 0.34892,0.76327 1.04676,0.76327 0.38527,0 0.63969,-0.19627 0.26169,-0.19627 0.41434,-0.567 0.15993,-0.37072 0.22535,-0.88683 0.0654,-0.52339 0.0654,-1.17034 0,-1.56287 -0.34892,-2.33341 -0.34165,-0.7778 -1.01768,-0.7778 -0.49431,0 -0.79234,0.31258 -0.29804,0.31257 -0.43615,0.93772 -0.13812,0.62515 -0.13812,1.60649 z" />
      <path
         inkscape:connector-curvature="0"
         id="path4338"
         d="m 402.27587,436.89006 q -1.06857,0 -1.84637,-0.37073 -0.77053,-0.37799 -1.20668,-1.19941 -0.43615,-0.82869 -0.43615,-2.10079 0,-0.97407 0.26896,-1.68645 0.26896,-0.71238 0.74872,-1.1776 0.47977,-0.46523 1.14126,-0.68331 0.66877,-0.22534 1.44657,-0.22534 1.75914,0 2.65325,0.93045 0.8941,0.92319 0.8941,2.7114 0,1.26484 -0.44342,2.1226 -0.44341,0.8505 -1.26483,1.26484 -0.82142,0.41434 -1.95541,0.41434 z m -1.27937,-3.83085 q 0,1.54106 0.34165,2.31159 0.34892,0.76327 1.04676,0.76327 0.38527,0 0.63969,-0.19627 0.26169,-0.19627 0.41434,-0.567 0.15992,-0.37072 0.22534,-0.88683 0.0654,-0.52339 0.0654,-1.17034 0,-1.56287 -0.34892,-2.33341 -0.34166,-0.7778 -1.01769,-0.7778 -0.4943,0 -0.79234,0.31258 -0.29803,0.31257 -0.43615,0.93772 -0.13811,0.62515 -0.13811,1.60649 z" />
      <path
         inkscape:connector-curvature="0"
         id="path4340"
         d="m 412.21282,435.90145 q -0.63968,0.54519 -1.16306,0.77054 -0.52338,0.21807 -1.10492,0.21807 -1.0831,0 -1.62102,-0.58153 -0.53065,-0.58881 -0.53065,-1.77368 l 0,-4.06347 -0.90865,0 0,-0.50157 q 0.44342,-0.0727 0.65423,-0.21808 0.2108,-0.14538 0.32711,-0.38526 0.11631,-0.24715 0.18173,-0.63969 0.0727,-0.39253 0.10904,-0.98134 l 1.73733,0 0,1.8173 2.07171,0 0,0.90864 -2.07171,0 0,3.2784 q 0,0.82142 0.0727,1.21395 0.08,0.39254 0.26169,0.58153 0.18173,0.18173 0.45069,0.18173 0.20354,0 0.36346,-0.0363 0.15992,-0.0364 0.33438,-0.13085 0.18173,-0.0945 0.378,-0.26896 l 0.45795,0.61061 z" />
      <path
         inkscape:connector-curvature="0"
         id="path4342"
         d="m 413.61578,434.81108 q 0.17446,0.66149 0.55246,0.99587 0.37799,0.32712 1.01041,0.32712 0.54519,0 0.82142,-0.24715 0.2835,-0.24716 0.2835,-0.71965 0,-0.29804 -0.13085,-0.50884 -0.12357,-0.21081 -0.42161,-0.39981 -0.29077,-0.19627 -1.00315,-0.50884 -0.3998,-0.17446 -0.75599,-0.38527 -0.34892,-0.2108 -0.61061,-0.47249 -0.26169,-0.26896 -0.41434,-0.59608 -0.15266,-0.32711 -0.15266,-0.72691 0,-0.65423 0.378,-1.13399 0.378,-0.47977 1.07584,-0.73419 0.70511,-0.25442 1.60649,-0.25442 0.53065,0 1.03949,0.0436 0.50884,0.0436 1.31572,0.189 l 0,1.69372 -0.95953,0 q -0.16719,-0.46523 -0.37073,-0.71965 -0.19627,-0.25442 -0.43615,-0.34892 -0.23988,-0.10177 -0.57427,-0.10177 -0.47976,0 -0.76326,0.21808 -0.2835,0.21807 -0.2835,0.61061 0,0.27623 0.10177,0.47249 0.10177,0.19627 0.36346,0.38527 0.26169,0.18173 1.01041,0.4943 0.68331,0.2835 1.11219,0.59608 0.42888,0.3053 0.65422,0.71238 0.22535,0.3998 0.22535,0.93772 0,0.5888 -0.21808,1.01768 -0.21807,0.42161 -0.61061,0.69784 -0.39253,0.27623 -0.94499,0.41435 -0.54519,0.13084 -1.20668,0.13084 -1.19942,0 -2.66779,-0.34165 l 0,-1.73733 0.97407,0 z" />
      <path
         inkscape:connector-curvature="0"
         id="path4344"
         d="m 424.48319,435.90145 q -0.63968,0.54519 -1.16306,0.77054 -0.52338,0.21807 -1.10492,0.21807 -1.0831,0 -1.62102,-0.58153 -0.53065,-0.58881 -0.53065,-1.77368 l 0,-4.06347 -0.90865,0 0,-0.50157 q 0.44342,-0.0727 0.65423,-0.21808 0.2108,-0.14538 0.32711,-0.38526 0.11631,-0.24715 0.18173,-0.63969 0.0727,-0.39253 0.10904,-0.98134 l 1.73733,0 0,1.8173 2.07171,0 0,0.90864 -2.07171,0 0,3.2784 q 0,0.82142 0.0727,1.21395 0.08,0.39254 0.26169,0.58153 0.18173,0.18173 0.45069,0.18173 0.20354,0 0.36346,-0.0363 0.15992,-0.0364 0.33438,-0.13085 0.18173,-0.0945 0.378,-0.26896 l 0.45795,0.61061 z" />
      <path
         inkscape:connector-curvature="0"
         id="path4346"
         d="m 427.65981,430.60223 0.0945,0.0218 q 0.53065,-0.62514 1.09038,-0.90137 0.55973,-0.27623 1.21395,-0.27623 0.44342,0 0.93045,0.0945 l 0,2.00629 -1.31572,0 q -0.12357,-0.42161 -0.32711,-0.64696 -0.19627,-0.22534 -0.53065,-0.22534 -0.15992,0 -0.35619,0.10177 -0.189,0.0945 -0.35619,0.27623 -0.15992,0.17446 -0.23261,0.36345 -0.0654,0.18173 -0.0872,0.37073 -0.0218,0.189 -0.0218,0.567 l 0,2.31886 q 0,0.69057 0.0509,0.9668 0.0509,0.27623 0.20353,0.43615 0.15266,0.15266 0.51611,0.21808 l 0,0.47976 -3.5837,0 0,-0.47976 q 0.34892,-0.0945 0.47977,-0.24715 0.13811,-0.15266 0.18173,-0.41435 0.0509,-0.26169 0.0509,-0.95226 l 0,-2.98763 q 0,-0.53792 -0.0218,-0.79234 -0.0145,-0.26169 -0.0872,-0.41434 -0.0654,-0.15992 -0.2108,-0.25442 -0.13812,-0.10177 -0.48704,-0.17446 l 0,-0.4943 1.99176,-0.0582 0.91591,0 -0.10177,1.09765 z" />
      <path
         inkscape:connector-curvature="0"
         id="path4348"
         d="m 435.84491,435.82149 -0.10904,-0.0363 q -0.59607,0.58153 -1.16306,0.84322 -0.55973,0.26169 -1.19215,0.26169 -0.62515,0 -1.09037,-0.22534 -0.45796,-0.23262 -0.69784,-0.63969 -0.23262,-0.40707 -0.23262,-0.93772 0,-1.06857 1.04676,-1.67918 1.05403,-0.61788 3.19117,-0.7778 l 0,-0.69058 q 0,-0.67603 -0.15265,-1.03949 -0.15266,-0.37072 -0.39254,-0.51611 -0.23988,-0.15265 -0.57426,-0.15265 -0.33439,0 -0.58154,0.11631 -0.23988,0.1163 -0.43615,0.44342 -0.19626,0.31984 -0.29076,0.8941 l -1.37388,0 0,-1.32299 q 0.66877,-0.29803 1.11219,-0.45795 0.44342,-0.15993 0.8723,-0.26169 0.43615,-0.10904 0.7778,-0.15266 0.34165,-0.0436 0.6833,-0.0436 0.87957,0 1.40295,0.23261 0.53065,0.23262 0.79234,0.756 0.26169,0.52338 0.26169,1.44656 l 0,2.83498 q 0,0.47976 0.0218,0.74145 0.0218,0.26169 0.0654,0.39254 0.0509,0.12358 0.12358,0.20354 0.0727,0.0727 0.17446,0.12357 0.10903,0.0436 0.3998,0.11631 l 0,0.47976 -2.70413,0 0.0654,-0.95226 z m -0.23988,-2.47879 q -1.12672,0.0291 -1.67191,0.42162 -0.53792,0.39253 -0.53792,1.14853 0,0.45068 0.24715,0.69057 0.24715,0.23261 0.6833,0.23261 0.33439,0 0.63242,-0.17446 0.29804,-0.18173 0.4725,-0.47976 0.17446,-0.29804 0.17446,-0.63242 l 0,-1.20669 z" />
      <path
         inkscape:connector-curvature="0"
         id="path4350"
         d="m 442.23451,438.07494 q 0,0.54518 0.0582,0.77053 0.0582,0.22534 0.20354,0.35619 0.15265,0.13084 0.53065,0.21807 l 0,0.47977 -3.62005,0 0,-0.47977 q 0.34165,-0.10177 0.4725,-0.22534 0.13811,-0.12358 0.19627,-0.34892 0.0581,-0.21808 0.0581,-0.77053 l 0,-6.36053 q 0,-0.51611 -0.0145,-0.73419 -0.007,-0.21807 -0.0509,-0.37072 -0.0364,-0.15266 -0.10904,-0.24716 -0.0727,-0.10176 -0.21807,-0.17446 -0.13812,-0.0727 -0.41435,-0.13084 l 0,-0.4943 2.01356,-0.0582 0.89411,0 -0.10904,1.05403 0.0872,0.0218 q 0.62515,-0.60334 1.16307,-0.86503 0.54519,-0.26896 1.11945,-0.26896 1.29392,0 1.94087,0.91591 0.64696,0.90865 0.64696,2.72594 0,1.25757 -0.38527,2.10806 -0.37799,0.84323 -1.13399,1.27211 -0.75599,0.42161 -1.86091,0.42161 -0.74872,0 -1.46837,-0.189 l 0,1.37388 z m 0,-3.68547 q 0,0.8941 0.30531,1.32299 0.31257,0.42161 0.95953,0.42161 0.66876,0 1.01768,-0.69784 0.35619,-0.70511 0.35619,-2.00629 0,-1.44657 -0.31984,-2.14441 -0.31258,-0.69784 -0.98134,-0.69784 -0.32711,0 -0.63969,0.16719 -0.3053,0.16719 -0.50157,0.47976 -0.19627,0.30531 -0.19627,0.69058 l 0,2.46425 z" />
    </g>
    <g
       id="g4583"
       transform="translate(-0.65942149,0)">
      <g
         id="g4554">
        <g
           id="g10162"
           transform="matrix(0.09235118,0,0,0.08256046,297.05011,457.46883)">
          <g
             transform="translate(0,-483.41993)"
             id="g9993">
            <g
               id="g9989">
              <path
                 style="fill:#0070bb;fill-opacity:1;fill-rule:evenodd;stroke:none;stroke-width:1px;stroke-linecap:butt;stroke-linejoin:miter;stroke-opacity:1"
                 d="m 693.19731,616.96022 0,0.008 -179.95313,0.375 33.97656,360.87886 146.86719,40.93162 0,0.4277 0.76563,-0.2129 0.76562,0.2129 0,-0.4277 146.86719,-40.93162 33.97656,-360.87886 -179.95117,-0.375 0,-0.008 -1.6582,0.004 -1.65625,-0.004 z"
                 id="path9983"
                 inkscape:connector-curvature="0" />
              <path
                 style="fill:#0070bb;fill-opacity:1;fill-rule:evenodd;stroke:none;stroke-width:0.83680797px;stroke-linecap:butt;stroke-linejoin:miter;stroke-opacity:1"
                 d="m 692.50395,647.78443 0,0.006 -147.91797,0.32032 27.92773,307.43363 120.72266,34.871 0,0.3633 0.62891,-0.1816 0.19921,0.057 0,-342.86525 -0.19921,0 -1.36133,-0.004 z"
                 id="path9985"
                 inkscape:connector-curvature="0" />
            </g>
            <path
               inkscape:connector-curvature="0"
               id="path9987"
               d="m 694.97465,647.78443 0,342.49215 120.24219,-34.7324 27.92773,-307.43357 -147.91601,-0.32032 0,-0.006 -0.25391,0 z"
               style="fill:#28aae1;fill-opacity:1;fill-rule:evenodd;stroke:none;stroke-width:0.83680797px;stroke-linecap:butt;stroke-linejoin:miter;stroke-opacity:1" />
          </g>
          <g
             transform="scale(1.0127582,0.98740252)"
             style="font-style:normal;font-weight:normal;font-size:99.08501434px;line-height:125%;font-family:sans-serif;letter-spacing:0px;word-spacing:0px;fill:#000000;fill-opacity:1;stroke:none;stroke-width:1px;stroke-linecap:butt;stroke-linejoin:miter;stroke-opacity:1"
             id="text10068">
            <path
               d="m 651.63395,98.132848 q -5.12844,2.660982 -10.6923,4.015662 -5.56387,1.35468 -11.61156,1.35468 -18.04628,0 -28.59344,-10.063344 -10.54716,-10.111727 -10.54716,-27.38391 0,-17.320565 10.54716,-27.38391 10.54716,-10.111727 28.59344,-10.111727 6.04769,0 11.61156,1.354681 5.56386,1.354681 10.6923,4.015662 l 0,14.949873 q -5.17682,-3.531847 -10.20849,-5.176817 -5.03167,-1.64497 -10.59554,-1.64497 -9.96658,0 -15.6756,6.386354 -5.70901,6.386353 -5.70901,17.610854 0,11.176118 5.70901,17.562472 5.70902,6.386354 15.6756,6.386354 5.56387,0 10.59554,-1.64497 5.03167,-1.64497 10.20849,-5.176817 l 0,14.949873 z"
               style="font-style:normal;font-variant:normal;font-weight:bold;font-stretch:normal;font-size:99.08524323px;line-height:125%;font-family:'Galano Grotesque DEMO';-inkscape-font-specification:'Galano Grotesque DEMO, Bold';text-align:start;writing-mode:lr-tb;text-anchor:start;fill:#000000"
               id="path4381"
               inkscape:connector-curvature="0" />
            <path
               d="m 719.31962,32.140528 0,15.288543 q -5.95092,-2.660981 -11.61155,-4.015662 -5.66064,-1.354681 -10.69231,-1.354681 -6.67664,0 -9.86982,1.838496 -3.19317,1.838496 -3.19317,5.709013 0,2.902888 2.12878,4.547858 2.17717,1.596588 7.8378,2.757744 l 7.93456,1.596588 q 12.04698,2.419073 17.12704,7.353983 5.08005,4.934909 5.08005,14.030625 0,11.950222 -7.11207,17.80438 -7.0637,5.805775 -21.62652,5.805775 -6.87017,0 -13.78872,-1.3063 -6.91855,-1.3063 -13.8371,-3.870516 l 0,-15.723977 q 6.91855,3.676992 13.35329,5.563869 6.48311,1.838496 12.48242,1.838496 6.09606,0 9.33762,-2.032022 3.24156,-2.032022 3.24156,-5.805776 0,-3.386703 -2.22555,-5.225198 -2.17717,-1.838496 -8.75705,-3.28994 l -7.20883,-1.596588 q -10.83745,-2.322311 -15.86912,-7.402365 -4.9833,-5.080054 -4.9833,-13.691955 0,-10.789067 6.96694,-16.594843 6.96693,-5.805776 20.02992,-5.805776 5.95092,0 12.24051,0.919248 6.28959,0.870866 13.01462,2.660981 z"
               style="font-style:normal;font-variant:normal;font-weight:bold;font-stretch:normal;font-size:99.08524323px;line-height:125%;font-family:'Galano Grotesque DEMO';-inkscape-font-specification:'Galano Grotesque DEMO, Bold';text-align:start;writing-mode:lr-tb;text-anchor:start;fill:#000000"
               id="path4383"
               inkscape:connector-curvature="0" />
            <path
               d="m 786.27957,32.140528 0,15.288543 q -5.95092,-2.660981 -11.61155,-4.015662 -5.66063,-1.354681 -10.6923,-1.354681 -6.67665,0 -9.86982,1.838496 -3.19318,1.838496 -3.19318,5.709013 0,2.902888 2.12878,4.547858 2.17717,1.596588 7.8378,2.757744 l 7.93456,1.596588 q 12.04699,2.419073 17.12704,7.353983 5.08006,4.934909 5.08006,14.030625 0,11.950222 -7.11208,17.80438 -7.06369,5.805775 -21.62652,5.805775 -6.87016,0 -13.78871,-1.3063 -6.91855,-1.3063 -13.8371,-3.870516 l 0,-15.723977 q 6.91855,3.676992 13.35328,5.563869 6.48312,1.838496 12.48242,1.838496 6.09606,0 9.33762,-2.032022 3.24156,-2.032022 3.24156,-5.805776 0,-3.386703 -2.22555,-5.225198 -2.17716,-1.838496 -8.75704,-3.28994 L 754.88,72.055238 q -10.83745,-2.322311 -15.86912,-7.402365 -4.98329,-5.080054 -4.98329,-13.691955 0,-10.789067 6.96693,-16.594843 6.96693,-5.805776 20.02993,-5.805776 5.95092,0 12.24051,0.919248 6.28959,0.870866 13.01461,2.660981 z"
               style="font-style:normal;font-variant:normal;font-weight:bold;font-stretch:normal;font-size:99.08524323px;line-height:125%;font-family:'Galano Grotesque DEMO';-inkscape-font-specification:'Galano Grotesque DEMO, Bold';text-align:start;writing-mode:lr-tb;text-anchor:start;fill:#000000"
               id="path4385"
               inkscape:connector-curvature="0" />
          </g>
          <g
             style="font-style:normal;font-weight:normal;font-size:360.23855591px;line-height:125%;font-family:sans-serif;letter-spacing:0px;word-spacing:0px;fill:#ffffff;fill-opacity:1;stroke:none;stroke-width:1px;stroke-linecap:butt;stroke-linejoin:miter;stroke-opacity:1"
             id="text10087">
            <path
               d="m 737.72075,313.93308 q 26.56061,6.86003 40.28067,23.92214 13.89595,16.88622 13.89595,43.09504 0,39.04939 -29.90268,59.45357 -29.90268,20.22828 -87.24547,20.22828 -20.22828,0 -40.63247,-3.34206 -20.22828,-3.16617 -40.10477,-9.6744 l 0,-52.24174 q 18.997,9.4985 37.6422,14.42365 18.8211,4.74924 36.93861,4.74924 26.91241,0 41.16016,-9.3226 14.42364,-9.3226 14.42364,-26.73651 0,-17.94161 -14.77544,-27.08831 -14.59954,-9.3226 -43.27094,-9.3226 l -27.08831,0 0,-43.62273 28.4955,0 q 25.50522,0 37.99399,-7.91542 12.48877,-8.09131 12.48877,-24.44984 0,-15.12724 -12.13697,-23.39445 -12.13697,-8.26721 -34.30014,-8.26721 -16.35852,0 -33.06884,3.69386 -16.71032,3.69386 -33.24475,10.90568 l 0,-49.60327 q 20.05239,-5.62874 39.75298,-8.44311 19.70059,-2.81437 38.69758,-2.81437 51.18636,0 76.51569,16.88622 25.50522,16.71033 25.50522,50.48276 0,23.04266 -12.13697,37.8181 -12.13697,14.59954 -35.88321,20.58008 z"
               style="font-style:normal;font-variant:normal;font-weight:bold;font-stretch:normal;font-size:360.23934937px;line-height:125%;font-family:'Galano Grotesque DEMO';-inkscape-font-specification:'Galano Grotesque DEMO, Bold';text-align:start;writing-mode:lr-tb;text-anchor:start;fill:#ffffff"
               id="path4269"
               inkscape:connector-curvature="0" />
          </g>
        </g>
      </g>
      <g
         id="g4568">
        <g
           id="g10151"
           transform="matrix(0.09235118,0,0,0.0825471,268.72762,457.47115)">
          <g
             transform="translate(-14.306815,-466.80632)"
             id="g10003">
            <g
               id="g9999">
              <path
                 inkscape:connector-curvature="0"
                 id="path9977"
                 d="m 252.93613,600.34659 0,0.008 -179.953127,0.375 33.976557,360.87886 146.86719,40.93165 0,0.4277 0.76563,-0.2129 0.76562,0.2129 0,-0.4277 146.86719,-40.93165 33.97656,-360.87886 -179.95117,-0.375 0,-0.008 -1.6582,0.004 -1.65625,-0.004 z"
                 style="fill:#e44d26;fill-opacity:1;fill-rule:evenodd;stroke:none;stroke-width:1px;stroke-linecap:butt;stroke-linejoin:miter;stroke-opacity:1" />
              <path
                 inkscape:connector-curvature="0"
                 id="path9979"
                 d="m 252.24277,631.1708 0,0.006 -147.91797,0.32032 27.92773,307.43363 120.72266,34.871 0,0.3633 0.62891,-0.1816 0.19921,0.057 0,-342.86525 -0.19921,0 -1.36133,-0.004 z"
                 style="fill:#e44d26;fill-opacity:1;fill-rule:evenodd;stroke:none;stroke-width:0.83680797px;stroke-linecap:butt;stroke-linejoin:miter;stroke-opacity:1" />
            </g>
            <path
               style="fill:#f16529;fill-opacity:1;fill-rule:evenodd;stroke:none;stroke-width:0.83680797px;stroke-linecap:butt;stroke-linejoin:miter;stroke-opacity:1"
               d="m 254.71347,631.1708 0,342.49215 120.24219,-34.7324 27.92773,-307.43357 -147.91601,-0.32032 0,-0.006 -0.25391,0 z"
               id="path9981"
               inkscape:connector-curvature="0" />
          </g>
          <g
             transform="scale(1.0127582,0.98740252)"
             style="font-style:normal;font-weight:normal;font-size:99.08501434px;line-height:125%;font-family:sans-serif;letter-spacing:0px;word-spacing:0px;fill:#000000;fill-opacity:1;stroke:none;stroke-width:1px;stroke-linecap:butt;stroke-linejoin:miter;stroke-opacity:1"
             id="text8538">
            <path
               d="m 104.32256,28.380324 18.62687,0 0,27.529054 27.48067,0 0,-27.529054 18.62686,0 0,72.233526 -18.62686,0 0,-30.625465 -27.48067,0 0,30.625465 -18.62687,0 0,-72.233526 z"
               style="font-style:normal;font-variant:normal;font-weight:bold;font-stretch:normal;font-size:99.08524323px;line-height:125%;font-family:'Galano Grotesque DEMO';-inkscape-font-specification:'Galano Grotesque DEMO, Bold';text-align:start;writing-mode:lr-tb;text-anchor:start;fill:#000000"
               id="path4372"
               inkscape:connector-curvature="0" />
            <path
               d="m 178.73326,28.380324 66.5729,0 0,14.079007 -23.94883,0 0,58.154519 -18.62686,0 0,-58.154519 -23.99721,0 0,-14.079007 z"
               style="font-style:normal;font-variant:normal;font-weight:bold;font-stretch:normal;font-size:99.08524323px;line-height:125%;font-family:'Galano Grotesque DEMO';-inkscape-font-specification:'Galano Grotesque DEMO, Bold';text-align:start;writing-mode:lr-tb;text-anchor:start;fill:#000000"
               id="path4374"
               inkscape:connector-curvature="0" />
            <path
               d="m 254.88569,28.380324 23.70691,0 16.4497,38.656792 16.54646,-38.656792 23.65854,0 0,72.233526 -17.61085,0 0,-52.832558 -16.64323,38.947081 -11.80507,0 -16.64323,-38.947081 0,52.832558 -17.65923,0 0,-72.233526 z"
               style="font-style:normal;font-variant:normal;font-weight:bold;font-stretch:normal;font-size:99.08524323px;line-height:125%;font-family:'Galano Grotesque DEMO';-inkscape-font-specification:'Galano Grotesque DEMO, Bold';text-align:start;writing-mode:lr-tb;text-anchor:start;fill:#000000"
               id="path4376"
               inkscape:connector-curvature="0" />
            <path
               d="m 353.58388,28.380324 18.62687,0 0,58.154523 32.70587,0 0,14.079003 -51.33274,0 0,-72.233526 z"
               style="font-style:normal;font-variant:normal;font-weight:bold;font-stretch:normal;font-size:99.08524323px;line-height:125%;font-family:'Galano Grotesque DEMO';-inkscape-font-specification:'Galano Grotesque DEMO, Bold';text-align:start;writing-mode:lr-tb;text-anchor:start;fill:#000000"
               id="path4378"
               inkscape:connector-curvature="0" />
          </g>
          <g
             style="font-style:normal;font-weight:normal;font-size:360.23855591px;line-height:125%;font-family:sans-serif;letter-spacing:0px;word-spacing:0px;fill:#ffffff;fill-opacity:1;stroke:none;stroke-width:1px;stroke-linecap:butt;stroke-linejoin:miter;stroke-opacity:1"
             id="text10091">
            <path
               d="m 146.74587,192.91517 168.3345,0 0,49.77917 -114.33378,0 0,40.63247 q 7.73952,-2.11078 15.47903,-3.16617 7.91542,-1.23129 16.35853,-1.23129 48.02018,0 74.7567,24.09805 26.73651,23.92214 26.73651,66.84128 0,42.56735 -29.19908,66.66539 -29.02319,24.09804 -80.73724,24.09804 -22.33906,0 -44.32633,-4.39745 -21.81136,-4.22156 -43.44683,-13.01646 l 0,-53.29713 q 21.45957,12.31287 40.63246,18.4693 19.3488,6.15643 36.41091,6.15643 24.62574,0 38.69759,-11.96107 14.24775,-12.13697 14.24775,-32.71705 0,-20.75598 -14.24775,-32.71705 -14.07185,-11.96107 -38.69759,-11.96107 -14.59954,0 -31.13396,3.86976 -16.53443,3.69386 -35.53142,11.60927 l 0,-147.75442 z"
               style="font-style:normal;font-variant:normal;font-weight:bold;font-stretch:normal;font-size:360.23934937px;line-height:125%;font-family:'Galano Grotesque DEMO';-inkscape-font-specification:'Galano Grotesque DEMO, Bold';text-align:start;writing-mode:lr-tb;text-anchor:start;fill:#ffffff"
               id="path4266"
               inkscape:connector-curvature="0" />
          </g>
        </g>
      </g>
      <g
         id="g4538">
        <g
           id="layer1-42"
           transform="matrix(0.25758756,0,0,0.25758756,349.2891,358.46237)">
          <rect
             width="128.01605"
             height="128.54576"
             ry="20.679518"
             x="255.23856"
             y="425.32587"
             id="rect3050"
             style="fill:url(#linearGradient3834-3);fill-opacity:1;stroke:none" />
          <g
             transform="scale(1.0052013,0.99482561)"
             id="text3836"
             style="font-style:normal;font-variant:normal;font-weight:normal;font-stretch:normal;font-size:109.79650116px;line-height:100%;font-family:Sans;-inkscape-font-specification:Sans;text-align:center;letter-spacing:0px;word-spacing:0px;writing-mode:lr-tb;text-anchor:middle;fill:#ffffff;fill-opacity:1;stroke:none">
            <path
               d="m 318.55641,483.16526 c 3.25239,5e-5 5.71852,-0.71477 7.3984,-2.14446 1.67978,-1.42959 2.51969,-3.53831 2.51974,-6.32617 -5e-5,-2.752 -0.83996,-4.84285 -2.51974,-6.27255 -1.67988,-1.46532 -4.14601,-2.19801 -7.3984,-2.19808 l -11.41926,0 0,16.94126 11.41926,0 m 0.69695,35.00836 c 4.14592,10e-6 7.25538,-0.87564 9.32841,-2.62697 2.10867,-1.75129 3.16303,-4.39613 3.16309,-7.93451 -6e-5,-3.46686 -1.03655,-6.05808 -3.10947,-7.77368 -2.07303,-1.75128 -5.20037,-2.62693 -9.38203,-2.62697 l -12.11621,0 0,20.96213 12.11621,0 M 338.4463,489.3842 c 4.43183,1.28672 7.86296,3.6635 10.29343,7.13034 2.43031,3.46692 3.64551,7.7201 3.64558,12.75956 -7e-5,7.72008 -2.60917,13.47438 -7.82729,17.26292 -5.21825,3.78855 -13.15276,5.68283 -23.80353,5.68283 l -34.2578,0 0,-80.04208 30.98749,0 c 11.11541,8e-5 19.15714,1.67991 24.12521,5.03949 5.00367,3.35973 7.50554,8.73875 7.50562,16.13708 -8e-5,3.89583 -0.91147,7.21975 -2.73419,9.97175 -1.82286,2.71637 -4.4677,4.73574 -7.93452,6.05811"
               id="path3841"
               style="font-weight:bold;line-height:100%;font-family:Sans;-inkscape-font-specification:'Sans Bold';fill:#ffffff"
               inkscape:connector-curvature="0" />
          </g>
        </g>
        <g
           id="text10072-3-5"
           style="font-style:normal;font-weight:normal;font-size:5.75383997px;line-height:125%;font-family:sans-serif;letter-spacing:0px;word-spacing:0px;fill:#000000;fill-opacity:1;stroke:none;stroke-width:1px;stroke-linecap:butt;stroke-linejoin:miter;stroke-opacity:1"
           transform="matrix(1.1380803,0,0,1.3748795,-146.20542,-116.29581)">
          <path
             inkscape:connector-curvature="0"
             id="path4353"
             style="font-style:normal;font-variant:normal;font-weight:bold;font-stretch:normal;font-size:5.75385332px;line-height:125%;font-family:'Galano Grotesque DEMO';-inkscape-font-specification:'Galano Grotesque DEMO, Bold';text-align:start;writing-mode:lr-tb;text-anchor:start;fill:#000000"
             d="m 493.66817,420.6602 q 0.25566,0 0.38771,-0.11238 0.13204,-0.11238 0.13204,-0.33152 0,-0.21633 -0.13204,-0.32871 -0.13205,-0.11519 -0.38771,-0.11519 l -0.59843,0 0,0.8878 0.59843,0 z m 0.0365,1.83461 q 0.3259,0 0.48885,-0.13767 0.16576,-0.13766 0.16576,-0.4158 0,-0.27253 -0.16295,-0.40738 -0.16295,-0.13767 -0.49166,-0.13767 l -0.63495,0 0,1.09852 0.63495,0 z m 1.0058,-1.5087 q 0.34838,0.10114 0.53942,0.37366 0.19105,0.27252 0.19105,0.66866 0,0.60685 -0.41019,0.90466 -0.41018,0.29781 -1.24741,0.29781 l -1.79527,0 0,-4.19459 1.62389,0 q 0.87375,0 1.26427,0.2641 0.39333,0.26409 0.39333,0.84566 0,0.30623 -0.14328,0.52256 -0.14329,0.21353 -0.41581,0.31748 z" />
          <path
             inkscape:connector-curvature="0"
             id="path4355"
             style="font-style:normal;font-variant:normal;font-weight:bold;font-stretch:normal;font-size:5.75385332px;line-height:125%;font-family:'Galano Grotesque DEMO';-inkscape-font-specification:'Galano Grotesque DEMO, Bold';text-align:start;writing-mode:lr-tb;text-anchor:start;fill:#000000"
             d="m 497.82341,420.72763 q -0.33433,0 -0.51132,0.24162 -0.17419,0.23881 -0.17419,0.69114 0,0.45233 0.17419,0.69394 0.17699,0.23881 0.51132,0.23881 0.32872,0 0.5029,-0.23881 0.17419,-0.24161 0.17419,-0.69394 0,-0.45233 -0.17419,-0.69114 -0.17418,-0.24162 -0.5029,-0.24162 z m 0,-0.71923 q 0.81195,0 1.26709,0.43828 0.45795,0.43828 0.45795,1.21371 0,0.77542 -0.45795,1.2137 -0.45514,0.43828 -1.26709,0.43828 -0.81475,0 -1.27551,-0.43828 -0.45795,-0.43828 -0.45795,-1.2137 0,-0.77543 0.45795,-1.21371 0.46076,-0.43828 1.27551,-0.43828 z" />
          <path
             inkscape:connector-curvature="0"
             id="path4357"
             style="font-style:normal;font-variant:normal;font-weight:bold;font-stretch:normal;font-size:5.75385332px;line-height:125%;font-family:'Galano Grotesque DEMO';-inkscape-font-specification:'Galano Grotesque DEMO, Bold';text-align:start;writing-mode:lr-tb;text-anchor:start;fill:#000000"
             d="m 501.77919,420.72763 q -0.33433,0 -0.51133,0.24162 -0.17419,0.23881 -0.17419,0.69114 0,0.45233 0.17419,0.69394 0.177,0.23881 0.51133,0.23881 0.32871,0 0.5029,-0.23881 0.17419,-0.24161 0.17419,-0.69394 0,-0.45233 -0.17419,-0.69114 -0.17419,-0.24162 -0.5029,-0.24162 z m 0,-0.71923 q 0.81194,0 1.26708,0.43828 0.45795,0.43828 0.45795,1.21371 0,0.77542 -0.45795,1.2137 -0.45514,0.43828 -1.26708,0.43828 -0.81476,0 -1.27551,-0.43828 -0.45795,-0.43828 -0.45795,-1.2137 0,-0.77543 0.45795,-1.21371 0.46075,-0.43828 1.27551,-0.43828 z" />
          <path
             inkscape:connector-curvature="0"
             id="path4359"
             style="font-style:normal;font-variant:normal;font-weight:bold;font-stretch:normal;font-size:5.75385332px;line-height:125%;font-family:'Galano Grotesque DEMO';-inkscape-font-specification:'Galano Grotesque DEMO, Bold';text-align:start;writing-mode:lr-tb;text-anchor:start;fill:#000000"
             d="m 505.33601,419.19084 0,0.89342 1.03671,0 0,0.71923 -1.03671,0 0,1.33451 q 0,0.21914 0.0871,0.29781 0.0871,0.0759 0.34557,0.0759 l 0.51694,0 0,0.71924 -0.86251,0 q -0.59562,0 -0.84566,-0.24724 -0.24724,-0.25005 -0.24724,-0.84566 l 0,-1.33451 -0.50009,0 0,-0.71923 0.50009,0 0,-0.89342 1.0058,0 z" />
          <path
             inkscape:connector-curvature="0"
             id="path4361"
             style="font-style:normal;font-variant:normal;font-weight:bold;font-stretch:normal;font-size:5.75385332px;line-height:125%;font-family:'Galano Grotesque DEMO';-inkscape-font-specification:'Galano Grotesque DEMO, Bold';text-align:start;writing-mode:lr-tb;text-anchor:start;fill:#000000"
             d="m 509.44912,420.18259 0,0.76418 q -0.32309,-0.13485 -0.62371,-0.20228 -0.30062,-0.0674 -0.56752,-0.0674 -0.28657,0 -0.42704,0.0731 -0.13767,0.0702 -0.13767,0.21914 0,0.12081 0.10395,0.18543 0.10676,0.0646 0.37929,0.0955 l 0.17699,0.0253 q 0.77262,0.0983 1.03952,0.3231 0.2669,0.22476 0.2669,0.70518 0,0.5029 -0.37085,0.75576 -0.37086,0.25285 -1.10694,0.25285 -0.31186,0 -0.64619,-0.0506 -0.33152,-0.0478 -0.68271,-0.14609 l 0,-0.76419 q 0.30062,0.1461 0.61528,0.21914 0.31748,0.0731 0.64338,0.0731 0.295,0 0.4439,-0.0815 0.1489,-0.0815 0.1489,-0.24162 0,-0.13486 -0.10395,-0.19948 -0.10114,-0.0674 -0.40738,-0.10395 l -0.177,-0.0225 q -0.67147,-0.0843 -0.94118,-0.31186 -0.26971,-0.22757 -0.26971,-0.69113 0,-0.5001 0.34276,-0.74171 0.34276,-0.24162 1.05075,-0.24162 0.27814,0 0.58438,0.0421 0.30623,0.0421 0.66585,0.13205 z" />
          <path
             inkscape:connector-curvature="0"
             id="path4363"
             style="font-style:normal;font-variant:normal;font-weight:bold;font-stretch:normal;font-size:5.75385332px;line-height:125%;font-family:'Galano Grotesque DEMO';-inkscape-font-specification:'Galano Grotesque DEMO, Bold';text-align:start;writing-mode:lr-tb;text-anchor:start;fill:#000000"
             d="m 511.51691,419.19084 0,0.89342 1.03671,0 0,0.71923 -1.03671,0 0,1.33451 q 0,0.21914 0.0871,0.29781 0.0871,0.0759 0.34556,0.0759 l 0.51695,0 0,0.71924 -0.86251,0 q -0.59562,0 -0.84566,-0.24724 -0.24724,-0.25005 -0.24724,-0.84566 l 0,-1.33451 -0.50009,0 0,-0.71923 0.50009,0 0,-0.89342 1.0058,0 z" />
          <path
             inkscape:connector-curvature="0"
             id="path4365"
             style="font-style:normal;font-variant:normal;font-weight:bold;font-stretch:normal;font-size:5.75385332px;line-height:125%;font-family:'Galano Grotesque DEMO';-inkscape-font-specification:'Galano Grotesque DEMO, Bold';text-align:start;writing-mode:lr-tb;text-anchor:start;fill:#000000"
             d="m 515.50921,420.94115 q -0.13205,-0.0618 -0.26409,-0.0899 -0.12924,-0.0309 -0.26129,-0.0309 -0.38771,0 -0.59842,0.25004 -0.2079,0.24724 -0.2079,0.7108 l 0,1.44971 -1.0058,0 0,-3.14664 1.0058,0 0,0.51695 q 0.19385,-0.30905 0.4439,-0.44952 0.25285,-0.14329 0.60404,-0.14329 0.0506,0 0.10957,0.006 0.059,0.003 0.17138,0.0169 l 0.003,0.91027 z" />
          <path
             inkscape:connector-curvature="0"
             id="path4367"
             style="font-style:normal;font-variant:normal;font-weight:bold;font-stretch:normal;font-size:5.75385332px;line-height:125%;font-family:'Galano Grotesque DEMO';-inkscape-font-specification:'Galano Grotesque DEMO, Bold';text-align:start;writing-mode:lr-tb;text-anchor:start;fill:#000000"
             d="m 517.42529,421.81491 q -0.31467,0 -0.47481,0.10676 -0.15733,0.10676 -0.15733,0.31466 0,0.19105 0.12643,0.30062 0.12923,0.10676 0.3568,0.10676 0.28376,0 0.47762,-0.20228 0.19385,-0.2051 0.19385,-0.51133 l 0,-0.11519 -0.52256,0 z m 1.53679,-0.37928 0,1.79527 -1.01423,0 0,-0.46638 q -0.20228,0.28657 -0.45514,0.41861 -0.25285,0.12924 -0.61528,0.12924 -0.48885,0 -0.79508,-0.28376 -0.30343,-0.28657 -0.30343,-0.74171 0,-0.55347 0.37928,-0.81194 0.38209,-0.25847 1.19685,-0.25847 l 0.5928,0 0,-0.0787 q 0,-0.23881 -0.18823,-0.34838 -0.18824,-0.11238 -0.58719,-0.11238 -0.32309,0 -0.60123,0.0646 -0.27814,0.0646 -0.51695,0.19386 l 0,-0.767 q 0.32309,-0.0787 0.649,-0.118 0.3259,-0.0421 0.6518,-0.0421 0.85128,0 1.22775,0.33714 0.37928,0.33433 0.37928,1.09009 z" />
          <path
             inkscape:connector-curvature="0"
             id="path4369"
             style="font-style:normal;font-variant:normal;font-weight:bold;font-stretch:normal;font-size:5.75385332px;line-height:125%;font-family:'Galano Grotesque DEMO';-inkscape-font-specification:'Galano Grotesque DEMO, Bold';text-align:start;writing-mode:lr-tb;text-anchor:start;fill:#000000"
             d="m 520.90906,422.77576 0,1.65198 -1.0058,0 0,-4.34348 1.0058,0 0,0.46076 q 0.20791,-0.27534 0.46076,-0.40457 0.25286,-0.13205 0.58157,-0.13205 0.58157,0 0.95523,0.46357 0.37366,0.46076 0.37366,1.18842 0,0.72766 -0.37366,1.19122 -0.37366,0.46076 -0.95523,0.46076 -0.32871,0 -0.58157,-0.12924 -0.25285,-0.13204 -0.46076,-0.40737 z m 0.66867,-2.03689 q -0.3231,0 -0.49729,0.23881 -0.17138,0.236 -0.17138,0.68271 0,0.44671 0.17138,0.68551 0.17419,0.236 0.49729,0.236 0.32309,0 0.49166,-0.236 0.17138,-0.23599 0.17138,-0.68551 0,-0.44952 -0.17138,-0.68552 -0.16857,-0.236 -0.49166,-0.236 z" />
        </g>
      </g>
    </g>
    <g
       id="g10062">
      <text
         sodipodi:linespacing="125%"
         id="text5108"
         y="368.7254"
         x="382.36795"
         style="font-style:normal;font-weight:normal;font-size:23.96299171px;line-height:125%;font-family:sans-serif;letter-spacing:0px;word-spacing:0px;fill:#ff2a2a;fill-opacity:1;stroke:none;stroke-width:1px;stroke-linecap:butt;stroke-linejoin:miter;stroke-opacity:1"
         xml:space="preserve"><tspan
           y="368.7254"
           x="382.36795"
           id="tspan5110"
           sodipodi:role="line">+</tspan></text>
      <g
         transform="matrix(0.60133292,0,0,0.60133292,366.97505,171.83263)"
         id="g9475">
        <path
           style="opacity:0.8;fill:#aa0044;fill-opacity:1;fill-rule:nonzero;stroke:none;stroke-width:0.40429753;stroke-linecap:round;stroke-linejoin:bevel;stroke-miterlimit:4;stroke-dasharray:none;stroke-opacity:1"
           d="m -157.39453,11.164062 c -11.18972,5.83e-4 -20.26032,9.241699 -20.25977,20.640626 5.1e-4,11.398164 9.0708,20.638088 20.25977,20.638671 8.38288,-0.01008 15.894,-5.278118 18.89453,-13.251953 l -9.85547,0 c -2.10615,3.174333 -5.5216,5.064362 -9.16601,5.072266 -4.98441,-0.0046 -9.37284,-3.506257 -10.78711,-8.607422 10.83225,0 21.35232,-0.07003 30.81836,-0.06445 0.23334,-1.248467 0.35299,-2.516222 0.35742,-3.787109 5.5e-4,-11.399703 -9.07124,-20.64114 -20.26172,-20.640626 z m -0.12695,9.064454 c 4.71073,0.003 8.92177,3.135579 10.55468,7.851562 l -21.09961,0 c 1.63167,-4.712414 5.83777,-7.844197 10.54493,-7.851562 z"
           id="path9373-9-8-7"
           inkscape:connector-curvature="0"
           sodipodi:nodetypes="sscccccccscccc"
           transform="translate(236.07857,308.06219)" />
        <path
           style="opacity:0.8;fill:#008aff;fill-opacity:1;fill-rule:nonzero;stroke:none;stroke-width:0.50111485;stroke-linecap:round;stroke-linejoin:bevel;stroke-miterlimit:4;stroke-dasharray:none;stroke-opacity:1"
           d="m -85.466797,-0.27929688 0,8.60742188 4.865235,0 -8.296876,10.152344 -8.298828,-10.1542971 4.496094,0 0,-8.60351565 -21.173828,0 0,8.60351565 5.00977,0 14.087886,17.3476561 -14.164066,17.332031 -5.05273,0 0,8.659572 21.664062,0.03156 0,-8.691139 -4.763672,0 8.195312,-10.091797 8.320313,10.244141 -4.634766,0 0,8.607422 20.923829,0 0,-8.607422 -4.441407,0 -14.289062,-17.482422 14.08789,-17.347656 4.390625,0 0,-8.60742188 z"
           transform="translate(236.07857,308.06219)"
           id="rect9429"
           inkscape:connector-curvature="0"
           sodipodi:nodetypes="ccccccccccccccccccccccccccccc" />
        <path
           id="path9373-9-8"
           transform="translate(236.07857,308.06219)"
           style="opacity:0.4;fill:#000000;fill-opacity:1;fill-rule:nonzero;stroke:none;stroke-width:0.41420129;stroke-linecap:round;stroke-linejoin:bevel;stroke-miterlimit:4;stroke-dasharray:none;stroke-opacity:1"
           d="m -121.97656,-0.20507812 0,8.33398432 5.55664,0 0,6.8359378 c -3.26073,-2.274439 -7.10935,-3.490867 -11.04883,-3.492188 -10.88007,-2.65e-4 -19.70045,9.073701 -19.70117,20.267578 -3.3e-4,11.194641 8.82035,20.269797 19.70117,20.269532 3.94126,-0.0065 7.79004,-1.229106 11.04883,-3.509766 l 0,3.223657 15.17187,0.02012 0,-8.532836 -6.83789,0 -0.0904,-43.46065898 z m 5.69935,32.13543812 c 0,6.634146 -5.29324,12.012186 -11.82278,12.01219 -6.52955,1e-6 -11.82279,-5.37804 -11.82279,-12.01219 0,-6.63415 5.29324,-12.012191 11.82279,-12.01219 6.52954,4e-6 11.82278,5.378044 11.82278,12.01219 z"
           inkscape:connector-curvature="0"
           sodipodi:nodetypes="ccccccccccccccsssss" />
      </g>
      <g
         transform="matrix(0.15975443,0,0,0.15975443,274.07544,271.926)"
         id="g10021">
        <path
           inkscape:connector-curvature="0"
           d="m 878.99921,399.57687 0,-18.18 -22.5763,0 0,-28.26375 -0.7599,0.23375 -21.205,6.4875 -0.4175,0.1275 0,21.415 -33.4688,0 0,-11.92875 c 0,-5.555 1.2425,-9.80625 3.69,-12.64125 2.4313,-2.80125 5.9088,-4.225 10.3425,-4.225 3.1888,0 6.49,0.75125 9.8113,2.2325 l 0.8325,0.37125 0,-19.14625 -0.3913,-0.14375 c -3.0987,-1.11375 -7.315,-1.675 -12.5387,-1.675 -6.585,0 -12.5688,1.4325 -17.7863,4.2725 -5.2212,2.84375 -9.3287,6.90375 -12.205,12.06625 -2.8675,5.15625 -4.3225,11.11125 -4.3225,17.70125 l 0,13.11625 -15.72,0 0,18.18 15.72,0 0,76.58875 22.5675,0 0,-76.58875 33.4688,0 0,48.67125 c 0,20.045 9.455,30.20375 28.1012,30.20375 3.065,0 6.2888,-0.36 9.5825,-1.06375 3.3513,-0.72125 5.6338,-1.4425 6.9775,-2.2125 l 0.2975,-0.175 0,-18.34875 -0.9175,0.6075 c -1.225,0.8175 -2.75,1.48375 -4.5387,1.97875 -1.7963,0.505 -3.2963,0.75875 -4.4575,0.75875 -4.3688,0 -7.6,-1.1775 -9.6063,-3.5 -2.0275,-2.34375 -3.0562,-6.44375 -3.0562,-12.1775 l 0,-44.7425 22.5762,0 z m -167.1117,60.42175 c -8.1913,0 -14.6488,-2.71625 -19.2,-8.06625 -4.5788,-5.3775 -6.8988,-13.04375 -6.8988,-22.78375 0,-10.04875 2.32,-17.91375 6.9013,-23.38625 4.5537,-5.43625 10.95,-8.195 19.0137,-8.195 7.825,0 14.0538,2.635 18.515,7.83625 4.485,5.2275 6.76,13.03 6.76,23.19625 0,10.29125 -2.14,18.19625 -6.36,23.48375 -4.19,5.24875 -10.4912,7.915 -18.7312,7.915 m 1.005,-80.885 c -15.6275,0 -28.04,4.57875 -36.8888,13.61 -8.8437,9.0325 -13.3287,21.53125 -13.3287,37.15375 0,14.8375 4.3775,26.7725 13.0112,35.4675 8.6338,8.69875 20.3838,13.105 34.92,13.105 15.1488,0 27.3138,-4.6425 36.16,-13.79875 8.845,-9.1475 13.3263,-21.5275 13.3263,-36.785 0,-15.07 -4.205,-27.09375 -12.5025,-35.73125 -8.3013,-8.64125 -19.9775,-13.02125 -34.6975,-13.02125 m -86.6032,-5e-4 c -10.63,0 -19.42246,2.71875 -26.13997,8.08 -6.7575,5.3925 -10.185,12.46625 -10.185,21.025 0,4.44875 0.74,8.40125 2.19625,11.7525 1.465,3.36375 3.7325,6.32375 6.74375,8.80875 2.99001,2.465 7.60251,5.0475 13.71747,7.67375 5.1388,2.115 8.9725,3.905 11.4075,5.315 2.38,1.38125 4.07,2.77125 5.0238,4.12375 0.9262,1.32375 1.3975,3.135 1.3975,5.3725 0,6.36625 -4.7675,9.46375 -14.5788,9.46375 -3.6387,0 -7.78996,-0.75875 -12.33746,-2.2575 -4.55001,-1.49625 -8.80126,-3.6475 -12.63376,-6.40625 l -0.93625,-0.67125 0,21.72625 0.34375,0.16 c 3.19375,1.47375 7.21875,2.71625 11.96376,3.695 4.73625,0.97875 9.03876,1.4775 12.77746,1.4775 11.535,0 20.8238,-2.7325 27.6013,-8.125 6.8212,-5.43 10.2787,-12.67 10.2787,-21.52625 0,-6.3875 -1.8612,-11.86625 -5.53,-16.28375 -3.6425,-4.3825 -9.965,-8.405 -18.785,-11.96125 -7.0262,-2.82 -11.5275,-5.16125 -13.3837,-6.9575 -1.79,-1.73625 -2.6988,-4.19125 -2.6988,-7.3 0,-2.75625 1.1213,-4.96375 3.425,-6.7525 2.3213,-1.7975 5.5513,-2.71125 9.6038,-2.71125 3.76,0 7.6075,0.59375 11.4325,1.7575 3.8237,1.16375 7.1812,2.7225 9.985,4.63 l 0.9212,0.63 0,-20.61 -0.3537,-0.1525 c -2.5863,-1.10875 -5.9963,-2.0575 -10.1375,-2.8275 -4.125,-0.7625 -7.8663,-1.14875 -11.1188,-1.14875 m -95.15747,80.8855 c -8.18875,0 -14.64875,-2.71625 -19.19875,-8.06625 -4.58,-5.3775 -6.89625,-13.04125 -6.89625,-22.78375 0,-10.04875 2.31875,-17.91375 6.90125,-23.38625 4.55,-5.43625 10.945,-8.195 19.0125,-8.195 7.8225,0 14.05125,2.635 18.51375,7.83625 4.485,5.2275 6.76,13.03 6.76,23.19625 0,10.29125 -2.14125,18.19625 -6.36125,23.48375 -4.19,5.24875 -10.48875,7.915 -18.73125,7.915 m 1.0075,-80.885 c -15.63125,0 -28.04375,4.57875 -36.88875,13.61 -8.84375,9.0325 -13.33125,21.53125 -13.33125,37.15375 0,14.84375 4.38,26.7725 13.01375,35.4675 8.63375,8.69875 20.3825,13.105 34.92,13.105 15.145,0 27.31375,-4.6425 36.16,-13.79875 8.8425,-9.1475 13.32625,-21.5275 13.32625,-36.785 0,-15.07 -4.20625,-27.09375 -12.505,-35.73125 -8.30375,-8.64125 -19.9775,-13.02125 -34.695,-13.02125 m -84.47675,18.6945 0,-16.41125 -22.29251,0 0,94.76625 22.29251,0 0,-48.47625 c 0,-8.24375 1.86875,-15.015 5.55625,-20.13 3.64125,-5.05375 8.49375,-7.615 14.4175,-7.615 2.0075,0 4.26125,0.33125 6.7025,0.98625 2.41625,0.65125 4.16625,1.3575 5.19875,2.10125 l 0.93625,0.67875 0,-22.47375 -0.36125,-0.155 c -2.07625,-0.8825 -5.0125,-1.3275 -8.72875,-1.3275 -5.60125,0 -10.615,1.8 -14.90875,5.34375 -3.76875,3.115 -6.49375,7.38625 -8.57625,12.7125 l -0.23625,0 z m -62.21313,-18.695 c -10.22625,0 -19.34875,2.19375 -27.10875,6.51625 -7.775,4.3325 -13.7875,10.51875 -17.87875,18.385 -4.0725,7.8475 -6.14,17.01375 -6.14,27.235 0,8.95375 2.005,17.17125 5.9675,24.4125 3.965,7.25375 9.5775,12.92875 16.68125,16.865 7.09375,3.93125 15.2925,5.925 24.37,5.925 10.59375,0 19.63875,-2.11875 26.89125,-6.295 l 0.2925,-0.16875 0,-20.4225 -0.93625,0.68375 c -3.285,2.3925 -6.95625,4.3025 -10.90625,5.67875 -3.94,1.375 -7.5325,2.07 -10.68125,2.07 -8.7475,0 -15.76875,-2.7375 -20.86625,-8.1325 -5.10875,-5.40375 -7.69875,-12.99 -7.69875,-22.5375 0,-9.6075 2.70125,-17.38875 8.025,-23.13125 5.30625,-5.725 12.34125,-8.62875 20.9075,-8.62875 7.3275,0 14.4675,2.48125 21.2225,7.38125 l 0.93375,0.67875 0,-21.51875 -0.30125,-0.17 c -2.5425,-1.4225 -6.00875,-2.5975 -10.31375,-3.48875 -4.285,-0.88875 -8.47625,-1.3375 -12.46,-1.3375 m -66.48075,2.284 -22.2925,0 0,94.76625 22.2925,0 0,-94.76625 z m -10.91875,-40.37125 c -3.66875,0 -6.86875,1.24875 -9.4975,3.72375 -2.64,2.4825 -3.98,5.6075 -3.98,9.295 0,3.63 1.32375,6.6975 3.9375,9.11375 2.5975,2.40875 5.8075,3.63 9.54,3.63 3.73125,0 6.95375,-1.22125 9.5825,-3.62625 2.64625,-2.42 3.9875,-5.4875 3.9875,-9.1175 0,-3.55875 -1.305,-6.6525 -3.87875,-9.195 -2.57,-2.5375 -5.83125,-3.82375 -9.69125,-3.82375 m -55.61989,33.3795 0,101.7575 22.75001,0 0,-132.235 -31.48626,0 -40.0225,98.22 -38.83875,-98.22 -32.76875,0 0,132.235 21.37875,0 0,-101.7675 0.735,0 41.0125,101.7675 16.13375,0 40.3725,-101.7575 0.73375,0 z"
           id="path5056"
           style="fill:#777777;fill-opacity:1;fill-rule:nonzero;stroke:none" />
        <path
           inkscape:connector-curvature="0"
           d="m -49.878811,404.60587 -104.867509,0 0,-104.8675 104.867509,0 0,104.8675 z"
           id="path5058"
           style="fill:#f35325;fill-opacity:1;fill-rule:nonzero;stroke:none" />
        <path
           inkscape:connector-curvature="0"
           d="m 65.907439,404.60587 -104.86625,0 0,-104.8675 104.86625,0 0,104.8675 z"
           id="path5060"
           style="fill:#81bc06;fill-opacity:1;fill-rule:nonzero;stroke:none" />
        <path
           inkscape:connector-curvature="0"
           d="m -49.881311,520.43337 -104.865009,0 0,-104.8675 104.865009,0 0,104.8675 z"
           id="path5062"
           style="fill:#05a6f0;fill-opacity:1;fill-rule:nonzero;stroke:none" />
        <path
           inkscape:connector-curvature="0"
           d="m 65.907439,520.43337 -104.86625,0 0,-104.8675 104.86625,0 0,104.8675 z"
           id="path5064"
           style="fill:#ffba08;fill-opacity:1;fill-rule:nonzero;stroke:none" />
      </g>
    </g>
  </g>
</svg>
