<?xml version="1.0" encoding="UTF-8" standalone="no"?>
<!-- Created with Inkscape (http://www.inkscape.org/) -->

<svg
   xmlns:dc="http://purl.org/dc/elements/1.1/"
   xmlns:cc="http://creativecommons.org/ns#"
   xmlns:rdf="http://www.w3.org/1999/02/22-rdf-syntax-ns#"
   xmlns:svg="http://www.w3.org/2000/svg"
   xmlns="http://www.w3.org/2000/svg"
   xmlns:sodipodi="http://sodipodi.sourceforge.net/DTD/sodipodi-0.dtd"
   xmlns:inkscape="http://www.inkscape.org/namespaces/inkscape"
   width="75"
   height="75"
   viewBox="0 0 75.000004 75.000001"
   id="svg6234"
   version="1.1"
   inkscape:version="0.91 r13725"
   sodipodi:docname="pdfDownload.svg">
  <defs
     id="defs6236" />
  <sodipodi:namedview
     id="base"
     pagecolor="#ffffff"
     bordercolor="#666666"
     borderopacity="1.0"
     inkscape:pageopacity="0.0"
     inkscape:pageshadow="2"
     inkscape:zoom="3.959798"
     inkscape:cx="37.490799"
     inkscape:cy="42.174707"
     inkscape:document-units="px"
     inkscape:current-layer="layer1"
     showgrid="false"
     units="px"
     inkscape:window-width="1920"
     inkscape:window-height="1017"
     inkscape:window-x="-8"
     inkscape:window-y="-8"
     inkscape:window-maximized="1" />
  <metadata
     id="metadata6239">
    <rdf:RDF>
      <cc:Work
         rdf:about="">
        <dc:format>image/svg+xml</dc:format>
        <dc:type
           rdf:resource="http://purl.org/dc/dcmitype/StillImage" />
        <dc:title />
      </cc:Work>
    </rdf:RDF>
  </metadata>
  <g
     inkscape:label="Capa 1"
     inkscape:groupmode="layer"
     id="layer1"
     transform="translate(0,-977.36228)">
    <g
       id="g11078"
       transform="matrix(0.14266267,0,0,0.14266267,172.47227,1106.0783)">
      <circle
         id="circle10968"
         r="256"
         cy="-641.77844"
         cx="-946.09381"
         style="fill:#e2e4e5" />
      <path
         id="path10970"
         d="m -1094.263,-797.15723 c 0,-9.872 8.001,-17.873 17.873,-17.873 l 131.07201,0 74.473,62.557 0,217.46 c 0,9.872 -8.001,17.873 -17.873,17.873 l -187.67201,0 c -9.872,0 -17.873,-8.001 -17.873,-17.873 l 0,-262.144 z"
         style="fill:#12b2a0"
         inkscape:connector-curvature="0" />
      <path
         id="path10972"
         d="m -945.31799,-815.03023 0,44.684 c 0,9.872 8.001,17.873 17.873,17.873 l 56.599,0"
         style="fill:#099686"
         inkscape:connector-curvature="0" />
      <text
         transform="scale(0.92909708,1.0763138)"
         sodipodi:linespacing="125%"
         id="text11068"
         y="-575.37347"
         x="-1171.9237"
         style="font-style:normal;font-variant:normal;font-weight:bold;font-stretch:normal;font-size:100.69900513px;line-height:125%;font-family:sans-serif;-inkscape-font-specification:'sans-serif, Bold';text-align:start;letter-spacing:0px;word-spacing:0px;writing-mode:lr-tb;text-anchor:start;fill:#ffffff;fill-opacity:1;stroke:none;stroke-width:1px;stroke-linecap:butt;stroke-linejoin:miter;stroke-opacity:1"
         xml:space="preserve"><tspan
           y="-575.37347"
           x="-1171.9237"
           id="tspan11070"
           sodipodi:role="line">PDF</tspan></text>
      <path
         inkscape:connector-curvature="0"
         id="rect11072"
         d="m -853.18227,-717.61392 c -6.63302,0 -11.97413,5.33534 -11.97413,11.96547 l 0,194.49726 -23.01026,0 c -6.63302,0 -11.97413,5.33878 -11.97413,11.9689 0,11.95413 85.71475,117.14413 102.04295,117.14413 16.47218,0 102.0395,-106.98932 102.0395,-117.14413 0,-6.63012 -5.34113,-11.9689 -11.97413,-11.9689 l -23.01026,0 0,-194.49726 c 0,-6.63013 -5.34111,-11.96547 -11.97413,-11.96547 l -110.16541,0 z"
         style="opacity:1;fill:#ff0000;fill-opacity:1;fill-rule:nonzero;stroke:#000000;stroke-width:2.1028626;stroke-linejoin:round;stroke-miterlimit:4;stroke-dasharray:none;stroke-opacity:1" />
    </g>
  </g>
</svg>
